<?xml version="1.0" encoding="utf-8" standalone="no"?>
<!DOCTYPE svg PUBLIC "-//W3C//DTD SVG 1.1//EN"
  "http://www.w3.org/Graphics/SVG/1.1/DTD/svg11.dtd">
<svg xmlns:xlink="http://www.w3.org/1999/xlink" width="836.09625pt" height="401.098634pt" viewBox="0 0 836.09625 401.098634" xmlns="http://www.w3.org/2000/svg" version="1.1">
 <metadata>
  <rdf:RDF xmlns:dc="http://purl.org/dc/elements/1.1/" xmlns:cc="http://creativecommons.org/ns#" xmlns:rdf="http://www.w3.org/1999/02/22-rdf-syntax-ns#">
   <cc:Work>
    <dc:type rdf:resource="http://purl.org/dc/dcmitype/StillImage"/>
    <dc:date>2026-01-25T21:04:30.285589</dc:date>
    <dc:format>image/svg+xml</dc:format>
    <dc:creator>
     <cc:Agent>
      <dc:title>Matplotlib v3.7.5, https://matplotlib.org/</dc:title>
     </cc:Agent>
    </dc:creator>
   </cc:Work>
  </rdf:RDF>
 </metadata>
 <defs>
  <style type="text/css">*{stroke-linejoin: round; stroke-linecap: butt}</style>
 </defs>
 <g id="figure_1">
  <g id="patch_1">
   <path d="M 0 401.098634 
L 836.09625 401.098634 
L 836.09625 0 
L 0 0 
L 0 401.098634 
z
" style="fill: none"/>
  </g>
  <g id="axes_1">
   <g id="patch_2">
    <path d="M 75.721875 347.542384 
L 740.061875 347.542384 
L 740.061875 34.736684 
L 75.721875 34.736684 
L 75.721875 347.542384 
z
" style="fill: none"/>
   </g>
   <g id="patch_3">
    <path d="M 105.919148 347.542384 
L 143.003518 347.542384 
L 143.003518 99.65258 
L 105.919148 99.65258 
z
" clip-path="url(#p1917f1bc5b)" style="fill: url(#h9562134ddb); stroke: #ffffff; stroke-linejoin: miter"/>
   </g>
   <g id="patch_4">
    <path d="M 211.874491 347.542384 
L 248.958861 347.542384 
L 248.958861 120.054758 
L 211.874491 120.054758 
z
" clip-path="url(#p1917f1bc5b)" style="fill: url(#h9562134ddb); stroke: #ffffff; stroke-linejoin: miter"/>
   </g>
   <g id="patch_5">
    <path d="M 317.829834 347.542384 
L 354.914204 347.542384 
L 354.914204 76.747805 
L 317.829834 76.747805 
z
" clip-path="url(#p1917f1bc5b)" style="fill: url(#h9562134ddb); stroke: #ffffff; stroke-linejoin: miter"/>
   </g>
   <g id="patch_6">
    <path d="M 423.785176 347.542384 
L 460.869546 347.542384 
L 460.869546 75.537427 
L 423.785176 75.537427 
z
" clip-path="url(#p1917f1bc5b)" style="fill: url(#h9562134ddb); stroke: #ffffff; stroke-linejoin: miter"/>
   </g>
   <g id="patch_7">
    <path d="M 529.740519 347.542384 
L 566.824889 347.542384 
L 566.824889 91.253789 
L 529.740519 91.253789 
z
" clip-path="url(#p1917f1bc5b)" style="fill: url(#h9562134ddb); stroke: #ffffff; stroke-linejoin: miter"/>
   </g>
   <g id="patch_8">
    <path d="M 635.695862 347.542384 
L 672.780232 347.542384 
L 672.780232 158.046729 
L 635.695862 158.046729 
z
" clip-path="url(#p1917f1bc5b)" style="fill: url(#h9562134ddb); stroke: #ffffff; stroke-linejoin: miter"/>
   </g>
   <g id="patch_9">
    <path d="M 105.919148 347.542384 
L 143.003518 347.542384 
L 143.003518 99.65258 
L 105.919148 99.65258 
L 105.919148 347.542384 
z
" clip-path="url(#p1917f1bc5b)" style="fill: none"/>
   </g>
   <g id="patch_10">
    <path d="M 211.874491 347.542384 
L 248.958861 347.542384 
L 248.958861 120.054758 
L 211.874491 120.054758 
L 211.874491 347.542384 
z
" clip-path="url(#p1917f1bc5b)" style="fill: none"/>
   </g>
   <g id="patch_11">
    <path d="M 317.829834 347.542384 
L 354.914204 347.542384 
L 354.914204 76.747805 
L 317.829834 76.747805 
L 317.829834 347.542384 
z
" clip-path="url(#p1917f1bc5b)" style="fill: none"/>
   </g>
   <g id="patch_12">
    <path d="M 423.785176 347.542384 
L 460.869546 347.542384 
L 460.869546 75.537427 
L 423.785176 75.537427 
L 423.785176 347.542384 
z
" clip-path="url(#p1917f1bc5b)" style="fill: none"/>
   </g>
   <g id="patch_13">
    <path d="M 529.740519 347.542384 
L 566.824889 347.542384 
L 566.824889 91.253789 
L 529.740519 91.253789 
L 529.740519 347.542384 
z
" clip-path="url(#p1917f1bc5b)" style="fill: none"/>
   </g>
   <g id="patch_14">
    <path d="M 635.695862 347.542384 
L 672.780232 347.542384 
L 672.780232 158.046729 
L 635.695862 158.046729 
L 635.695862 347.542384 
z
" clip-path="url(#p1917f1bc5b)" style="fill: none"/>
   </g>
   <g id="matplotlib.axis_1">
    <g id="xtick_1">
     <g id="line2d_1">
      <defs>
       <path id="m7d98d1afa4" d="M 0 0 
L 0 3.5 
" style="stroke: #000000; stroke-width: 0.8"/>
      </defs>
      <g>
       <use xlink:href="#m7d98d1afa4" x="143.003518" y="347.542384" style="stroke: #000000; stroke-width: 0.8"/>
      </g>
     </g>
     <g id="text_1">
      <!-- 1 -->
      <g transform="translate(138.003518 367.786134) scale(0.2 -0.2)">
       <defs>
        <path id="TimesNewRomanPS-BoldMT-31" d="M 2084 4325 
L 2084 859 
Q 2084 469 2118 361 
Q 2153 253 2262 184 
Q 2372 116 2613 116 
L 2709 116 
L 2709 0 
L 478 0 
L 478 116 
L 591 116 
Q 863 116 978 178 
Q 1094 241 1134 350 
Q 1175 459 1175 859 
L 1175 3056 
Q 1175 3350 1147 3423 
Q 1119 3497 1042 3548 
Q 966 3600 866 3600 
Q 706 3600 478 3500 
L 422 3613 
L 1981 4325 
L 2084 4325 
z
" transform="scale(0.015625)"/>
       </defs>
       <use xlink:href="#TimesNewRomanPS-BoldMT-31"/>
      </g>
     </g>
    </g>
    <g id="xtick_2">
     <g id="line2d_2">
      <g>
       <use xlink:href="#m7d98d1afa4" x="248.958861" y="347.542384" style="stroke: #000000; stroke-width: 0.8"/>
      </g>
     </g>
     <g id="text_2">
      <!-- 2 -->
      <g transform="translate(243.958861 367.786134) scale(0.2 -0.2)">
       <defs>
        <path id="TimesNewRomanPS-BoldMT-32" d="M 2650 0 
L 156 0 
L 156 69 
Q 1303 1434 1548 1906 
Q 1794 2378 1794 2828 
Q 1794 3156 1591 3373 
Q 1388 3591 1094 3591 
Q 613 3591 347 3109 
L 231 3150 
Q 400 3750 744 4037 
Q 1088 4325 1538 4325 
Q 1859 4325 2125 4175 
Q 2391 4025 2541 3764 
Q 2691 3503 2691 3275 
Q 2691 2859 2459 2431 
Q 2144 1853 1081 819 
L 1997 819 
Q 2334 819 2436 847 
Q 2538 875 2603 942 
Q 2669 1009 2775 1225 
L 2888 1225 
L 2650 0 
z
" transform="scale(0.015625)"/>
       </defs>
       <use xlink:href="#TimesNewRomanPS-BoldMT-32"/>
      </g>
     </g>
    </g>
    <g id="xtick_3">
     <g id="line2d_3">
      <g>
       <use xlink:href="#m7d98d1afa4" x="354.914204" y="347.542384" style="stroke: #000000; stroke-width: 0.8"/>
      </g>
     </g>
     <g id="text_3">
      <!-- 4 -->
      <g transform="translate(349.914204 367.786134) scale(0.2 -0.2)">
       <defs>
        <path id="TimesNewRomanPS-BoldMT-34" d="M 159 1597 
L 2172 4325 
L 2553 4325 
L 2553 1597 
L 2941 1597 
L 2941 950 
L 2553 950 
L 2553 0 
L 1694 0 
L 1694 950 
L 159 950 
L 159 1597 
z
M 463 1597 
L 1694 1597 
L 1694 3269 
L 463 1597 
z
" transform="scale(0.015625)"/>
       </defs>
       <use xlink:href="#TimesNewRomanPS-BoldMT-34"/>
      </g>
     </g>
    </g>
    <g id="xtick_4">
     <g id="line2d_4">
      <g>
       <use xlink:href="#m7d98d1afa4" x="460.869546" y="347.542384" style="stroke: #000000; stroke-width: 0.8"/>
      </g>
     </g>
     <g id="text_4">
      <!-- 8 -->
      <g transform="translate(455.869546 367.786134) scale(0.2 -0.2)">
       <defs>
        <path id="TimesNewRomanPS-BoldMT-38" d="M 2181 2394 
Q 2628 2066 2801 1783 
Q 2975 1500 2975 1134 
Q 2975 622 2589 267 
Q 2203 -88 1541 -88 
Q 913 -88 569 221 
Q 225 531 225 978 
Q 225 1319 423 1575 
Q 622 1831 1084 2044 
Q 581 2428 439 2672 
Q 297 2916 297 3238 
Q 297 3663 658 3986 
Q 1019 4309 1647 4309 
Q 2253 4309 2579 4023 
Q 2906 3738 2906 3338 
Q 2906 3038 2729 2808 
Q 2553 2578 2181 2394 
z
M 1944 2553 
Q 2059 2709 2115 2903 
Q 2172 3097 2172 3328 
Q 2172 3734 1997 3950 
Q 1866 4116 1634 4116 
Q 1425 4116 1278 3964 
Q 1131 3813 1131 3588 
Q 1131 3359 1295 3114 
Q 1459 2869 1944 2553 
z
M 1319 1894 
Q 1222 1806 1181 1734 
Q 1119 1625 1069 1415 
Q 1019 1206 1019 978 
Q 1019 684 1094 486 
Q 1169 288 1308 200 
Q 1447 113 1594 113 
Q 1822 113 1978 280 
Q 2134 447 2134 738 
Q 2134 1344 1319 1894 
z
" transform="scale(0.015625)"/>
       </defs>
       <use xlink:href="#TimesNewRomanPS-BoldMT-38"/>
      </g>
     </g>
    </g>
    <g id="xtick_5">
     <g id="line2d_5">
      <g>
       <use xlink:href="#m7d98d1afa4" x="566.824889" y="347.542384" style="stroke: #000000; stroke-width: 0.8"/>
      </g>
     </g>
     <g id="text_5">
      <!-- 16 -->
      <g transform="translate(556.824889 367.786134) scale(0.2 -0.2)">
       <defs>
        <path id="TimesNewRomanPS-BoldMT-36" d="M 3006 4325 
L 3006 4238 
Q 2441 4094 2098 3867 
Q 1756 3641 1557 3317 
Q 1359 2994 1250 2516 
Q 1388 2609 1478 2638 
Q 1681 2700 1888 2700 
Q 2363 2700 2680 2354 
Q 2997 2009 2997 1413 
Q 2997 994 2825 644 
Q 2653 294 2337 103 
Q 2022 -88 1663 -88 
Q 1272 -88 940 126 
Q 609 341 423 753 
Q 238 1166 238 1650 
Q 238 2363 580 2977 
Q 922 3591 1551 3955 
Q 2181 4319 3006 4325 
z
M 1209 2263 
Q 1184 1831 1184 1631 
Q 1184 1200 1267 797 
Q 1350 394 1494 231 
Q 1597 116 1738 116 
Q 1881 116 1993 283 
Q 2106 450 2106 963 
Q 2106 1825 1897 2153 
Q 1763 2366 1534 2366 
Q 1409 2366 1209 2263 
z
" transform="scale(0.015625)"/>
       </defs>
       <use xlink:href="#TimesNewRomanPS-BoldMT-31"/>
       <use xlink:href="#TimesNewRomanPS-BoldMT-36" x="50"/>
      </g>
     </g>
    </g>
    <g id="xtick_6">
     <g id="line2d_6">
      <g>
       <use xlink:href="#m7d98d1afa4" x="672.780232" y="347.542384" style="stroke: #000000; stroke-width: 0.8"/>
      </g>
     </g>
     <g id="text_6">
      <!-- 32 -->
      <g transform="translate(662.780232 367.786134) scale(0.2 -0.2)">
       <defs>
        <path id="TimesNewRomanPS-BoldMT-33" d="M 947 2125 
L 947 2234 
Q 1303 2338 1440 2427 
Q 1578 2516 1678 2698 
Q 1778 2881 1778 3069 
Q 1778 3328 1589 3514 
Q 1400 3700 1119 3700 
Q 681 3700 375 3238 
L 259 3278 
Q 484 3800 836 4062 
Q 1188 4325 1619 4325 
Q 2059 4325 2345 4056 
Q 2631 3788 2631 3428 
Q 2631 3194 2498 2976 
Q 2366 2759 2081 2594 
Q 2447 2416 2639 2155 
Q 2831 1894 2831 1500 
Q 2831 838 2351 373 
Q 1872 -91 1066 -91 
Q 528 -91 281 88 
Q 103 213 103 409 
Q 103 553 206 654 
Q 309 756 444 756 
Q 547 756 638 713 
Q 688 688 992 439 
Q 1297 191 1563 191 
Q 1794 191 1959 373 
Q 2125 556 2125 838 
Q 2125 1266 1825 1627 
Q 1525 1988 947 2125 
z
" transform="scale(0.015625)"/>
       </defs>
       <use xlink:href="#TimesNewRomanPS-BoldMT-33"/>
       <use xlink:href="#TimesNewRomanPS-BoldMT-32" x="50"/>
      </g>
     </g>
    </g>
    <g id="text_7">
     <!-- Number of Action Samples (K) -->
     <g transform="translate(276.4075 389.620509) scale(0.2 -0.2)">
      <defs>
       <path id="TimesNewRomanPS-BoldMT-4e" d="M 1594 4238 
L 3684 1609 
L 3684 3431 
Q 3684 3813 3575 3947 
Q 3425 4128 3072 4122 
L 3072 4238 
L 4472 4238 
L 4472 4122 
Q 4203 4088 4111 4033 
Q 4019 3978 3967 3854 
Q 3916 3731 3916 3431 
L 3916 -97 
L 3809 -97 
L 944 3431 
L 944 738 
Q 944 372 1111 244 
Q 1278 116 1494 116 
L 1594 116 
L 1594 0 
L 91 0 
L 91 116 
Q 441 119 578 259 
Q 716 400 716 738 
L 716 3728 
L 625 3841 
Q 491 4009 387 4062 
Q 284 4116 91 4122 
L 91 4238 
L 1594 4238 
z
" transform="scale(0.015625)"/>
       <path id="TimesNewRomanPS-BoldMT-75" d="M 3038 2922 
L 3038 634 
Q 3038 300 3100 217 
Q 3163 134 3353 113 
L 3353 0 
L 2163 0 
L 2163 391 
Q 1953 141 1743 26 
Q 1534 -88 1275 -88 
Q 1028 -88 836 64 
Q 644 216 578 419 
Q 513 622 513 1128 
L 513 2288 
Q 513 2619 452 2700 
Q 391 2781 197 2806 
L 197 2922 
L 1388 2922 
L 1388 925 
Q 1388 613 1417 522 
Q 1447 431 1511 384 
Q 1575 338 1659 338 
Q 1772 338 1863 397 
Q 1988 478 2163 725 
L 2163 2288 
Q 2163 2619 2102 2700 
Q 2041 2781 1847 2806 
L 1847 2922 
L 3038 2922 
z
" transform="scale(0.015625)"/>
       <path id="TimesNewRomanPS-BoldMT-6d" d="M 1428 2922 
L 1428 2538 
Q 1669 2800 1873 2904 
Q 2078 3009 2322 3009 
Q 2603 3009 2793 2878 
Q 2984 2747 3088 2478 
Q 3338 2759 3567 2884 
Q 3797 3009 4047 3009 
Q 4350 3009 4529 2870 
Q 4709 2731 4779 2517 
Q 4850 2303 4850 1834 
L 4850 638 
Q 4850 300 4911 219 
Q 4972 138 5166 113 
L 5166 0 
L 3656 0 
L 3656 113 
Q 3834 128 3919 250 
Q 3975 334 3975 638 
L 3975 1894 
Q 3975 2284 3944 2390 
Q 3913 2497 3845 2548 
Q 3778 2600 3688 2600 
Q 3553 2600 3415 2501 
Q 3278 2403 3138 2206 
L 3138 638 
Q 3138 322 3191 241 
Q 3263 125 3466 113 
L 3466 0 
L 1953 0 
L 1953 113 
Q 2075 119 2145 173 
Q 2216 228 2239 304 
Q 2263 381 2263 638 
L 2263 1894 
Q 2263 2291 2231 2391 
Q 2200 2491 2126 2547 
Q 2053 2603 1969 2603 
Q 1844 2603 1741 2538 
Q 1594 2441 1428 2206 
L 1428 638 
Q 1428 328 1489 229 
Q 1550 131 1744 113 
L 1744 0 
L 238 0 
L 238 113 
Q 422 131 500 231 
Q 553 300 553 638 
L 553 2288 
Q 553 2619 492 2700 
Q 431 2781 238 2806 
L 238 2922 
L 1428 2922 
z
" transform="scale(0.015625)"/>
       <path id="TimesNewRomanPS-BoldMT-62" d="M 1347 4238 
L 1347 2628 
Q 1716 3009 2153 3009 
Q 2453 3009 2718 2832 
Q 2984 2656 3134 2331 
Q 3284 2006 3284 1581 
Q 3284 1103 3093 712 
Q 2903 322 2584 117 
Q 2266 -88 1856 -88 
Q 1619 -88 1434 -12 
Q 1250 63 1072 231 
L 588 -84 
L 481 -84 
L 481 3631 
Q 481 3884 459 3944 
Q 428 4031 361 4073 
Q 294 4116 134 4122 
L 134 4238 
L 1347 4238 
z
M 1347 2350 
L 1347 1050 
Q 1347 653 1366 544 
Q 1397 359 1515 245 
Q 1634 131 1819 131 
Q 1978 131 2092 222 
Q 2206 313 2282 581 
Q 2359 850 2359 1550 
Q 2359 2222 2191 2472 
Q 2069 2653 1863 2653 
Q 1594 2653 1347 2350 
z
" transform="scale(0.015625)"/>
       <path id="TimesNewRomanPS-BoldMT-65" d="M 2691 1566 
L 1088 1566 
Q 1116 984 1397 647 
Q 1613 388 1916 388 
Q 2103 388 2256 492 
Q 2409 597 2584 869 
L 2691 800 
Q 2453 316 2165 114 
Q 1878 -88 1500 -88 
Q 850 -88 516 413 
Q 247 816 247 1413 
Q 247 2144 642 2576 
Q 1038 3009 1569 3009 
Q 2013 3009 2339 2645 
Q 2666 2281 2691 1566 
z
M 1922 1775 
Q 1922 2278 1867 2465 
Q 1813 2653 1697 2750 
Q 1631 2806 1522 2806 
Q 1359 2806 1256 2647 
Q 1072 2369 1072 1884 
L 1072 1775 
L 1922 1775 
z
" transform="scale(0.015625)"/>
       <path id="TimesNewRomanPS-BoldMT-72" d="M 1428 2922 
L 1428 2259 
Q 1719 2713 1937 2861 
Q 2156 3009 2359 3009 
Q 2534 3009 2639 2901 
Q 2744 2794 2744 2597 
Q 2744 2388 2642 2272 
Q 2541 2156 2397 2156 
Q 2231 2156 2109 2262 
Q 1988 2369 1966 2381 
Q 1934 2400 1894 2400 
Q 1803 2400 1722 2331 
Q 1594 2225 1528 2028 
Q 1428 1725 1428 1359 
L 1428 688 
L 1431 513 
Q 1431 334 1453 284 
Q 1491 200 1564 161 
Q 1638 122 1813 113 
L 1813 0 
L 234 0 
L 234 113 
Q 425 128 492 217 
Q 559 306 559 688 
L 559 2303 
Q 559 2553 534 2622 
Q 503 2709 443 2750 
Q 384 2791 234 2806 
L 234 2922 
L 1428 2922 
z
" transform="scale(0.015625)"/>
       <path id="TimesNewRomanPS-BoldMT-20" transform="scale(0.015625)"/>
       <path id="TimesNewRomanPS-BoldMT-6f" d="M 1594 3009 
Q 1975 3009 2303 2812 
Q 2631 2616 2801 2253 
Q 2972 1891 2972 1459 
Q 2972 838 2656 419 
Q 2275 -88 1603 -88 
Q 944 -88 587 375 
Q 231 838 231 1447 
Q 231 2075 595 2542 
Q 959 3009 1594 3009 
z
M 1606 2788 
Q 1447 2788 1333 2667 
Q 1219 2547 1183 2192 
Q 1147 1838 1147 1206 
Q 1147 872 1191 581 
Q 1225 359 1337 243 
Q 1450 128 1594 128 
Q 1734 128 1828 206 
Q 1950 313 1991 503 
Q 2053 800 2053 1703 
Q 2053 2234 1993 2432 
Q 1934 2631 1819 2722 
Q 1738 2788 1606 2788 
z
" transform="scale(0.015625)"/>
       <path id="TimesNewRomanPS-BoldMT-66" d="M 1497 2616 
L 1497 588 
Q 1497 294 1559 219 
Q 1659 103 1928 113 
L 1928 0 
L 206 0 
L 206 113 
Q 403 116 486 158 
Q 569 200 600 275 
Q 631 350 631 588 
L 631 2616 
L 206 2616 
L 206 2922 
L 631 2922 
L 631 3138 
L 628 3284 
Q 628 3734 958 4034 
Q 1288 4334 1850 4334 
Q 2234 4334 2420 4190 
Q 2606 4047 2606 3872 
Q 2606 3731 2490 3628 
Q 2375 3525 2184 3525 
Q 2022 3525 1926 3609 
Q 1831 3694 1831 3797 
Q 1831 3825 1850 3913 
Q 1863 3966 1863 4013 
Q 1863 4078 1825 4109 
Q 1775 4156 1703 4156 
Q 1613 4156 1552 4081 
Q 1491 4006 1491 3841 
L 1497 3294 
L 1497 2922 
L 1928 2922 
L 1928 2616 
L 1497 2616 
z
" transform="scale(0.015625)"/>
       <path id="TimesNewRomanPS-BoldMT-41" d="M 2663 1206 
L 1166 1206 
L 988 794 
Q 900 588 900 453 
Q 900 275 1044 191 
Q 1128 141 1459 116 
L 1459 0 
L 50 0 
L 50 116 
Q 278 150 425 304 
Q 572 459 788 944 
L 2303 4325 
L 2363 4325 
L 3891 850 
Q 4109 356 4250 228 
Q 4356 131 4550 116 
L 4550 0 
L 2500 0 
L 2500 116 
L 2584 116 
Q 2831 116 2931 184 
Q 3000 234 3000 328 
Q 3000 384 2981 444 
Q 2975 472 2888 678 
L 2663 1206 
z
M 2556 1438 
L 1925 2897 
L 1275 1438 
L 2556 1438 
z
" transform="scale(0.015625)"/>
       <path id="TimesNewRomanPS-BoldMT-63" d="M 2600 753 
L 2697 678 
Q 2491 291 2183 101 
Q 1875 -88 1528 -88 
Q 944 -88 594 353 
Q 244 794 244 1413 
Q 244 2009 563 2463 
Q 947 3009 1622 3009 
Q 2075 3009 2342 2781 
Q 2609 2553 2609 2272 
Q 2609 2094 2501 1987 
Q 2394 1881 2219 1881 
Q 2034 1881 1914 2003 
Q 1794 2125 1766 2438 
Q 1747 2634 1675 2713 
Q 1603 2791 1506 2791 
Q 1356 2791 1250 2631 
Q 1088 2391 1088 1894 
Q 1088 1481 1219 1104 
Q 1350 728 1578 544 
Q 1750 409 1984 409 
Q 2138 409 2275 481 
Q 2413 553 2600 753 
z
" transform="scale(0.015625)"/>
       <path id="TimesNewRomanPS-BoldMT-74" d="M 1375 3991 
L 1375 2922 
L 2069 2922 
L 2069 2613 
L 1375 2613 
L 1375 809 
Q 1375 556 1398 482 
Q 1422 409 1481 364 
Q 1541 319 1591 319 
Q 1794 319 1975 628 
L 2069 559 
Q 1816 -41 1247 -41 
Q 969 -41 776 114 
Q 584 269 531 459 
Q 500 566 500 1034 
L 500 2613 
L 119 2613 
L 119 2722 
Q 513 3000 789 3306 
Q 1066 3613 1272 3991 
L 1375 3991 
z
" transform="scale(0.015625)"/>
       <path id="TimesNewRomanPS-BoldMT-69" d="M 919 4338 
Q 1122 4338 1262 4195 
Q 1403 4053 1403 3853 
Q 1403 3653 1261 3512 
Q 1119 3372 919 3372 
Q 719 3372 578 3512 
Q 438 3653 438 3853 
Q 438 4053 578 4195 
Q 719 4338 919 4338 
z
M 1356 2922 
L 1356 606 
Q 1356 297 1428 211 
Q 1500 125 1709 113 
L 1709 0 
L 131 0 
L 131 113 
Q 325 119 419 225 
Q 481 297 481 606 
L 481 2313 
Q 481 2622 409 2708 
Q 338 2794 131 2806 
L 131 2922 
L 1356 2922 
z
" transform="scale(0.015625)"/>
       <path id="TimesNewRomanPS-BoldMT-6e" d="M 1409 2922 
L 1409 2544 
Q 1634 2788 1840 2898 
Q 2047 3009 2284 3009 
Q 2569 3009 2756 2851 
Q 2944 2694 3006 2459 
Q 3056 2281 3056 1775 
L 3056 638 
Q 3056 300 3117 217 
Q 3178 134 3372 113 
L 3372 0 
L 1894 0 
L 1894 113 
Q 2059 134 2131 250 
Q 2181 328 2181 638 
L 2181 1938 
Q 2181 2297 2153 2390 
Q 2125 2484 2058 2536 
Q 1991 2588 1909 2588 
Q 1641 2588 1409 2203 
L 1409 638 
Q 1409 309 1470 221 
Q 1531 134 1697 113 
L 1697 0 
L 219 0 
L 219 113 
Q 403 131 481 231 
Q 534 300 534 638 
L 534 2288 
Q 534 2619 473 2700 
Q 413 2781 219 2806 
L 219 2922 
L 1409 2922 
z
" transform="scale(0.015625)"/>
       <path id="TimesNewRomanPS-BoldMT-53" d="M 3006 4334 
L 3041 2922 
L 2913 2922 
Q 2822 3453 2467 3776 
Q 2113 4100 1700 4100 
Q 1381 4100 1195 3929 
Q 1009 3759 1009 3538 
Q 1009 3397 1075 3288 
Q 1166 3141 1366 2997 
Q 1513 2894 2044 2631 
Q 2788 2266 3047 1941 
Q 3303 1616 3303 1197 
Q 3303 666 2889 283 
Q 2475 -100 1838 -100 
Q 1638 -100 1459 -59 
Q 1281 -19 1013 94 
Q 863 156 766 156 
Q 684 156 593 93 
Q 503 31 447 -97 
L 331 -97 
L 331 1503 
L 447 1503 
Q 584 828 976 473 
Q 1369 119 1822 119 
Q 2172 119 2380 309 
Q 2588 500 2588 753 
Q 2588 903 2508 1043 
Q 2428 1184 2265 1311 
Q 2103 1438 1691 1641 
Q 1113 1925 859 2125 
Q 606 2325 470 2572 
Q 334 2819 334 3116 
Q 334 3622 706 3978 
Q 1078 4334 1644 4334 
Q 1850 4334 2044 4284 
Q 2191 4247 2402 4145 
Q 2613 4044 2697 4044 
Q 2778 4044 2825 4094 
Q 2872 4144 2913 4334 
L 3006 4334 
z
" transform="scale(0.015625)"/>
       <path id="TimesNewRomanPS-BoldMT-61" d="M 1828 431 
Q 1294 -41 869 -41 
Q 619 -41 453 123 
Q 288 288 288 534 
Q 288 869 575 1136 
Q 863 1403 1828 1847 
L 1828 2141 
Q 1828 2472 1792 2558 
Q 1756 2644 1656 2708 
Q 1556 2772 1431 2772 
Q 1228 2772 1097 2681 
Q 1016 2625 1016 2550 
Q 1016 2484 1103 2388 
Q 1222 2253 1222 2128 
Q 1222 1975 1108 1867 
Q 994 1759 809 1759 
Q 613 1759 480 1878 
Q 347 1997 347 2156 
Q 347 2381 525 2586 
Q 703 2791 1022 2900 
Q 1341 3009 1684 3009 
Q 2100 3009 2342 2832 
Q 2584 2656 2656 2450 
Q 2700 2319 2700 1847 
L 2700 713 
Q 2700 513 2715 461 
Q 2731 409 2762 384 
Q 2794 359 2834 359 
Q 2916 359 3000 475 
L 3094 400 
Q 2938 169 2770 64 
Q 2603 -41 2391 -41 
Q 2141 -41 2000 76 
Q 1859 194 1828 431 
z
M 1828 659 
L 1828 1638 
Q 1450 1416 1266 1163 
Q 1144 994 1144 822 
Q 1144 678 1247 569 
Q 1325 484 1466 484 
Q 1622 484 1828 659 
z
" transform="scale(0.015625)"/>
       <path id="TimesNewRomanPS-BoldMT-70" d="M 1347 297 
L 1347 -791 
Q 1347 -1016 1383 -1097 
Q 1419 -1178 1494 -1215 
Q 1569 -1253 1788 -1253 
L 1788 -1369 
L 122 -1369 
L 122 -1253 
Q 316 -1247 409 -1144 
Q 472 -1072 472 -772 
L 472 2313 
Q 472 2622 400 2708 
Q 328 2794 122 2806 
L 122 2922 
L 1347 2922 
L 1347 2538 
Q 1500 2763 1659 2863 
Q 1888 3009 2156 3009 
Q 2478 3009 2742 2806 
Q 3006 2603 3143 2245 
Q 3281 1888 3281 1475 
Q 3281 1031 3139 664 
Q 2997 297 2726 104 
Q 2456 -88 2125 -88 
Q 1884 -88 1675 19 
Q 1519 100 1347 297 
z
M 1347 613 
Q 1616 231 1922 231 
Q 2091 231 2200 409 
Q 2363 672 2363 1409 
Q 2363 2166 2184 2444 
Q 2066 2628 1866 2628 
Q 1550 2628 1347 2172 
L 1347 613 
z
" transform="scale(0.015625)"/>
       <path id="TimesNewRomanPS-BoldMT-6c" d="M 1359 4238 
L 1359 606 
Q 1359 297 1431 211 
Q 1503 125 1713 113 
L 1713 0 
L 134 0 
L 134 113 
Q 328 119 422 225 
Q 484 297 484 606 
L 484 3631 
Q 484 3938 412 4023 
Q 341 4109 134 4122 
L 134 4238 
L 1359 4238 
z
" transform="scale(0.015625)"/>
       <path id="TimesNewRomanPS-BoldMT-73" d="M 2063 3003 
L 2109 2006 
L 2003 2006 
Q 1813 2450 1608 2612 
Q 1403 2775 1200 2775 
Q 1072 2775 981 2689 
Q 891 2603 891 2491 
Q 891 2406 953 2328 
Q 1053 2200 1512 1889 
Q 1972 1578 2117 1361 
Q 2263 1144 2263 875 
Q 2263 631 2141 397 
Q 2019 163 1797 37 
Q 1575 -88 1306 -88 
Q 1097 -88 747 44 
Q 653 78 619 78 
Q 516 78 447 -78 
L 344 -78 
L 294 972 
L 400 972 
Q 541 559 786 353 
Q 1031 147 1250 147 
Q 1400 147 1495 239 
Q 1591 331 1591 463 
Q 1591 613 1497 722 
Q 1403 831 1078 1053 
Q 600 1384 459 1559 
Q 253 1816 253 2125 
Q 253 2463 486 2736 
Q 719 3009 1159 3009 
Q 1397 3009 1619 2894 
Q 1703 2847 1756 2847 
Q 1813 2847 1847 2870 
Q 1881 2894 1956 3003 
L 2063 3003 
z
" transform="scale(0.015625)"/>
       <path id="TimesNewRomanPS-BoldMT-28" d="M 2056 4334 
L 2056 4191 
Q 1731 3978 1578 3775 
Q 1366 3494 1247 3053 
Q 1097 2506 1097 1525 
Q 1097 600 1233 87 
Q 1369 -425 1603 -741 
Q 1766 -959 2056 -1125 
L 2056 -1281 
Q 1303 -1028 779 -248 
Q 256 531 256 1544 
Q 256 2544 778 3314 
Q 1300 4084 2056 4334 
z
" transform="scale(0.015625)"/>
       <path id="TimesNewRomanPS-BoldMT-4b" d="M 2666 2616 
L 4156 750 
Q 4472 356 4700 216 
Q 4866 116 5050 116 
L 5050 0 
L 2844 0 
L 2844 116 
Q 3053 134 3114 181 
Q 3175 228 3175 297 
Q 3175 428 2888 791 
L 1916 2013 
L 1759 1881 
L 1759 725 
Q 1759 394 1796 312 
Q 1834 231 1940 173 
Q 2047 116 2281 116 
L 2281 0 
L 144 0 
L 144 116 
L 284 116 
Q 469 116 581 181 
Q 663 225 706 331 
Q 741 406 741 725 
L 741 3513 
Q 741 3838 706 3919 
Q 672 4000 567 4061 
Q 463 4122 284 4122 
L 144 4122 
L 144 4238 
L 2253 4238 
L 2253 4122 
Q 2038 4122 1925 4059 
Q 1844 4016 1797 3913 
Q 1759 3834 1759 3513 
L 1759 2194 
L 3331 3466 
Q 3659 3731 3659 3891 
Q 3659 4009 3525 4078 
Q 3456 4113 3184 4122 
L 3184 4238 
L 4838 4238 
L 4838 4122 
Q 4616 4106 4489 4042 
Q 4363 3978 3906 3609 
L 2666 2616 
z
" transform="scale(0.015625)"/>
       <path id="TimesNewRomanPS-BoldMT-29" d="M 78 -1281 
L 78 -1138 
Q 403 -922 556 -719 
Q 766 -438 888 0 
Q 1038 550 1038 1531 
Q 1038 2456 902 2967 
Q 766 3478 531 3794 
Q 369 4013 78 4178 
L 78 4334 
Q 831 4081 1354 3301 
Q 1878 2522 1878 1509 
Q 1878 513 1354 -257 
Q 831 -1028 78 -1281 
z
" transform="scale(0.015625)"/>
      </defs>
      <use xlink:href="#TimesNewRomanPS-BoldMT-4e"/>
      <use xlink:href="#TimesNewRomanPS-BoldMT-75" x="72.216797"/>
      <use xlink:href="#TimesNewRomanPS-BoldMT-6d" x="127.832031"/>
      <use xlink:href="#TimesNewRomanPS-BoldMT-62" x="211.132812"/>
      <use xlink:href="#TimesNewRomanPS-BoldMT-65" x="266.748047"/>
      <use xlink:href="#TimesNewRomanPS-BoldMT-72" x="311.132812"/>
      <use xlink:href="#TimesNewRomanPS-BoldMT-20" x="353.767578"/>
      <use xlink:href="#TimesNewRomanPS-BoldMT-6f" x="378.767578"/>
      <use xlink:href="#TimesNewRomanPS-BoldMT-66" x="428.767578"/>
      <use xlink:href="#TimesNewRomanPS-BoldMT-20" x="462.068359"/>
      <use xlink:href="#TimesNewRomanPS-BoldMT-41" x="481.568359"/>
      <use xlink:href="#TimesNewRomanPS-BoldMT-63" x="553.785156"/>
      <use xlink:href="#TimesNewRomanPS-BoldMT-74" x="598.169922"/>
      <use xlink:href="#TimesNewRomanPS-BoldMT-69" x="631.470703"/>
      <use xlink:href="#TimesNewRomanPS-BoldMT-6f" x="659.253906"/>
      <use xlink:href="#TimesNewRomanPS-BoldMT-6e" x="709.253906"/>
      <use xlink:href="#TimesNewRomanPS-BoldMT-20" x="764.869141"/>
      <use xlink:href="#TimesNewRomanPS-BoldMT-53" x="789.869141"/>
      <use xlink:href="#TimesNewRomanPS-BoldMT-61" x="845.484375"/>
      <use xlink:href="#TimesNewRomanPS-BoldMT-6d" x="895.484375"/>
      <use xlink:href="#TimesNewRomanPS-BoldMT-70" x="978.785156"/>
      <use xlink:href="#TimesNewRomanPS-BoldMT-6c" x="1034.400391"/>
      <use xlink:href="#TimesNewRomanPS-BoldMT-65" x="1062.183594"/>
      <use xlink:href="#TimesNewRomanPS-BoldMT-73" x="1106.568359"/>
      <use xlink:href="#TimesNewRomanPS-BoldMT-20" x="1145.484375"/>
      <use xlink:href="#TimesNewRomanPS-BoldMT-28" x="1170.484375"/>
      <use xlink:href="#TimesNewRomanPS-BoldMT-4b" x="1203.785156"/>
      <use xlink:href="#TimesNewRomanPS-BoldMT-29" x="1281.568359"/>
     </g>
    </g>
   </g>
   <g id="matplotlib.axis_2">
    <g id="ytick_1">
     <g id="line2d_7">
      <path d="M 75.721875 347.542384 
L 740.061875 347.542384 
" clip-path="url(#p1917f1bc5b)" style="fill: none; stroke-dasharray: 2.96,1.28; stroke-dashoffset: 0; stroke: #808080; stroke-opacity: 0.5; stroke-width: 0.8"/>
     </g>
     <g id="line2d_8">
      <defs>
       <path id="md13a0b6d29" d="M 0 0 
L -3.5 0 
" style="stroke: #000000; stroke-width: 0.8"/>
      </defs>
      <g>
       <use xlink:href="#md13a0b6d29" x="75.721875" y="347.542384" style="stroke: #000000; stroke-width: 0.8"/>
      </g>
     </g>
     <g id="text_8">
      <!-- 0 -->
      <g style="fill: #4472c4" transform="translate(58.721875 354.164259) scale(0.2 -0.2)">
       <defs>
        <path id="TimesNewRomanPS-BoldMT-30" d="M 2966 2119 
Q 2966 1484 2788 934 
Q 2681 597 2501 381 
Q 2322 166 2094 39 
Q 1866 -88 1597 -88 
Q 1291 -88 1044 68 
Q 797 225 606 516 
Q 469 728 366 1081 
Q 231 1559 231 2069 
Q 231 2759 425 3338 
Q 584 3816 909 4070 
Q 1234 4325 1597 4325 
Q 1966 4325 2286 4073 
Q 2606 3822 2756 3397 
Q 2966 2813 2966 2119 
z
M 2003 2125 
Q 2003 3238 1991 3422 
Q 1959 3856 1841 4009 
Q 1763 4109 1588 4109 
Q 1453 4109 1375 4034 
Q 1259 3925 1218 3648 
Q 1178 3372 1178 1719 
Q 1178 819 1241 513 
Q 1288 291 1375 216 
Q 1463 141 1606 141 
Q 1763 141 1841 241 
Q 1972 416 1991 781 
L 2003 2125 
z
" transform="scale(0.015625)"/>
       </defs>
       <use xlink:href="#TimesNewRomanPS-BoldMT-30"/>
      </g>
     </g>
    </g>
    <g id="ytick_2">
     <g id="line2d_9">
      <path d="M 75.721875 283.60275 
L 740.061875 283.60275 
" clip-path="url(#p1917f1bc5b)" style="fill: none; stroke-dasharray: 2.96,1.28; stroke-dashoffset: 0; stroke: #808080; stroke-opacity: 0.5; stroke-width: 0.8"/>
     </g>
     <g id="line2d_10">
      <g>
       <use xlink:href="#md13a0b6d29" x="75.721875" y="283.60275" style="stroke: #000000; stroke-width: 0.8"/>
      </g>
     </g>
     <g id="text_9">
      <!-- 2000 -->
      <g style="fill: #4472c4" transform="translate(28.721875 290.224625) scale(0.2 -0.2)">
       <use xlink:href="#TimesNewRomanPS-BoldMT-32"/>
       <use xlink:href="#TimesNewRomanPS-BoldMT-30" x="50"/>
       <use xlink:href="#TimesNewRomanPS-BoldMT-30" x="100"/>
       <use xlink:href="#TimesNewRomanPS-BoldMT-30" x="150"/>
      </g>
     </g>
    </g>
    <g id="ytick_3">
     <g id="line2d_11">
      <path d="M 75.721875 219.663117 
L 740.061875 219.663117 
" clip-path="url(#p1917f1bc5b)" style="fill: none; stroke-dasharray: 2.96,1.28; stroke-dashoffset: 0; stroke: #808080; stroke-opacity: 0.5; stroke-width: 0.8"/>
     </g>
     <g id="line2d_12">
      <g>
       <use xlink:href="#md13a0b6d29" x="75.721875" y="219.663117" style="stroke: #000000; stroke-width: 0.8"/>
      </g>
     </g>
     <g id="text_10">
      <!-- 4000 -->
      <g style="fill: #4472c4" transform="translate(28.721875 226.284992) scale(0.2 -0.2)">
       <use xlink:href="#TimesNewRomanPS-BoldMT-34"/>
       <use xlink:href="#TimesNewRomanPS-BoldMT-30" x="50"/>
       <use xlink:href="#TimesNewRomanPS-BoldMT-30" x="100"/>
       <use xlink:href="#TimesNewRomanPS-BoldMT-30" x="150"/>
      </g>
     </g>
    </g>
    <g id="ytick_4">
     <g id="line2d_13">
      <path d="M 75.721875 155.723483 
L 740.061875 155.723483 
" clip-path="url(#p1917f1bc5b)" style="fill: none; stroke-dasharray: 2.96,1.28; stroke-dashoffset: 0; stroke: #808080; stroke-opacity: 0.5; stroke-width: 0.8"/>
     </g>
     <g id="line2d_14">
      <g>
       <use xlink:href="#md13a0b6d29" x="75.721875" y="155.723483" style="stroke: #000000; stroke-width: 0.8"/>
      </g>
     </g>
     <g id="text_11">
      <!-- 6000 -->
      <g style="fill: #4472c4" transform="translate(28.721875 162.345358) scale(0.2 -0.2)">
       <use xlink:href="#TimesNewRomanPS-BoldMT-36"/>
       <use xlink:href="#TimesNewRomanPS-BoldMT-30" x="50"/>
       <use xlink:href="#TimesNewRomanPS-BoldMT-30" x="100"/>
       <use xlink:href="#TimesNewRomanPS-BoldMT-30" x="150"/>
      </g>
     </g>
    </g>
    <g id="ytick_5">
     <g id="line2d_15">
      <path d="M 75.721875 91.783849 
L 740.061875 91.783849 
" clip-path="url(#p1917f1bc5b)" style="fill: none; stroke-dasharray: 2.96,1.28; stroke-dashoffset: 0; stroke: #808080; stroke-opacity: 0.5; stroke-width: 0.8"/>
     </g>
     <g id="line2d_16">
      <g>
       <use xlink:href="#md13a0b6d29" x="75.721875" y="91.783849" style="stroke: #000000; stroke-width: 0.8"/>
      </g>
     </g>
     <g id="text_12">
      <!-- 8000 -->
      <g style="fill: #4472c4" transform="translate(28.721875 98.405724) scale(0.2 -0.2)">
       <use xlink:href="#TimesNewRomanPS-BoldMT-38"/>
       <use xlink:href="#TimesNewRomanPS-BoldMT-30" x="50"/>
       <use xlink:href="#TimesNewRomanPS-BoldMT-30" x="100"/>
       <use xlink:href="#TimesNewRomanPS-BoldMT-30" x="150"/>
      </g>
     </g>
    </g>
    <g id="text_13">
     <!-- Ant Return -->
     <g style="fill: #4472c4" transform="translate(20.44375 240.303596) rotate(-90) scale(0.2 -0.2)">
      <defs>
       <path id="TimesNewRomanPS-BoldMT-52" d="M 1700 1931 
L 1700 744 
Q 1700 400 1742 311 
Q 1784 222 1890 169 
Q 1997 116 2288 116 
L 2288 0 
L 119 0 
L 119 116 
Q 413 116 517 170 
Q 622 225 664 312 
Q 706 400 706 744 
L 706 3494 
Q 706 3838 664 3927 
Q 622 4016 515 4069 
Q 409 4122 119 4122 
L 119 4238 
L 2088 4238 
Q 2856 4238 3212 4131 
Q 3569 4025 3794 3739 
Q 4019 3453 4019 3069 
Q 4019 2600 3681 2294 
Q 3466 2100 3078 2003 
L 4097 569 
Q 4297 291 4381 222 
Q 4509 125 4678 116 
L 4678 0 
L 3344 0 
L 1978 1931 
L 1700 1931 
z
M 1700 4009 
L 1700 2153 
L 1878 2153 
Q 2313 2153 2528 2233 
Q 2744 2313 2867 2520 
Q 2991 2728 2991 3063 
Q 2991 3547 2764 3778 
Q 2538 4009 2034 4009 
L 1700 4009 
z
" transform="scale(0.015625)"/>
      </defs>
      <use xlink:href="#TimesNewRomanPS-BoldMT-41"/>
      <use xlink:href="#TimesNewRomanPS-BoldMT-6e" x="72.216797"/>
      <use xlink:href="#TimesNewRomanPS-BoldMT-74" x="127.832031"/>
      <use xlink:href="#TimesNewRomanPS-BoldMT-20" x="161.132812"/>
      <use xlink:href="#TimesNewRomanPS-BoldMT-52" x="186.132812"/>
      <use xlink:href="#TimesNewRomanPS-BoldMT-65" x="258.349609"/>
      <use xlink:href="#TimesNewRomanPS-BoldMT-74" x="302.734375"/>
      <use xlink:href="#TimesNewRomanPS-BoldMT-75" x="336.035156"/>
      <use xlink:href="#TimesNewRomanPS-BoldMT-72" x="391.650391"/>
      <use xlink:href="#TimesNewRomanPS-BoldMT-6e" x="436.035156"/>
     </g>
    </g>
   </g>
   <g id="patch_15">
    <path d="M 75.721875 347.542384 
L 75.721875 34.736684 
" style="fill: none; stroke: #000000; stroke-width: 1.2; stroke-linejoin: miter; stroke-linecap: square"/>
   </g>
   <g id="patch_16">
    <path d="M 740.061875 347.542384 
L 740.061875 34.736684 
" style="fill: none; stroke: #000000; stroke-width: 1.2; stroke-linejoin: miter; stroke-linecap: square"/>
   </g>
   <g id="patch_17">
    <path d="M 75.721875 347.542384 
L 740.061875 347.542384 
" style="fill: none; stroke: #000000; stroke-width: 1.2; stroke-linejoin: miter; stroke-linecap: square"/>
   </g>
   <g id="text_14">
    <!-- 7753 -->
    <g transform="translate(99.984905 93.751182) scale(0.16 -0.16)">
     <defs>
      <path id="TimesNewRomanPS-BoldMT-37" d="M 1134 -88 
L 2288 3409 
L 1409 3409 
Q 894 3409 634 3275 
Q 453 3181 334 2922 
L 216 2922 
L 522 4238 
L 3047 4238 
L 1625 -88 
L 1134 -88 
z
" transform="scale(0.015625)"/>
      <path id="TimesNewRomanPS-BoldMT-35" d="M 975 4238 
L 2959 4238 
L 2644 3431 
L 975 3431 
L 816 3009 
Q 1894 2969 2475 2472 
Q 2953 2063 2953 1453 
Q 2953 1063 2731 689 
Q 2509 316 2106 114 
Q 1703 -88 1222 -88 
Q 703 -88 425 106 
Q 231 244 231 419 
Q 231 553 332 656 
Q 434 759 569 759 
Q 691 759 816 709 
Q 941 659 1244 447 
Q 1434 316 1572 266 
Q 1669 228 1791 228 
Q 2047 228 2226 415 
Q 2406 603 2406 866 
Q 2406 1416 1856 1759 
Q 1306 2103 469 2103 
Q 384 2103 216 2100 
L 975 4238 
z
" transform="scale(0.015625)"/>
     </defs>
     <use xlink:href="#TimesNewRomanPS-BoldMT-37"/>
     <use xlink:href="#TimesNewRomanPS-BoldMT-37" x="50"/>
     <use xlink:href="#TimesNewRomanPS-BoldMT-35" x="100"/>
     <use xlink:href="#TimesNewRomanPS-BoldMT-33" x="150"/>
    </g>
   </g>
   <g id="text_15">
    <!-- 7115 -->
    <g transform="translate(206.380248 114.357382) scale(0.16 -0.16)">
     <use xlink:href="#TimesNewRomanPS-BoldMT-37"/>
     <use xlink:href="#TimesNewRomanPS-BoldMT-31" x="50"/>
     <use xlink:href="#TimesNewRomanPS-BoldMT-31" x="94.5"/>
     <use xlink:href="#TimesNewRomanPS-BoldMT-35" x="144.5"/>
    </g>
   </g>
   <g id="text_16">
    <!-- 8470 -->
    <g transform="translate(311.895591 70.617359) scale(0.16 -0.16)">
     <use xlink:href="#TimesNewRomanPS-BoldMT-38"/>
     <use xlink:href="#TimesNewRomanPS-BoldMT-34" x="50"/>
     <use xlink:href="#TimesNewRomanPS-BoldMT-37" x="100"/>
     <use xlink:href="#TimesNewRomanPS-BoldMT-30" x="150"/>
    </g>
   </g>
   <g id="text_17">
    <!-- 8508 -->
    <g transform="translate(417.850934 69.394878) scale(0.16 -0.16)">
     <use xlink:href="#TimesNewRomanPS-BoldMT-38"/>
     <use xlink:href="#TimesNewRomanPS-BoldMT-35" x="50"/>
     <use xlink:href="#TimesNewRomanPS-BoldMT-30" x="100"/>
     <use xlink:href="#TimesNewRomanPS-BoldMT-38" x="150"/>
    </g>
   </g>
   <g id="text_18">
    <!-- 8016 -->
    <g transform="translate(523.806277 85.268404) scale(0.16 -0.16)">
     <use xlink:href="#TimesNewRomanPS-BoldMT-38"/>
     <use xlink:href="#TimesNewRomanPS-BoldMT-30" x="50"/>
     <use xlink:href="#TimesNewRomanPS-BoldMT-31" x="100"/>
     <use xlink:href="#TimesNewRomanPS-BoldMT-36" x="150"/>
    </g>
   </g>
   <g id="text_19">
    <!-- 5927 -->
    <g transform="translate(629.76162 152.729273) scale(0.16 -0.16)">
     <defs>
      <path id="TimesNewRomanPS-BoldMT-39" d="M 197 -88 
L 197 0 
Q 716 119 1077 350 
Q 1438 581 1648 922 
Q 1859 1263 1944 1706 
Q 1750 1606 1614 1567 
Q 1478 1528 1328 1528 
Q 847 1528 526 1875 
Q 206 2222 206 2825 
Q 206 3244 379 3592 
Q 553 3941 875 4133 
Q 1197 4325 1544 4325 
Q 1916 4325 2247 4112 
Q 2578 3900 2775 3497 
Q 2972 3094 2972 2578 
Q 2972 1909 2651 1296 
Q 2331 684 1697 314 
Q 1063 -56 197 -88 
z
M 1991 1969 
Q 2022 2319 2022 2584 
Q 2022 3153 1891 3644 
Q 1816 3916 1669 4044 
Q 1591 4113 1466 4113 
Q 1309 4113 1222 3978 
Q 1100 3794 1100 3275 
Q 1100 2409 1306 2081 
Q 1441 1869 1669 1869 
Q 1791 1869 1991 1969 
z
" transform="scale(0.015625)"/>
     </defs>
     <use xlink:href="#TimesNewRomanPS-BoldMT-35"/>
     <use xlink:href="#TimesNewRomanPS-BoldMT-39" x="50"/>
     <use xlink:href="#TimesNewRomanPS-BoldMT-32" x="100"/>
     <use xlink:href="#TimesNewRomanPS-BoldMT-37" x="150"/>
    </g>
   </g>
   <g id="legend_1">
    <g id="patch_18">
     <path d="M 234.07625 29.2 
L 274.07625 29.2 
L 274.07625 15.2 
L 234.07625 15.2 
z
" style="fill: url(#h9562134ddb); stroke: #ffffff; stroke-linejoin: miter"/>
    </g>
    <g id="text_20">
     <!-- Ant -->
     <g transform="translate(290.07625 29.2) scale(0.2 -0.2)">
      <use xlink:href="#TimesNewRomanPS-BoldMT-41"/>
      <use xlink:href="#TimesNewRomanPS-BoldMT-6e" x="72.216797"/>
      <use xlink:href="#TimesNewRomanPS-BoldMT-74" x="127.832031"/>
     </g>
    </g>
    <g id="patch_19">
     <path d="M 362.30125 29.2 
L 402.30125 29.2 
L 402.30125 15.2 
L 362.30125 15.2 
z
" style="fill: #e0e0e0"/>
    </g>
    <g id="text_21">
     <!-- HumanoidStandup -->
     <g transform="translate(418.30125 29.2) scale(0.2 -0.2)">
      <defs>
       <path id="TimesNewRomanPS-BoldMT-48" d="M 1750 2038 
L 1750 725 
Q 1750 400 1786 319 
Q 1822 238 1926 177 
Q 2031 116 2209 116 
L 2350 116 
L 2350 0 
L 134 0 
L 134 116 
L 275 116 
Q 459 116 572 181 
Q 653 225 697 331 
Q 731 406 731 725 
L 731 3513 
Q 731 3838 697 3919 
Q 663 4000 558 4061 
Q 453 4122 275 4122 
L 134 4122 
L 134 4238 
L 2350 4238 
L 2350 4122 
L 2209 4122 
Q 2025 4122 1913 4056 
Q 1831 4013 1784 3906 
Q 1750 3831 1750 3513 
L 1750 2313 
L 3247 2313 
L 3247 3513 
Q 3247 3838 3212 3919 
Q 3178 4000 3072 4061 
Q 2966 4122 2788 4122 
L 2650 4122 
L 2650 4238 
L 4863 4238 
L 4863 4122 
L 4725 4122 
Q 4538 4122 4428 4056 
Q 4347 4013 4300 3906 
Q 4266 3831 4266 3513 
L 4266 725 
Q 4266 400 4300 319 
Q 4334 238 4440 177 
Q 4547 116 4725 116 
L 4863 116 
L 4863 0 
L 2650 0 
L 2650 116 
L 2788 116 
Q 2975 116 3084 181 
Q 3166 225 3213 331 
Q 3247 406 3247 725 
L 3247 2038 
L 1750 2038 
z
" transform="scale(0.015625)"/>
       <path id="TimesNewRomanPS-BoldMT-64" d="M 3056 4238 
L 3056 875 
Q 3056 534 3075 472 
Q 3100 369 3170 319 
Q 3241 269 3416 256 
L 3416 153 
L 2181 -88 
L 2181 375 
Q 1959 106 1786 9 
Q 1613 -88 1394 -88 
Q 834 -88 509 413 
Q 247 819 247 1409 
Q 247 1881 409 2254 
Q 572 2628 855 2818 
Q 1138 3009 1463 3009 
Q 1672 3009 1834 2928 
Q 1997 2847 2181 2644 
L 2181 3525 
Q 2181 3859 2153 3928 
Q 2116 4019 2041 4062 
Q 1966 4106 1759 4106 
L 1759 4238 
L 3056 4238 
z
M 2181 2256 
Q 1950 2700 1616 2700 
Q 1500 2700 1425 2638 
Q 1309 2541 1236 2297 
Q 1163 2053 1163 1550 
Q 1163 997 1244 731 
Q 1325 466 1466 347 
Q 1538 288 1663 288 
Q 1938 288 2181 719 
L 2181 2256 
z
" transform="scale(0.015625)"/>
      </defs>
      <use xlink:href="#TimesNewRomanPS-BoldMT-48"/>
      <use xlink:href="#TimesNewRomanPS-BoldMT-75" x="77.783203"/>
      <use xlink:href="#TimesNewRomanPS-BoldMT-6d" x="133.398438"/>
      <use xlink:href="#TimesNewRomanPS-BoldMT-61" x="216.699219"/>
      <use xlink:href="#TimesNewRomanPS-BoldMT-6e" x="266.699219"/>
      <use xlink:href="#TimesNewRomanPS-BoldMT-6f" x="322.314453"/>
      <use xlink:href="#TimesNewRomanPS-BoldMT-69" x="372.314453"/>
      <use xlink:href="#TimesNewRomanPS-BoldMT-64" x="400.097656"/>
      <use xlink:href="#TimesNewRomanPS-BoldMT-53" x="455.712891"/>
      <use xlink:href="#TimesNewRomanPS-BoldMT-74" x="511.328125"/>
      <use xlink:href="#TimesNewRomanPS-BoldMT-61" x="544.628906"/>
      <use xlink:href="#TimesNewRomanPS-BoldMT-6e" x="594.628906"/>
      <use xlink:href="#TimesNewRomanPS-BoldMT-64" x="650.244141"/>
      <use xlink:href="#TimesNewRomanPS-BoldMT-75" x="705.859375"/>
      <use xlink:href="#TimesNewRomanPS-BoldMT-70" x="761.474609"/>
     </g>
    </g>
   </g>
  </g>
  <g id="axes_2">
   <g id="patch_20">
    <path d="M 143.003518 347.542384 
L 180.087888 347.542384 
L 180.087888 93.353342 
L 143.003518 93.353342 
z
" clip-path="url(#p1917f1bc5b)" style="fill: #e0e0e0"/>
   </g>
   <g id="patch_21">
    <path d="M 248.958861 347.542384 
L 286.043231 347.542384 
L 286.043231 131.868644 
L 248.958861 131.868644 
z
" clip-path="url(#p1917f1bc5b)" style="fill: #e0e0e0"/>
   </g>
   <g id="patch_22">
    <path d="M 354.914204 347.542384 
L 391.998574 347.542384 
L 391.998574 131.567005 
L 354.914204 131.567005 
z
" clip-path="url(#p1917f1bc5b)" style="fill: #e0e0e0"/>
   </g>
   <g id="patch_23">
    <path d="M 460.869546 347.542384 
L 497.953916 347.542384 
L 497.953916 75.537427 
L 460.869546 75.537427 
z
" clip-path="url(#p1917f1bc5b)" style="fill: #e0e0e0"/>
   </g>
   <g id="patch_24">
    <path d="M 566.824889 347.542384 
L 603.909259 347.542384 
L 603.909259 137.427992 
L 566.824889 137.427992 
z
" clip-path="url(#p1917f1bc5b)" style="fill: #e0e0e0"/>
   </g>
   <g id="patch_25">
    <path d="M 672.780232 347.542384 
L 709.864602 347.542384 
L 709.864602 152.041067 
L 672.780232 152.041067 
z
" clip-path="url(#p1917f1bc5b)" style="fill: #e0e0e0"/>
   </g>
   <g id="matplotlib.axis_3">
    <g id="ytick_6">
     <g id="line2d_17">
      <defs>
       <path id="m0c226613cd" d="M 0 0 
L 3.5 0 
" style="stroke: #000000; stroke-width: 0.8"/>
      </defs>
      <g>
       <use xlink:href="#m0c226613cd" x="740.061875" y="347.542384" style="stroke: #000000; stroke-width: 0.8"/>
      </g>
     </g>
     <g id="text_22">
      <!-- 0 -->
      <g style="fill: #888888" transform="translate(747.061875 354.164259) scale(0.2 -0.2)">
       <use xlink:href="#TimesNewRomanPS-BoldMT-30"/>
      </g>
     </g>
    </g>
    <g id="ytick_7">
     <g id="line2d_18">
      <g>
       <use xlink:href="#m0c226613cd" x="740.061875" y="276.459616" style="stroke: #000000; stroke-width: 0.8"/>
      </g>
     </g>
     <g id="text_23">
      <!-- 100000 -->
      <g style="fill: #888888" transform="translate(747.061875 283.081491) scale(0.2 -0.2)">
       <use xlink:href="#TimesNewRomanPS-BoldMT-31"/>
       <use xlink:href="#TimesNewRomanPS-BoldMT-30" x="50"/>
       <use xlink:href="#TimesNewRomanPS-BoldMT-30" x="100"/>
       <use xlink:href="#TimesNewRomanPS-BoldMT-30" x="150"/>
       <use xlink:href="#TimesNewRomanPS-BoldMT-30" x="200"/>
       <use xlink:href="#TimesNewRomanPS-BoldMT-30" x="250"/>
      </g>
     </g>
    </g>
    <g id="ytick_8">
     <g id="line2d_19">
      <g>
       <use xlink:href="#m0c226613cd" x="740.061875" y="205.376849" style="stroke: #000000; stroke-width: 0.8"/>
      </g>
     </g>
     <g id="text_24">
      <!-- 200000 -->
      <g style="fill: #888888" transform="translate(747.061875 211.998724) scale(0.2 -0.2)">
       <use xlink:href="#TimesNewRomanPS-BoldMT-32"/>
       <use xlink:href="#TimesNewRomanPS-BoldMT-30" x="50"/>
       <use xlink:href="#TimesNewRomanPS-BoldMT-30" x="100"/>
       <use xlink:href="#TimesNewRomanPS-BoldMT-30" x="150"/>
       <use xlink:href="#TimesNewRomanPS-BoldMT-30" x="200"/>
       <use xlink:href="#TimesNewRomanPS-BoldMT-30" x="250"/>
      </g>
     </g>
    </g>
    <g id="ytick_9">
     <g id="line2d_20">
      <g>
       <use xlink:href="#m0c226613cd" x="740.061875" y="134.294081" style="stroke: #000000; stroke-width: 0.8"/>
      </g>
     </g>
     <g id="text_25">
      <!-- 300000 -->
      <g style="fill: #888888" transform="translate(747.061875 140.915956) scale(0.2 -0.2)">
       <use xlink:href="#TimesNewRomanPS-BoldMT-33"/>
       <use xlink:href="#TimesNewRomanPS-BoldMT-30" x="50"/>
       <use xlink:href="#TimesNewRomanPS-BoldMT-30" x="100"/>
       <use xlink:href="#TimesNewRomanPS-BoldMT-30" x="150"/>
       <use xlink:href="#TimesNewRomanPS-BoldMT-30" x="200"/>
       <use xlink:href="#TimesNewRomanPS-BoldMT-30" x="250"/>
      </g>
     </g>
    </g>
    <g id="ytick_10">
     <g id="line2d_21">
      <g>
       <use xlink:href="#m0c226613cd" x="740.061875" y="63.211313" style="stroke: #000000; stroke-width: 0.8"/>
      </g>
     </g>
     <g id="text_26">
      <!-- 400000 -->
      <g style="fill: #888888" transform="translate(747.061875 69.833188) scale(0.2 -0.2)">
       <use xlink:href="#TimesNewRomanPS-BoldMT-34"/>
       <use xlink:href="#TimesNewRomanPS-BoldMT-30" x="50"/>
       <use xlink:href="#TimesNewRomanPS-BoldMT-30" x="100"/>
       <use xlink:href="#TimesNewRomanPS-BoldMT-30" x="150"/>
       <use xlink:href="#TimesNewRomanPS-BoldMT-30" x="200"/>
       <use xlink:href="#TimesNewRomanPS-BoldMT-30" x="250"/>
      </g>
     </g>
    </g>
    <g id="text_27">
     <!-- HumanoidStandup Return -->
     <g style="fill: #888888" transform="translate(824.618125 305.894221) rotate(-90) scale(0.2 -0.2)">
      <use xlink:href="#TimesNewRomanPS-BoldMT-48"/>
      <use xlink:href="#TimesNewRomanPS-BoldMT-75" x="77.783203"/>
      <use xlink:href="#TimesNewRomanPS-BoldMT-6d" x="133.398438"/>
      <use xlink:href="#TimesNewRomanPS-BoldMT-61" x="216.699219"/>
      <use xlink:href="#TimesNewRomanPS-BoldMT-6e" x="266.699219"/>
      <use xlink:href="#TimesNewRomanPS-BoldMT-6f" x="322.314453"/>
      <use xlink:href="#TimesNewRomanPS-BoldMT-69" x="372.314453"/>
      <use xlink:href="#TimesNewRomanPS-BoldMT-64" x="400.097656"/>
      <use xlink:href="#TimesNewRomanPS-BoldMT-53" x="455.712891"/>
      <use xlink:href="#TimesNewRomanPS-BoldMT-74" x="511.328125"/>
      <use xlink:href="#TimesNewRomanPS-BoldMT-61" x="544.628906"/>
      <use xlink:href="#TimesNewRomanPS-BoldMT-6e" x="594.628906"/>
      <use xlink:href="#TimesNewRomanPS-BoldMT-64" x="650.244141"/>
      <use xlink:href="#TimesNewRomanPS-BoldMT-75" x="705.859375"/>
      <use xlink:href="#TimesNewRomanPS-BoldMT-70" x="761.474609"/>
      <use xlink:href="#TimesNewRomanPS-BoldMT-20" x="817.089844"/>
      <use xlink:href="#TimesNewRomanPS-BoldMT-52" x="842.089844"/>
      <use xlink:href="#TimesNewRomanPS-BoldMT-65" x="914.306641"/>
      <use xlink:href="#TimesNewRomanPS-BoldMT-74" x="958.691406"/>
      <use xlink:href="#TimesNewRomanPS-BoldMT-75" x="991.992188"/>
      <use xlink:href="#TimesNewRomanPS-BoldMT-72" x="1047.607422"/>
      <use xlink:href="#TimesNewRomanPS-BoldMT-6e" x="1091.992188"/>
     </g>
    </g>
   </g>
   <g id="patch_26">
    <path d="M 75.721875 347.542384 
L 75.721875 34.736684 
" style="fill: none; stroke: #000000; stroke-width: 1.2; stroke-linejoin: miter; stroke-linecap: square"/>
   </g>
   <g id="patch_27">
    <path d="M 740.061875 347.542384 
L 740.061875 34.736684 
" style="fill: none; stroke: #000000; stroke-width: 1.2; stroke-linejoin: miter; stroke-linecap: square"/>
   </g>
   <g id="patch_28">
    <path d="M 75.721875 347.542384 
L 740.061875 347.542384 
" style="fill: none; stroke: #000000; stroke-width: 1.2; stroke-linejoin: miter; stroke-linecap: square"/>
   </g>
   <g id="text_28">
    <!-- 357595 -->
    <g transform="translate(146.02213 87.388952) scale(0.16 -0.16)">
     <use xlink:href="#TimesNewRomanPS-BoldMT-33"/>
     <use xlink:href="#TimesNewRomanPS-BoldMT-35" x="50"/>
     <use xlink:href="#TimesNewRomanPS-BoldMT-37" x="100"/>
     <use xlink:href="#TimesNewRomanPS-BoldMT-35" x="150"/>
     <use xlink:href="#TimesNewRomanPS-BoldMT-39" x="200"/>
     <use xlink:href="#TimesNewRomanPS-BoldMT-35" x="250"/>
    </g>
   </g>
   <g id="text_29">
    <!-- 303412 -->
    <g transform="translate(251.977473 126.289407) scale(0.16 -0.16)">
     <use xlink:href="#TimesNewRomanPS-BoldMT-33"/>
     <use xlink:href="#TimesNewRomanPS-BoldMT-30" x="50"/>
     <use xlink:href="#TimesNewRomanPS-BoldMT-33" x="100"/>
     <use xlink:href="#TimesNewRomanPS-BoldMT-34" x="150"/>
     <use xlink:href="#TimesNewRomanPS-BoldMT-31" x="200"/>
     <use xlink:href="#TimesNewRomanPS-BoldMT-32" x="250"/>
    </g>
   </g>
   <g id="text_30">
    <!-- 303836 -->
    <g transform="translate(357.932816 125.984751) scale(0.16 -0.16)">
     <use xlink:href="#TimesNewRomanPS-BoldMT-33"/>
     <use xlink:href="#TimesNewRomanPS-BoldMT-30" x="50"/>
     <use xlink:href="#TimesNewRomanPS-BoldMT-33" x="100"/>
     <use xlink:href="#TimesNewRomanPS-BoldMT-38" x="150"/>
     <use xlink:href="#TimesNewRomanPS-BoldMT-33" x="200"/>
     <use xlink:href="#TimesNewRomanPS-BoldMT-36" x="250"/>
    </g>
   </g>
   <g id="text_31">
    <!-- 382659 -->
    <g transform="translate(463.888159 69.394878) scale(0.16 -0.16)">
     <use xlink:href="#TimesNewRomanPS-BoldMT-33"/>
     <use xlink:href="#TimesNewRomanPS-BoldMT-38" x="50"/>
     <use xlink:href="#TimesNewRomanPS-BoldMT-32" x="100"/>
     <use xlink:href="#TimesNewRomanPS-BoldMT-36" x="150"/>
     <use xlink:href="#TimesNewRomanPS-BoldMT-35" x="200"/>
     <use xlink:href="#TimesNewRomanPS-BoldMT-39" x="250"/>
    </g>
   </g>
   <g id="text_32">
    <!-- 295591 -->
    <g transform="translate(569.843502 131.904348) scale(0.16 -0.16)">
     <use xlink:href="#TimesNewRomanPS-BoldMT-32"/>
     <use xlink:href="#TimesNewRomanPS-BoldMT-39" x="50"/>
     <use xlink:href="#TimesNewRomanPS-BoldMT-35" x="100"/>
     <use xlink:href="#TimesNewRomanPS-BoldMT-35" x="150"/>
     <use xlink:href="#TimesNewRomanPS-BoldMT-39" x="200"/>
     <use xlink:href="#TimesNewRomanPS-BoldMT-31" x="250"/>
    </g>
   </g>
   <g id="text_33">
    <!-- 275033 -->
    <g transform="translate(675.798845 146.663553) scale(0.16 -0.16)">
     <use xlink:href="#TimesNewRomanPS-BoldMT-32"/>
     <use xlink:href="#TimesNewRomanPS-BoldMT-37" x="50"/>
     <use xlink:href="#TimesNewRomanPS-BoldMT-35" x="100"/>
     <use xlink:href="#TimesNewRomanPS-BoldMT-30" x="150"/>
     <use xlink:href="#TimesNewRomanPS-BoldMT-33" x="200"/>
     <use xlink:href="#TimesNewRomanPS-BoldMT-33" x="250"/>
    </g>
   </g>
  </g>
 </g>
 <defs>
  <clipPath id="p1917f1bc5b">
   <rect x="75.721875" y="34.736684" width="664.34" height="312.8057"/>
  </clipPath>
 </defs>
 <defs>
  <pattern id="h9562134ddb" patternUnits="userSpaceOnUse" x="0" y="0" width="72" height="72">
   <rect x="0" y="0" width="73" height="73" fill="#4472c4"/>
   <path d="M -36 36 
L 36 -36 
M -32 40 
L 40 -32 
M -28 44 
L 44 -28 
M -24 48 
L 48 -24 
M -20 52 
L 52 -20 
M -16 56 
L 56 -16 
M -12 60 
L 60 -12 
M -8 64 
L 64 -8 
M -4 68 
L 68 -4 
M 0 72 
L 72 0 
M 4 76 
L 76 4 
M 8 80 
L 80 8 
M 12 84 
L 84 12 
M 16 88 
L 88 16 
M 20 92 
L 92 20 
M 24 96 
L 96 24 
M 28 100 
L 100 28 
M 32 104 
L 104 32 
M 36 108 
L 108 36 
" style="fill: #ffffff; stroke: #ffffff; stroke-width: 1.0; stroke-linecap: butt; stroke-linejoin: miter"/>
  </pattern>
 </defs>
</svg>
