<?xml version="1.0" encoding="utf-8" standalone="no"?>
<!DOCTYPE svg PUBLIC "-//W3C//DTD SVG 1.1//EN"
  "http://www.w3.org/Graphics/SVG/1.1/DTD/svg11.dtd">
<svg xmlns:xlink="http://www.w3.org/1999/xlink" width="554.4pt" height="554.4pt" viewBox="0 0 554.4 554.4" xmlns="http://www.w3.org/2000/svg" version="1.1">
 <metadata>
  <rdf:RDF xmlns:dc="http://purl.org/dc/elements/1.1/" xmlns:cc="http://creativecommons.org/ns#" xmlns:rdf="http://www.w3.org/1999/02/22-rdf-syntax-ns#">
   <cc:Work>
    <dc:type rdf:resource="http://purl.org/dc/dcmitype/StillImage"/>
    <dc:date>2026-01-23T10:27:31.380658</dc:date>
    <dc:format>image/svg+xml</dc:format>
    <dc:creator>
     <cc:Agent>
      <dc:title>Matplotlib v3.9.2, https://matplotlib.org/</dc:title>
     </cc:Agent>
    </dc:creator>
   </cc:Work>
  </rdf:RDF>
 </metadata>
 <defs>
  <style type="text/css">*{stroke-linejoin: round; stroke-linecap: butt}</style>
 </defs>
 <g id="figure_1">
  <g id="patch_1">
   <path d="M 0 554.4 
L 554.4 554.4 
L 554.4 0 
L 0 0 
L 0 554.4 
z
" style="fill: none; opacity: 0"/>
  </g>
  <g id="patch_2">
   <path d="M 0 554.4 
L 554.4 554.4 
L 554.4 0 
L 0 0 
L 0 554.4 
z
" style="fill: none; opacity: 0"/>
  </g>
  <g id="axes_1">
   <g id="Poly3DCollection_1">
    <path d="M 225.905658 260.129755 
L 236.231919 263.533058 
L 242.370708 257.614076 
L 232.06349 254.213256 
z
" clip-path="url(#p45e06919c3)" style="fill: #414487"/>
    <path d="M 236.231919 263.533058 
L 246.591886 266.893662 
L 252.711678 261.000193 
L 242.370708 257.614076 
z
" clip-path="url(#p45e06919c3)" style="fill: #414487"/>
    <path d="M 219.712582 266.074225 
L 230.057748 269.468078 
L 236.231919 263.533058 
L 225.905658 260.129755 
z
" clip-path="url(#p45e06919c3)" style="fill: #414487"/>
    <path d="M 246.591886 266.893662 
L 256.985695 270.145467 
L 263.086595 264.339907 
L 252.711678 261.000193 
z
" clip-path="url(#p45e06919c3)" style="fill: #414487"/>
    <path d="M 230.057748 269.468078 
L 240.436347 272.771256 
L 246.591886 266.893662 
L 236.231919 263.533058 
z
" clip-path="url(#p45e06919c3)" style="fill: #414487"/>
    <path d="M 256.985695 270.145467 
L 267.413926 273.172466 
L 273.495904 267.577577 
L 263.086595 264.339907 
z
" clip-path="url(#p45e06919c3)" style="fill: #414487"/>
    <path d="M 213.48391 272.045451 
L 223.847748 275.414838 
L 230.057748 269.468078 
L 219.712582 266.074225 
z
" clip-path="url(#p45e06919c3)" style="fill: #414487"/>
    <path d="M 240.436347 272.771256 
L 250.848305 275.858795 
L 256.985695 270.145467 
L 246.591886 266.893662 
z
" clip-path="url(#p45e06919c3)" style="fill: #414487"/>
    <path d="M 267.413926 273.172466 
L 277.878219 275.804366 
L 283.940593 270.631549 
L 273.495904 267.577577 
z
" clip-path="url(#p45e06919c3)" style="fill: #404588"/>
    <path d="M 223.847748 275.414838 
L 234.244386 278.620607 
L 240.436347 272.771256 
L 230.057748 269.468078 
z
" clip-path="url(#p45e06919c3)" style="fill: #414487"/>
    <path d="M 250.848305 275.858795 
L 261.294261 278.511357 
L 267.413926 273.172466 
L 256.985695 270.145467 
z
" clip-path="url(#p45e06919c3)" style="fill: #404588"/>
    <path d="M 207.219297 278.043364 
L 217.6015 281.372793 
L 223.847748 275.414838 
L 213.48391 272.045451 
z
" clip-path="url(#p45e06919c3)" style="fill: #414487"/>
    <path d="M 277.878219 275.804366 
L 288.381931 277.844489 
L 294.422489 273.407627 
L 283.940593 270.631549 
z
" clip-path="url(#p45e06919c3)" style="fill: #404588"/>
    <path d="M 234.244386 278.620607 
L 244.673267 281.448492 
L 250.848305 275.858795 
L 240.436347 272.771256 
z
" clip-path="url(#p45e06919c3)" style="fill: #414487"/>
    <path d="M 261.294261 278.511357 
L 271.776712 280.406731 
L 277.878219 275.804366 
L 267.413926 273.172466 
z
" clip-path="url(#p45e06919c3)" style="fill: #404588"/>
    <path d="M 217.6015 281.372793 
L 228.015396 284.440545 
L 234.244386 278.620607 
L 223.847748 275.414838 
z
" clip-path="url(#p45e06919c3)" style="fill: #414487"/>
    <path d="M 288.381931 277.844489 
L 298.930225 279.146469 
L 304.944249 275.835971 
L 294.422489 273.407627 
z
" clip-path="url(#p45e06919c3)" style="fill: #3f4788"/>
    <path d="M 244.673267 281.448492 
L 255.134829 283.522374 
L 261.294261 278.511357 
L 250.848305 275.858795 
z
" clip-path="url(#p45e06919c3)" style="fill: #404588"/>
    <path d="M 200.918403 284.06848 
L 211.31862 287.344153 
L 217.6015 281.372793 
L 207.219297 278.043364 
z
" clip-path="url(#p45e06919c3)" style="fill: #414487"/>
    <path d="M 271.776712 280.406731 
L 282.301337 281.17203 
L 288.381931 277.844489 
L 277.878219 275.804366 
z
" clip-path="url(#p45e06919c3)" style="fill: #3f4788"/>
    <path d="M 228.015396 284.440545 
L 238.45955 286.913306 
L 244.673267 281.448492 
L 234.244386 278.620607 
z
" clip-path="url(#p45e06919c3)" style="fill: #404588"/>
    <path d="M 298.930225 279.146469 
L 309.528796 279.730688 
L 315.508663 277.926958 
L 304.944249 275.835971 
z
" clip-path="url(#p45e06919c3)" style="fill: #3e4989"/>
    <path d="M 255.134829 283.522374 
L 265.632448 284.289117 
L 271.776712 280.406731 
L 261.294261 278.511357 
z
" clip-path="url(#p45e06919c3)" style="fill: #3f4788"/>
    <path d="M 211.31862 287.344153 
L 221.748915 290.240784 
L 228.015396 284.440545 
L 217.6015 281.372793 
z
" clip-path="url(#p45e06919c3)" style="fill: #414487"/>
    <path d="M 238.45955 286.913306 
L 248.933712 288.206376 
L 255.134829 283.522374 
L 244.673267 281.448492 
z
" clip-path="url(#p45e06919c3)" style="fill: #404688"/>
    <path d="M 282.301337 281.17203 
L 292.877393 280.527994 
L 298.930225 279.146469 
L 288.381931 277.844489 
z
" clip-path="url(#p45e06919c3)" style="fill: #3e4a89"/>
    <path d="M 194.580792 290.116885 
L 204.99854 293.320898 
L 211.31862 287.344153 
L 200.918403 284.06848 
z
" clip-path="url(#p45e06919c3)" style="fill: #414487"/>
    <path d="M 309.528796 279.730688 
L 320.180931 279.889385 
L 326.117186 279.821259 
L 315.508663 277.926958 
z
" clip-path="url(#p45e06919c3)" style="fill: #3e4c8a"/>
    <path d="M 221.748915 290.240784 
L 232.206535 292.287562 
L 238.45955 286.913306 
L 228.015396 284.440545 
z
" clip-path="url(#p45e06919c3)" style="fill: #404588"/>
    <path d="M 265.632448 284.289117 
L 276.17485 283.10662 
L 282.301337 281.17203 
L 271.776712 280.406731 
z
" clip-path="url(#p45e06919c3)" style="fill: #3e4a89"/>
    <path d="M 204.99854 293.320898 
L 215.444245 296.013744 
L 221.748915 290.240784 
L 211.31862 287.344153 
z
" clip-path="url(#p45e06919c3)" style="fill: #404588"/>
    <path d="M 248.933712 288.206376 
L 259.441813 287.458928 
L 265.632448 284.289117 
L 255.134829 283.522374 
z
" clip-path="url(#p45e06919c3)" style="fill: #3e4989"/>
    <path d="M 292.877393 280.527994 
L 303.51562 278.509257 
L 309.528796 279.730688 
L 298.930225 279.146469 
z
" clip-path="url(#p45e06919c3)" style="fill: #3c4f8a"/>
    <path d="M 320.180931 279.889385 
L 330.88396 280.200144 
L 336.76823 281.795668 
L 326.117186 279.821259 
z
" clip-path="url(#p45e06919c3)" style="fill: #3c4f8a"/>
    <path d="M 232.206535 292.287562 
L 242.689926 292.661939 
L 248.933712 288.206376 
L 238.45955 286.913306 
z
" clip-path="url(#p45e06919c3)" style="fill: #3f4788"/>
    <path d="M 188.205584 296.166434 
L 198.639689 299.248262 
L 204.99854 293.320898 
L 194.580792 290.116885 
z
" clip-path="url(#p45e06919c3)" style="fill: #414487"/>
    <path d="M 215.444245 296.013744 
L 225.913578 297.590074 
L 232.206535 292.287562 
L 221.748915 290.240784 
z
" clip-path="url(#p45e06919c3)" style="fill: #404588"/>
    <path d="M 276.17485 283.10662 
L 286.777169 279.489391 
L 292.877393 280.527994 
L 282.301337 281.17203 
z
" clip-path="url(#p45e06919c3)" style="fill: #3c508b"/>
    <path d="M 198.639689 299.248262 
L 209.098861 301.652223 
L 215.444245 296.013744 
L 204.99854 293.320898 
z
" clip-path="url(#p45e06919c3)" style="fill: #404588"/>
    <path d="M 259.441813 287.458928 
L 269.99592 283.66753 
L 276.17485 283.10662 
L 265.632448 284.289117 
z
" clip-path="url(#p45e06919c3)" style="fill: #3c4f8a"/>
    <path d="M 330.88396 280.200144 
L 341.62743 281.389823 
L 347.456408 284.197491 
L 336.76823 281.795668 
z
" clip-path="url(#p45e06919c3)" style="fill: #3b528b"/>
    <path d="M 303.51562 278.509257 
L 314.222961 275.665462 
L 320.180931 279.889385 
L 309.528796 279.730688 
z
" clip-path="url(#p45e06919c3)" style="fill: #3a548c"/>
    <path d="M 242.689926 292.661939 
L 253.202868 290.153112 
L 259.441813 287.458928 
L 248.933712 288.206376 
z
" clip-path="url(#p45e06919c3)" style="fill: #3d4d8a"/>
    <path d="M 181.79076 302.153915 
L 192.237812 304.964107 
L 198.639689 299.248262 
L 188.205584 296.166434 
z
" clip-path="url(#p45e06919c3)" style="fill: #414487"/>
    <path d="M 225.913578 297.590074 
L 236.403279 297.008471 
L 242.689926 292.661939 
L 232.206535 292.287562 
z
" clip-path="url(#p45e06919c3)" style="fill: #3e4989"/>
    <path d="M 209.098861 301.652223 
L 219.577451 302.664814 
L 225.913578 297.590074 
L 215.444245 296.013744 
z
" clip-path="url(#p45e06919c3)" style="fill: #404688"/>
    <path d="M 341.62743 281.389823 
L 352.395276 284.074785 
L 358.17374 287.320594 
L 347.456408 284.197491 
z
" clip-path="url(#p45e06919c3)" style="fill: #3b528b"/>
    <path d="M 286.777169 279.489391 
L 297.457939 273.486608 
L 303.51562 278.509257 
L 292.877393 280.527994 
z
" clip-path="url(#p45e06919c3)" style="fill: #38588c"/>
    <path d="M 192.237812 304.964107 
L 202.704992 306.812057 
L 209.098861 301.652223 
L 198.639689 299.248262 
z
" clip-path="url(#p45e06919c3)" style="fill: #404588"/>
    <path d="M 314.222961 275.665462 
L 324.995805 273.091144 
L 330.88396 280.200144 
L 320.180931 279.889385 
z
" clip-path="url(#p45e06919c3)" style="fill: #375a8c"/>
    <path d="M 269.99592 283.66753 
L 280.618483 276.06362 
L 286.777169 279.489391 
L 276.17485 283.10662 
z
" clip-path="url(#p45e06919c3)" style="fill: #38588c"/>
    <path d="M 352.395276 284.074785 
L 363.171925 288.500209 
L 368.912739 291.281744 
L 358.17374 287.320594 
z
" clip-path="url(#p45e06919c3)" style="fill: #3b528b"/>
    <path d="M 253.202868 290.153112 
L 263.760294 283.342797 
L 269.99592 283.66753 
L 259.441813 287.458928 
z
" clip-path="url(#p45e06919c3)" style="fill: #3a548c"/>
    <path d="M 175.332441 307.959458 
L 185.784156 310.157057 
L 192.237812 304.964107 
L 181.79076 302.153915 
z
" clip-path="url(#p45e06919c3)" style="fill: #404588"/>
    <path d="M 236.403279 297.008471 
L 246.916215 292.744021 
L 253.202868 290.153112 
L 242.689926 292.661939 
z
" clip-path="url(#p45e06919c3)" style="fill: #3c4f8a"/>
    <path d="M 219.577451 302.664814 
L 230.071087 301.118121 
L 236.403279 297.008471 
L 225.913578 297.590074 
z
" clip-path="url(#p45e06919c3)" style="fill: #3e4a89"/>
    <path d="M 363.171925 288.500209 
L 373.949301 294.429008 
L 379.669801 295.968081 
L 368.912739 291.281744 
z
" clip-path="url(#p45e06919c3)" style="fill: #3b528b"/>
    <path d="M 202.704992 306.812057 
L 213.186502 306.913095 
L 219.577451 302.664814 
L 209.098861 301.652223 
z
" clip-path="url(#p45e06919c3)" style="fill: #3f4889"/>
    <path d="M 324.995805 273.091144 
L 335.816076 272.17071 
L 341.62743 281.389823 
L 330.88396 280.200144 
z
" clip-path="url(#p45e06919c3)" style="fill: #355f8d"/>
    <path d="M 297.457939 273.486608 
L 308.230523 266.033383 
L 314.222961 275.665462 
L 303.51562 278.509257 
z
" clip-path="url(#p45e06919c3)" style="fill: #34618d"/>
    <path d="M 185.784156 310.157057 
L 196.24576 310.815309 
L 202.704992 306.812057 
L 192.237812 304.964107 
z
" clip-path="url(#p45e06919c3)" style="fill: #404688"/>
    <path d="M 373.949301 294.429008 
L 384.730462 301.249337 
L 390.446868 301.087962 
L 379.669801 295.968081 
z
" clip-path="url(#p45e06919c3)" style="fill: #3c4f8a"/>
    <path d="M 168.825302 313.438472 
L 179.266323 314.448597 
L 185.784156 310.157057 
L 175.332441 307.959458 
z
" clip-path="url(#p45e06919c3)" style="fill: #404588"/>
    <path d="M 384.730462 301.249337 
L 395.527688 308.233912 
L 401.250366 306.293963 
L 390.446868 301.087962 
z
" clip-path="url(#p45e06919c3)" style="fill: #3e4c8a"/>
    <path d="M 280.618483 276.06362 
L 291.338606 264.70189 
L 297.457939 273.486608 
L 286.777169 279.489391 
z
" clip-path="url(#p45e06919c3)" style="fill: #33638d"/>
    <path d="M 230.071087 301.118121 
L 240.58189 295.339096 
L 246.916215 292.744021 
L 236.403279 297.008471 
z
" clip-path="url(#p45e06919c3)" style="fill: #3b528b"/>
    <path d="M 213.186502 306.913095 
L 223.67977 304.159749 
L 230.071087 301.118121 
L 219.577451 302.664814 
z
" clip-path="url(#p45e06919c3)" style="fill: #3d4e8a"/>
    <path d="M 335.816076 272.17071 
L 346.654599 274.082567 
L 352.395276 284.074785 
L 341.62743 281.389823 
z
" clip-path="url(#p45e06919c3)" style="fill: #34618d"/>
    <path d="M 246.916215 292.744021 
L 257.468909 283.001268 
L 263.760294 283.342797 
L 253.202868 290.153112 
z
" clip-path="url(#p45e06919c3)" style="fill: #375b8d"/>
    <path d="M 263.760294 283.342797 
L 274.392292 271.127062 
L 280.618483 276.06362 
L 269.99592 283.66753 
z
" clip-path="url(#p45e06919c3)" style="fill: #34618d"/>
    <path d="M 395.527688 308.233912 
L 406.356566 314.801084 
L 412.08822 311.307425 
L 401.250366 306.293963 
z
" clip-path="url(#p45e06919c3)" style="fill: #3e4989"/>
    <path d="M 196.24576 310.815309 
L 206.713654 309.098984 
L 213.186502 306.913095 
L 202.704992 306.812057 
z
" clip-path="url(#p45e06919c3)" style="fill: #3e4a89"/>
    <path d="M 308.230523 266.033383 
L 319.091425 259.013696 
L 324.995805 273.091144 
L 314.222961 275.665462 
z
" clip-path="url(#p45e06919c3)" style="fill: #306a8e"/>
    <path d="M 346.654599 274.082567 
L 357.482125 279.296449 
L 363.171925 288.500209 
L 352.395276 284.074785 
z
" clip-path="url(#p45e06919c3)" style="fill: #34618d"/>
    <path d="M 179.266323 314.448597 
L 189.696475 312.826023 
L 196.24576 310.815309 
L 185.784156 310.157057 
z
" clip-path="url(#p45e06919c3)" style="fill: #3e4989"/>
    <path d="M 406.356566 314.801084 
L 417.229834 320.653571 
L 422.966825 315.985329 
L 412.08822 311.307425 
z
" clip-path="url(#p45e06919c3)" style="fill: #3f4788"/>
    <path d="M 162.26565 318.535159 
L 172.675519 317.688428 
L 179.266323 314.448597 
L 168.825302 313.438472 
z
" clip-path="url(#p45e06919c3)" style="fill: #3f4889"/>
    <path d="M 357.482125 279.296449 
L 368.282485 287.358087 
L 373.949301 294.429008 
L 363.171925 288.500209 
z
" clip-path="url(#p45e06919c3)" style="fill: #355f8d"/>
    <path d="M 417.229834 320.653571 
L 428.154107 325.767208 
L 433.889468 320.315539 
L 422.966825 315.985329 
z
" clip-path="url(#p45e06919c3)" style="fill: #404588"/>
    <path d="M 223.67977 304.159749 
L 234.189171 297.087318 
L 240.58189 295.339096 
L 230.071087 301.118121 
z
" clip-path="url(#p45e06919c3)" style="fill: #39568c"/>
    <path d="M 368.282485 287.358087 
L 379.059826 297.097556 
L 384.730462 301.249337 
L 373.949301 294.429008 
z
" clip-path="url(#p45e06919c3)" style="fill: #375a8c"/>
    <path d="M 206.713654 309.098984 
L 217.19397 304.254178 
L 223.67977 304.159749 
L 213.186502 306.913095 
z
" clip-path="url(#p45e06919c3)" style="fill: #3b528b"/>
    <path d="M 379.059826 297.097556 
L 389.835544 307.129363 
L 395.527688 308.233912 
L 384.730462 301.249337 
z
" clip-path="url(#p45e06919c3)" style="fill: #3a548c"/>
    <path d="M 240.58189 295.339096 
L 251.126494 283.346942 
L 257.468909 283.001268 
L 246.916215 292.744021 
z
" clip-path="url(#p45e06919c3)" style="fill: #355f8d"/>
    <path d="M 291.338606 264.70189 
L 302.179512 251.020274 
L 308.230523 266.033383 
L 297.457939 273.486608 
z
" clip-path="url(#p45e06919c3)" style="fill: #2c718e"/>
    <path d="M 189.696475 312.826023 
L 200.117615 307.661341 
L 206.713654 309.098984 
L 196.24576 310.815309 
z
" clip-path="url(#p45e06919c3)" style="fill: #3c508b"/>
    <path d="M 389.835544 307.129363 
L 400.637596 316.351001 
L 406.356566 314.801084 
L 395.527688 308.233912 
z
" clip-path="url(#p45e06919c3)" style="fill: #3c4f8a"/>
    <path d="M 428.154107 325.767208 
L 439.130137 330.286682 
L 444.856519 324.367143 
L 433.889468 320.315539 
z
" clip-path="url(#p45e06919c3)" style="fill: #404588"/>
    <path d="M 319.091425 259.013696 
L 330.012703 254.829126 
L 335.816076 272.17071 
L 324.995805 273.091144 
z
" clip-path="url(#p45e06919c3)" style="fill: #2c718e"/>
    <path d="M 257.468909 283.001268 
L 268.097593 266.354057 
L 274.392292 271.127062 
L 263.760294 283.342797 
z
" clip-path="url(#p45e06919c3)" style="fill: #2f6b8e"/>
    <path d="M 400.637596 316.351001 
L 411.489165 324.203122 
L 417.229834 320.653571 
L 406.356566 314.801084 
z
" clip-path="url(#p45e06919c3)" style="fill: #3e4a89"/>
    <path d="M 172.675519 317.688428 
L 183.038809 312.496411 
L 189.696475 312.826023 
L 179.266323 314.448597 
z
" clip-path="url(#p45e06919c3)" style="fill: #3d4e8a"/>
    <path d="M 274.392292 271.127062 
L 285.140256 253.545102 
L 291.338606 264.70189 
L 280.618483 276.06362 
z
" clip-path="url(#p45e06919c3)" style="fill: #2c718e"/>
    <path d="M 155.656665 323.431799 
L 166.019276 320.345349 
L 172.675519 317.688428 
L 162.26565 318.535159 
z
" clip-path="url(#p45e06919c3)" style="fill: #3e4a89"/>
    <path d="M 439.130137 330.286682 
L 450.155159 334.40873 
L 455.866622 328.234421 
L 444.856519 324.367143 
z
" clip-path="url(#p45e06919c3)" style="fill: #414487"/>
    <path d="M 411.489165 324.203122 
L 422.402498 330.643854 
L 428.154107 325.767208 
L 417.229834 320.653571 
z
" clip-path="url(#p45e06919c3)" style="fill: #3f4788"/>
    <path d="M 330.012703 254.829126 
L 340.946436 255.535792 
L 346.654599 274.082567 
L 335.816076 272.17071 
z
" clip-path="url(#p45e06919c3)" style="fill: #2b758e"/>
    <path d="M 217.19397 304.254178 
L 227.701939 295.62896 
L 234.189171 297.087318 
L 223.67977 304.159749 
z
" clip-path="url(#p45e06919c3)" style="fill: #365d8d"/>
    <path d="M 422.402498 330.643854 
L 433.379181 335.949223 
L 439.130137 330.286682 
L 428.154107 325.767208 
z
" clip-path="url(#p45e06919c3)" style="fill: #404588"/>
    <path d="M 450.155159 334.40873 
L 461.22543 338.304575 
L 466.917972 331.999534 
L 455.866622 328.234421 
z
" clip-path="url(#p45e06919c3)" style="fill: #414487"/>
    <path d="M 234.189171 297.087318 
L 244.731329 283.946073 
L 251.126494 283.346942 
L 240.58189 295.339096 
z
" clip-path="url(#p45e06919c3)" style="fill: #32658e"/>
    <path d="M 200.117615 307.661341 
L 210.556351 298.931773 
L 217.19397 304.254178 
L 206.713654 309.098984 
z
" clip-path="url(#p45e06919c3)" style="fill: #375b8d"/>
    <path d="M 340.946436 255.535792 
L 351.842749 261.956009 
L 357.482125 279.296449 
L 346.654599 274.082567 
z
" clip-path="url(#p45e06919c3)" style="fill: #2b758e"/>
    <path d="M 302.179512 251.020274 
L 313.140228 237.963166 
L 319.091425 259.013696 
L 308.230523 266.033383 
z
" clip-path="url(#p45e06919c3)" style="fill: #277f8e"/>
    <path d="M 433.379181 335.949223 
L 444.414302 340.49215 
L 450.155159 334.40873 
L 439.130137 330.286682 
z
" clip-path="url(#p45e06919c3)" style="fill: #404588"/>
    <path d="M 384.179221 302.198618 
L 394.935784 315.461725 
L 400.637596 316.351001 
L 389.835544 307.129363 
z
" clip-path="url(#p45e06919c3)" style="fill: #38588c"/>
    <path d="M 183.038809 312.496411 
L 193.365747 301.903823 
L 200.117615 307.661341 
L 189.696475 312.826023 
z
" clip-path="url(#p45e06919c3)" style="fill: #38598c"/>
    <path d="M 394.935784 315.461725 
L 405.748021 326.347464 
L 411.489165 324.203122 
L 400.637596 316.351001 
z
" clip-path="url(#p45e06919c3)" style="fill: #3c508b"/>
    <path d="M 149.01136 328.5812 
L 159.329057 323.596696 
L 166.019276 320.345349 
L 155.656665 323.431799 
z
" clip-path="url(#p45e06919c3)" style="fill: #3d4e8a"/>
    <path d="M 461.22543 338.304575 
L 472.337824 342.091299 
L 478.009091 335.718701 
L 466.917972 331.999534 
z
" clip-path="url(#p45e06919c3)" style="fill: #414487"/>
    <path d="M 373.439961 287.510184 
L 384.179221 302.198618 
L 389.835544 307.129363 
L 379.059826 297.097556 
z
" clip-path="url(#p45e06919c3)" style="fill: #34618d"/>
    <path d="M 166.019276 320.345349 
L 176.286664 310.832216 
L 183.038809 312.496411 
L 172.675519 317.688428 
z
" clip-path="url(#p45e06919c3)" style="fill: #3a548c"/>
    <path d="M 351.842749 261.956009 
L 362.67242 273.294656 
L 368.282485 287.358087 
L 357.482125 279.296449 
z
" clip-path="url(#p45e06919c3)" style="fill: #2c718e"/>
    <path d="M 362.67242 273.294656 
L 373.439961 287.510184 
L 379.059826 297.097556 
L 368.282485 287.358087 
z
" clip-path="url(#p45e06919c3)" style="fill: #306a8e"/>
    <path d="M 251.126494 283.346942 
L 261.74368 263.516285 
L 268.097593 266.354057 
L 257.468909 283.001268 
z
" clip-path="url(#p45e06919c3)" style="fill: #2c728e"/>
    <path d="M 405.748021 326.347464 
L 416.6366 334.794217 
L 422.402498 330.643854 
L 411.489165 324.203122 
z
" clip-path="url(#p45e06919c3)" style="fill: #3e4a89"/>
    <path d="M 444.414302 340.49215 
L 455.501051 344.596515 
L 461.22543 338.304575 
L 450.155159 334.40873 
z
" clip-path="url(#p45e06919c3)" style="fill: #414487"/>
    <path d="M 416.6366 334.794217 
L 427.604645 341.281961 
L 433.379181 335.949223 
L 422.402498 330.643854 
z
" clip-path="url(#p45e06919c3)" style="fill: #3f4788"/>
    <path d="M 472.337824 342.091299 
L 483.490347 345.835849 
L 489.139081 339.424088 
L 478.009091 335.718701 
z
" clip-path="url(#p45e06919c3)" style="fill: #414487"/>
    <path d="M 268.097593 266.354057 
L 278.855222 242.796395 
L 285.140256 253.545102 
L 274.392292 271.127062 
z
" clip-path="url(#p45e06919c3)" style="fill: #27808e"/>
    <path d="M 285.140256 253.545102 
L 296.040459 232.59287 
L 302.179512 251.020274 
L 291.338606 264.70189 
z
" clip-path="url(#p45e06919c3)" style="fill: #25858e"/>
    <path d="M 427.604645 341.281961 
L 438.644416 346.452849 
L 444.414302 340.49215 
L 433.379181 335.949223 
z
" clip-path="url(#p45e06919c3)" style="fill: #404588"/>
    <path d="M 455.501051 344.596515 
L 466.633645 348.483577 
L 472.337824 342.091299 
L 461.22543 338.304575 
z
" clip-path="url(#p45e06919c3)" style="fill: #414487"/>
    <path d="M 227.701939 295.62896 
L 238.257837 282.409917 
L 244.731329 283.946073 
L 234.189171 297.087318 
z
" clip-path="url(#p45e06919c3)" style="fill: #2f6b8e"/>
    <path d="M 142.347748 334.497971 
L 152.649103 328.786534 
L 159.329057 323.596696 
L 149.01136 328.5812 
z
" clip-path="url(#p45e06919c3)" style="fill: #3c4f8a"/>
    <path d="M 210.556351 298.931773 
L 221.055177 287.644493 
L 227.701939 295.62896 
L 217.19397 304.254178 
z
" clip-path="url(#p45e06919c3)" style="fill: #31678e"/>
    <path d="M 313.140228 237.963166 
L 324.182257 229.324221 
L 330.012703 254.829126 
L 319.091425 259.013696 
z
" clip-path="url(#p45e06919c3)" style="fill: #228b8d"/>
    <path d="M 438.644416 346.452849 
L 449.74484 350.862817 
L 455.501051 344.596515 
L 444.414302 340.49215 
z
" clip-path="url(#p45e06919c3)" style="fill: #414487"/>
    <path d="M 159.329057 323.596696 
L 169.502824 310.409111 
L 176.286664 310.832216 
L 166.019276 320.345349 
z
" clip-path="url(#p45e06919c3)" style="fill: #375b8d"/>
    <path d="M 399.999607 327.105984 
L 410.852754 338.225802 
L 416.6366 334.794217 
L 405.748021 326.347464 
z
" clip-path="url(#p45e06919c3)" style="fill: #3c4f8a"/>
    <path d="M 389.239709 312.166185 
L 399.999607 327.105984 
L 405.748021 326.347464 
L 394.935784 315.461725 
z
" clip-path="url(#p45e06919c3)" style="fill: #38588c"/>
    <path d="M 466.633645 348.483577 
L 477.80831 352.279797 
L 483.490347 345.835849 
L 472.337824 342.091299 
z
" clip-path="url(#p45e06919c3)" style="fill: #414487"/>
    <path d="M 193.365747 301.903823 
L 203.717881 286.982525 
L 210.556351 298.931773 
L 200.117615 307.661341 
z
" clip-path="url(#p45e06919c3)" style="fill: #31678e"/>
    <path d="M 410.852754 338.225802 
L 421.804704 346.285808 
L 427.604645 341.281961 
L 416.6366 334.794217 
z
" clip-path="url(#p45e06919c3)" style="fill: #3e4989"/>
    <path d="M 244.731329 283.946073 
L 255.342161 263.178108 
L 261.74368 263.516285 
L 251.126494 283.346942 
z
" clip-path="url(#p45e06919c3)" style="fill: #29798e"/>
    <path d="M 176.286664 310.832216 
L 186.478104 293.617312 
L 193.365747 301.903823 
L 183.038809 312.496411 
z
" clip-path="url(#p45e06919c3)" style="fill: #32648e"/>
    <path d="M 378.541387 293.480401 
L 389.239709 312.166185 
L 394.935784 315.461725 
L 384.179221 302.198618 
z
" clip-path="url(#p45e06919c3)" style="fill: #33638d"/>
    <path d="M 449.74484 350.862817 
L 460.896378 354.8912 
L 466.633645 348.483577 
L 455.501051 344.596515 
z
" clip-path="url(#p45e06919c3)" style="fill: #414487"/>
    <path d="M 421.804704 346.285808 
L 432.844599 352.289598 
L 438.644416 346.452849 
L 427.604645 341.281961 
z
" clip-path="url(#p45e06919c3)" style="fill: #404688"/>
    <path d="M 135.677252 341.414882 
L 146.008287 336.524087 
L 152.649103 328.786534 
L 142.347748 334.497971 
z
" clip-path="url(#p45e06919c3)" style="fill: #3c4f8a"/>
    <path d="M 367.84701 272.513375 
L 378.541387 293.480401 
L 384.179221 302.198618 
L 373.439961 287.510184 
z
" clip-path="url(#p45e06919c3)" style="fill: #2c718e"/>
    <path d="M 432.844599 352.289598 
L 443.956292 357.102337 
L 449.74484 350.862817 
L 438.644416 346.452849 
z
" clip-path="url(#p45e06919c3)" style="fill: #404588"/>
    <path d="M 324.182257 229.324221 
L 335.234365 228.377148 
L 340.946436 255.535792 
L 330.012703 254.829126 
z
" clip-path="url(#p45e06919c3)" style="fill: #20928c"/>
    <path d="M 460.896378 354.8912 
L 472.092715 358.754737 
L 477.80831 352.279797 
L 466.633645 348.483577 
z
" clip-path="url(#p45e06919c3)" style="fill: #414487"/>
    <path d="M 152.649103 328.786534 
L 162.77776 314.192316 
L 169.502824 310.409111 
L 159.329057 323.596696 
z
" clip-path="url(#p45e06919c3)" style="fill: #355f8d"/>
    <path d="M 261.74368 263.516285 
L 272.493489 235.758874 
L 278.855222 242.796395 
L 268.097593 266.354057 
z
" clip-path="url(#p45e06919c3)" style="fill: #228c8d"/>
    <path d="M 357.089132 252.2328 
L 367.84701 272.513375 
L 373.439961 287.510184 
L 362.67242 273.294656 
z
" clip-path="url(#p45e06919c3)" style="fill: #277f8e"/>
    <path d="M 394.224839 326.971572 
L 405.040635 341.178356 
L 410.852754 338.225802 
L 399.999607 327.105984 
z
" clip-path="url(#p45e06919c3)" style="fill: #3a548c"/>
    <path d="M 405.040635 341.178356 
L 415.97441 351.060702 
L 421.804704 346.285808 
L 410.852754 338.225802 
z
" clip-path="url(#p45e06919c3)" style="fill: #3d4d8a"/>
    <path d="M 221.055177 287.644493 
L 231.648019 274.912458 
L 238.257837 282.409917 
L 227.701939 295.62896 
z
" clip-path="url(#p45e06919c3)" style="fill: #2a768e"/>
    <path d="M 296.040459 232.59287 
L 307.098099 212.442168 
L 313.140228 237.963166 
L 302.179512 251.020274 
z
" clip-path="url(#p45e06919c3)" style="fill: #1f998a"/>
    <path d="M 128.995966 349.107949 
L 139.398314 346.222412 
L 146.008287 336.524087 
L 135.677252 341.414882 
z
" clip-path="url(#p45e06919c3)" style="fill: #3d4e8a"/>
    <path d="M 443.956292 357.102337 
L 455.125662 361.313656 
L 460.896378 354.8912 
L 449.74484 350.862817 
z
" clip-path="url(#p45e06919c3)" style="fill: #414487"/>
    <path d="M 335.234365 228.377148 
L 346.219282 236.437105 
L 351.842749 261.956009 
L 340.946436 255.535792 
z
" clip-path="url(#p45e06919c3)" style="fill: #20928c"/>
    <path d="M 415.97441 351.060702 
L 427.0127 358.037285 
L 432.844599 352.289598 
L 421.804704 346.285808 
z
" clip-path="url(#p45e06919c3)" style="fill: #3f4788"/>
    <path d="M 346.219282 236.437105 
L 357.089132 252.2328 
L 362.67242 273.294656 
L 351.842749 261.956009 
z
" clip-path="url(#p45e06919c3)" style="fill: #228b8d"/>
    <path d="M 383.518128 307.347887 
L 394.224839 326.971572 
L 399.999607 327.105984 
L 389.239709 312.166185 
z
" clip-path="url(#p45e06919c3)" style="fill: #34618d"/>
    <path d="M 238.257837 282.409917 
L 248.888314 263.525786 
L 255.342161 263.178108 
L 244.731329 283.946073 
z
" clip-path="url(#p45e06919c3)" style="fill: #27808e"/>
    <path d="M 278.855222 242.796395 
L 289.792416 214.81878 
L 296.040459 232.59287 
L 285.140256 253.545102 
z
" clip-path="url(#p45e06919c3)" style="fill: #1f998a"/>
    <path d="M 203.717881 286.982525 
L 214.187486 271.298074 
L 221.055177 287.644493 
L 210.556351 298.931773 
z
" clip-path="url(#p45e06919c3)" style="fill: #2a788e"/>
    <path d="M 427.0127 358.037285 
L 438.13448 363.324992 
L 443.956292 357.102337 
L 432.844599 352.289598 
z
" clip-path="url(#p45e06919c3)" style="fill: #404588"/>
    <path d="M 455.125662 361.313656 
L 466.343245 365.260648 
L 472.092715 358.754737 
L 460.896378 354.8912 
z
" clip-path="url(#p45e06919c3)" style="fill: #414487"/>
    <path d="M 169.502824 310.409111 
L 179.55841 287.538199 
L 186.478104 293.617312 
L 176.286664 310.832216 
z
" clip-path="url(#p45e06919c3)" style="fill: #2e6f8e"/>
    <path d="M 146.008287 336.524087 
L 156.172217 323.53204 
L 162.77776 314.192316 
L 152.649103 328.786534 
z
" clip-path="url(#p45e06919c3)" style="fill: #355f8d"/>
    <path d="M 122.287364 357.064126 
L 132.779855 356.539824 
L 139.398314 346.222412 
L 128.995966 349.107949 
z
" clip-path="url(#p45e06919c3)" style="fill: #3e4a89"/>
    <path d="M 372.876524 282.373526 
L 383.518128 307.347887 
L 389.239709 312.166185 
L 378.541387 293.480401 
z
" clip-path="url(#p45e06919c3)" style="fill: #2c718e"/>
    <path d="M 186.478104 293.617312 
L 196.700387 271.033799 
L 203.717881 286.982525 
L 193.365747 301.903823 
z
" clip-path="url(#p45e06919c3)" style="fill: #2a788e"/>
    <path d="M 438.13448 363.324992 
L 449.321017 367.753241 
L 455.125662 361.313656 
L 443.956292 357.102337 
z
" clip-path="url(#p45e06919c3)" style="fill: #414487"/>
    <path d="M 399.187442 344.028638 
L 410.108694 355.727687 
L 415.97441 351.060702 
L 405.040635 341.178356 
z
" clip-path="url(#p45e06919c3)" style="fill: #3c4f8a"/>
    <path d="M 410.108694 355.727687 
L 421.147253 363.715047 
L 427.0127 358.037285 
L 415.97441 351.060702 
z
" clip-path="url(#p45e06919c3)" style="fill: #3e4989"/>
    <path d="M 388.39779 326.821894 
L 399.187442 344.028638 
L 405.040635 341.178356 
L 394.224839 326.971572 
z
" clip-path="url(#p45e06919c3)" style="fill: #375b8d"/>
    <path d="M 139.398314 346.222412 
L 149.671195 337.127616 
L 156.172217 323.53204 
L 146.008287 336.524087 
z
" clip-path="url(#p45e06919c3)" style="fill: #375b8d"/>
    <path d="M 255.342161 263.178108 
L 266.079547 234.545531 
L 272.493489 235.758874 
L 261.74368 263.516285 
z
" clip-path="url(#p45e06919c3)" style="fill: #1f958b"/>
    <path d="M 421.147253 363.715047 
L 432.279142 369.523122 
L 438.13448 363.324992 
L 427.0127 358.037285 
z
" clip-path="url(#p45e06919c3)" style="fill: #404588"/>
    <path d="M 449.321017 367.753241 
L 460.559551 371.798102 
L 466.343245 365.260648 
L 455.125662 361.313656 
z
" clip-path="url(#p45e06919c3)" style="fill: #414487"/>
    <path d="M 115.533694 364.823961 
L 126.110205 366.278707 
L 132.779855 356.539824 
L 122.287364 357.064126 
z
" clip-path="url(#p45e06919c3)" style="fill: #3f4788"/>
    <path d="M 362.221657 254.082934 
L 372.876524 282.373526 
L 378.541387 293.480401 
L 367.84701 272.513375 
z
" clip-path="url(#p45e06919c3)" style="fill: #25858e"/>
    <path d="M 377.726878 302.695432 
L 388.39779 326.821894 
L 394.224839 326.971572 
L 383.518128 307.347887 
z
" clip-path="url(#p45e06919c3)" style="fill: #2f6b8e"/>
    <path d="M 307.098099 212.442168 
L 318.266255 198.539192 
L 324.182257 229.324221 
L 313.140228 237.963166 
z
" clip-path="url(#p45e06919c3)" style="fill: #24aa83"/>
    <path d="M 231.648019 274.912458 
L 242.346242 260.685786 
L 248.888314 263.525786 
L 238.257837 282.409917 
z
" clip-path="url(#p45e06919c3)" style="fill: #23898e"/>
    <path d="M 132.779855 356.539824 
L 143.195511 352.015698 
L 149.671195 337.127616 
L 139.398314 346.222412 
z
" clip-path="url(#p45e06919c3)" style="fill: #3a538b"/>
    <path d="M 432.279142 369.523122 
L 443.482363 374.201832 
L 449.321017 367.753241 
L 438.13448 363.324992 
z
" clip-path="url(#p45e06919c3)" style="fill: #404588"/>
    <path d="M 162.77776 314.192316 
L 172.761291 289.191938 
L 179.55841 287.538199 
L 169.502824 310.409111 
z
" clip-path="url(#p45e06919c3)" style="fill: #2a768e"/>
    <path d="M 393.289341 346.885386 
L 404.210276 360.157231 
L 410.108694 355.727687 
L 399.187442 344.028638 
z
" clip-path="url(#p45e06919c3)" style="fill: #3b528b"/>
    <path d="M 214.187486 271.298074 
L 224.838721 258.962185 
L 231.648019 274.912458 
L 221.055177 287.644493 
z
" clip-path="url(#p45e06919c3)" style="fill: #23898e"/>
    <path d="M 404.210276 360.157231 
L 415.252424 369.164551 
L 421.147253 363.715047 
L 410.108694 355.727687 
z
" clip-path="url(#p45e06919c3)" style="fill: #3e4a89"/>
    <path d="M 108.725347 372.195269 
L 119.366285 374.940765 
L 126.110205 366.278707 
L 115.533694 364.823961 
z
" clip-path="url(#p45e06919c3)" style="fill: #404588"/>
    <path d="M 126.110205 366.278707 
L 136.658407 365.568066 
L 143.195511 352.015698 
L 132.779855 356.539824 
z
" clip-path="url(#p45e06919c3)" style="fill: #3d4e8a"/>
    <path d="M 443.482363 374.201832 
L 454.741466 378.363154 
L 460.559551 371.798102 
L 449.321017 367.753241 
z
" clip-path="url(#p45e06919c3)" style="fill: #414487"/>
    <path d="M 415.252424 369.164551 
L 426.393403 375.587777 
L 432.279142 369.523122 
L 421.147253 363.715047 
z
" clip-path="url(#p45e06919c3)" style="fill: #404688"/>
    <path d="M 382.501202 327.368232 
L 393.289341 346.885386 
L 399.187442 344.028638 
L 388.39779 326.821894 
z
" clip-path="url(#p45e06919c3)" style="fill: #355f8d"/>
    <path d="M 272.493489 235.758874 
L 283.438293 202.826176 
L 289.792416 214.81878 
L 278.855222 242.796395 
z
" clip-path="url(#p45e06919c3)" style="fill: #25ab82"/>
    <path d="M 351.463219 226.682573 
L 362.221657 254.082934 
L 367.84701 272.513375 
L 357.089132 252.2328 
z
" clip-path="url(#p45e06919c3)" style="fill: #1f998a"/>
    <path d="M 248.888314 263.525786 
L 259.63433 238.430505 
L 266.079547 234.545531 
L 255.342161 263.178108 
z
" clip-path="url(#p45e06919c3)" style="fill: #1f9a8a"/>
    <path d="M 367.11965 271.677293 
L 377.726878 302.695432 
L 383.518128 307.347887 
L 372.876524 282.373526 
z
" clip-path="url(#p45e06919c3)" style="fill: #27808e"/>
    <path d="M 426.393403 375.587777 
L 437.611314 380.603705 
L 443.482363 374.201832 
L 432.279142 369.523122 
z
" clip-path="url(#p45e06919c3)" style="fill: #404588"/>
    <path d="M 156.172217 323.53204 
L 166.193907 301.112605 
L 172.761291 289.191938 
L 162.77776 314.192316 
z
" clip-path="url(#p45e06919c3)" style="fill: #2b758e"/>
    <path d="M 289.792416 214.81878 
L 300.924392 187.759229 
L 307.098099 212.442168 
L 296.040459 232.59287 
z
" clip-path="url(#p45e06919c3)" style="fill: #2fb47c"/>
    <path d="M 119.366285 374.940765 
L 130.012853 376.703593 
L 136.658407 365.568066 
L 126.110205 366.278707 
z
" clip-path="url(#p45e06919c3)" style="fill: #3f4889"/>
    <path d="M 196.700387 271.033799 
L 207.114911 249.713177 
L 214.187486 271.298074 
L 203.717881 286.982525 
z
" clip-path="url(#p45e06919c3)" style="fill: #218f8d"/>
    <path d="M 318.266255 198.539192 
L 329.449326 195.628711 
L 335.234365 228.377148 
L 324.182257 229.324221 
z
" clip-path="url(#p45e06919c3)" style="fill: #2fb47c"/>
    <path d="M 179.55841 287.538199 
L 189.645149 258.3808 
L 196.700387 271.033799 
L 186.478104 293.617312 
z
" clip-path="url(#p45e06919c3)" style="fill: #238a8d"/>
    <path d="M 101.86192 379.226537 
L 112.547419 382.653888 
L 119.366285 374.940765 
L 108.725347 372.195269 
z
" clip-path="url(#p45e06919c3)" style="fill: #404588"/>
    <path d="M 398.300483 363.507043 
L 409.344902 373.778144 
L 415.252424 369.164551 
L 404.210276 360.157231 
z
" clip-path="url(#p45e06919c3)" style="fill: #3d4e8a"/>
    <path d="M 371.829109 299.996114 
L 382.501202 327.368232 
L 388.39779 326.821894 
L 377.726878 302.695432 
z
" clip-path="url(#p45e06919c3)" style="fill: #2c728e"/>
    <path d="M 149.671195 337.127616 
L 159.83377 320.860019 
L 166.193907 301.112605 
L 156.172217 323.53204 
z
" clip-path="url(#p45e06919c3)" style="fill: #2e6f8e"/>
    <path d="M 387.366793 348.887498 
L 398.300483 363.507043 
L 404.210276 360.157231 
L 393.289341 346.885386 
z
" clip-path="url(#p45e06919c3)" style="fill: #39568c"/>
    <path d="M 437.611314 380.603705 
L 448.889529 384.933264 
L 454.741466 378.363154 
L 443.482363 374.201832 
z
" clip-path="url(#p45e06919c3)" style="fill: #414487"/>
    <path d="M 340.538692 205.627098 
L 351.463219 226.682573 
L 357.089132 252.2328 
L 346.219282 236.437105 
z
" clip-path="url(#p45e06919c3)" style="fill: #24aa83"/>
    <path d="M 143.195511 352.015698 
L 153.546845 342.903175 
L 159.83377 320.860019 
L 149.671195 337.127616 
z
" clip-path="url(#p45e06919c3)" style="fill: #33638d"/>
    <path d="M 409.344902 373.778144 
L 420.487628 381.169107 
L 426.393403 375.587777 
L 415.252424 369.164551 
z
" clip-path="url(#p45e06919c3)" style="fill: #3f4889"/>
    <path d="M 136.658407 365.568066 
L 147.18514 362.385925 
L 153.546845 342.903175 
L 143.195511 352.015698 
z
" clip-path="url(#p45e06919c3)" style="fill: #39568c"/>
    <path d="M 329.449326 195.628711 
L 340.538692 205.627098 
L 346.219282 236.437105 
L 335.234365 228.377148 
z
" clip-path="url(#p45e06919c3)" style="fill: #2fb47c"/>
    <path d="M 112.547419 382.653888 
L 123.257447 385.711326 
L 130.012853 376.703593 
L 119.366285 374.940765 
z
" clip-path="url(#p45e06919c3)" style="fill: #404588"/>
    <path d="M 376.546812 328.172463 
L 387.366793 348.887498 
L 393.289341 346.885386 
L 382.501202 327.368232 
z
" clip-path="url(#p45e06919c3)" style="fill: #32658e"/>
    <path d="M 224.838721 258.962185 
L 235.664208 251.475256 
L 242.346242 260.685786 
L 231.648019 274.912458 
z
" clip-path="url(#p45e06919c3)" style="fill: #1f988b"/>
    <path d="M 420.487628 381.169107 
L 431.713037 386.793801 
L 437.611314 380.603705 
L 426.393403 375.587777 
z
" clip-path="url(#p45e06919c3)" style="fill: #404588"/>
    <path d="M 130.012853 376.703593 
L 140.668186 377.34722 
L 147.18514 362.385925 
L 136.658407 365.568066 
z
" clip-path="url(#p45e06919c3)" style="fill: #3d4e8a"/>
    <path d="M 242.346242 260.685786 
L 253.153648 243.795561 
L 259.63433 238.430505 
L 248.888314 263.525786 
z
" clip-path="url(#p45e06919c3)" style="fill: #1f9f88"/>
    <path d="M 94.947603 386.060734 
L 105.664221 389.790414 
L 112.547419 382.653888 
L 101.86192 379.226537 
z
" clip-path="url(#p45e06919c3)" style="fill: #414487"/>
    <path d="M 356.480098 236.307731 
L 367.11965 271.677293 
L 372.876524 282.373526 
L 362.221657 254.082934 
z
" clip-path="url(#p45e06919c3)" style="fill: #1f998a"/>
    <path d="M 431.713037 386.793801 
L 443.005745 391.444008 
L 448.889529 384.933264 
L 437.611314 380.603705 
z
" clip-path="url(#p45e06919c3)" style="fill: #414487"/>
    <path d="M 266.079547 234.545531 
L 277.009331 200.60387 
L 283.438293 202.826176 
L 272.493489 235.758874 
z
" clip-path="url(#p45e06919c3)" style="fill: #32b67a"/>
    <path d="M 123.257447 385.711326 
L 133.993264 388.346675 
L 140.668186 377.34722 
L 130.012853 376.703593 
z
" clip-path="url(#p45e06919c3)" style="fill: #3f4788"/>
    <path d="M 392.423231 363.87255 
L 403.456376 376.301289 
L 409.344902 373.778144 
L 398.300483 363.507043 
z
" clip-path="url(#p45e06919c3)" style="fill: #3b528b"/>
    <path d="M 403.456376 376.301289 
L 414.58081 385.577927 
L 420.487628 381.169107 
L 409.344902 373.778144 
z
" clip-path="url(#p45e06919c3)" style="fill: #3e4a89"/>
    <path d="M 105.664221 389.790414 
L 116.413969 393.409473 
L 123.257447 385.711326 
L 112.547419 382.653888 
z
" clip-path="url(#p45e06919c3)" style="fill: #414487"/>
    <path d="M 361.211943 264.71881 
L 371.829109 299.996114 
L 377.726878 302.695432 
L 367.11965 271.677293 
z
" clip-path="url(#p45e06919c3)" style="fill: #228c8d"/>
    <path d="M 381.470556 347.647006 
L 392.423231 363.87255 
L 398.300483 363.507043 
L 387.366793 348.887498 
z
" clip-path="url(#p45e06919c3)" style="fill: #365d8d"/>
    <path d="M 365.821325 299.819647 
L 376.546812 328.172463 
L 382.501202 327.368232 
L 371.829109 299.996114 
z
" clip-path="url(#p45e06919c3)" style="fill: #29798e"/>
    <path d="M 172.761291 289.191938 
L 182.77216 257.68552 
L 189.645149 258.3808 
L 179.55841 287.538199 
z
" clip-path="url(#p45e06919c3)" style="fill: #1f948c"/>
    <path d="M 140.668186 377.34722 
L 151.356636 377.352592 
L 157.74174 357.786258 
L 147.18514 362.385925 
z
" clip-path="url(#p45e06919c3)" style="fill: #3a538b"/>
    <path d="M 147.18514 362.385925 
L 157.74174 357.786258 
L 163.924516 331.12236 
L 153.546845 342.903175 
z
" clip-path="url(#p45e06919c3)" style="fill: #33638d"/>
    <path d="M 414.58081 385.577927 
L 425.796934 392.455108 
L 431.713037 386.793801 
L 420.487628 381.169107 
z
" clip-path="url(#p45e06919c3)" style="fill: #404688"/>
    <path d="M 207.114911 249.713177 
L 217.833639 237.411362 
L 224.838721 258.962185 
L 214.187486 271.298074 
z
" clip-path="url(#p45e06919c3)" style="fill: #1fa188"/>
    <path d="M 87.986639 392.821687 
L 98.727537 396.672104 
L 105.664221 389.790414 
L 94.947603 386.060734 
z
" clip-path="url(#p45e06919c3)" style="fill: #414487"/>
    <path d="M 300.924392 187.759229 
L 312.201201 168.692866 
L 318.266255 198.539192 
L 307.098099 212.442168 
z
" clip-path="url(#p45e06919c3)" style="fill: #5ac864"/>
    <path d="M 133.993264 388.346675 
L 144.764584 390.742131 
L 151.356636 377.352592 
L 140.668186 377.34722 
z
" clip-path="url(#p45e06919c3)" style="fill: #3e4a89"/>
    <path d="M 370.584093 326.821057 
L 381.470556 347.647006 
L 387.366793 348.887498 
L 376.546812 328.172463 
z
" clip-path="url(#p45e06919c3)" style="fill: #2f6b8e"/>
    <path d="M 116.413969 393.409473 
L 127.197356 396.90093 
L 133.993264 388.346675 
L 123.257447 385.711326 
z
" clip-path="url(#p45e06919c3)" style="fill: #404588"/>
    <path d="M 153.546845 342.903175 
L 163.924516 331.12236 
L 170.020123 300.333133 
L 159.83377 320.860019 
z
" clip-path="url(#p45e06919c3)" style="fill: #2b758e"/>
    <path d="M 425.796934 392.455108 
L 437.093881 397.773183 
L 443.005745 391.444008 
L 431.713037 386.793801 
z
" clip-path="url(#p45e06919c3)" style="fill: #404588"/>
    <path d="M 235.664208 251.475256 
L 246.607871 246.598039 
L 253.153648 243.795561 
L 242.346242 260.685786 
z
" clip-path="url(#p45e06919c3)" style="fill: #21a585"/>
    <path d="M 98.727537 396.672104 
L 109.504851 400.502339 
L 116.413969 393.409473 
L 105.664221 389.790414 
z
" clip-path="url(#p45e06919c3)" style="fill: #414487"/>
    <path d="M 283.438293 202.826176 
L 294.605398 170.830327 
L 300.924392 187.759229 
L 289.792416 214.81878 
z
" clip-path="url(#p45e06919c3)" style="fill: #5ac864"/>
    <path d="M 345.699388 201.971193 
L 356.480098 236.307731 
L 362.221657 254.082934 
L 351.463219 226.682573 
z
" clip-path="url(#p45e06919c3)" style="fill: #2fb47c"/>
    <path d="M 259.63433 238.430505 
L 270.549938 208.74442 
L 277.009331 200.60387 
L 266.079547 234.545531 
z
" clip-path="url(#p45e06919c3)" style="fill: #38b977"/>
    <path d="M 189.645149 258.3808 
L 199.994349 232.226086 
L 207.114911 249.713177 
L 196.700387 271.033799 
z
" clip-path="url(#p45e06919c3)" style="fill: #21a585"/>
    <path d="M 166.193907 301.112605 
L 176.239525 272.956316 
L 182.77216 257.68552 
L 172.761291 289.191938 
z
" clip-path="url(#p45e06919c3)" style="fill: #20938c"/>
    <path d="M 159.83377 320.860019 
L 170.020123 300.333133 
L 176.239525 272.956316 
L 166.193907 301.112605 
z
" clip-path="url(#p45e06919c3)" style="fill: #24878e"/>
    <path d="M 151.356636 377.352592 
L 162.116688 377.846982 
L 168.41035 354.317567 
L 157.74174 357.786258 
z
" clip-path="url(#p45e06919c3)" style="fill: #375b8d"/>
    <path d="M 127.197356 396.90093 
L 138.017703 400.322034 
L 144.764584 390.742131 
L 133.993264 388.346675 
z
" clip-path="url(#p45e06919c3)" style="fill: #404688"/>
    <path d="M 397.620341 375.149003 
L 408.692835 387.964325 
L 414.58081 385.577927 
L 403.456376 376.301289 
z
" clip-path="url(#p45e06919c3)" style="fill: #3c508b"/>
    <path d="M 144.764584 390.742131 
L 155.586368 393.308183 
L 162.116688 377.846982 
L 151.356636 377.352592 
z
" clip-path="url(#p45e06919c3)" style="fill: #3d4e8a"/>
    <path d="M 80.981505 399.580058 
L 91.74396 403.4822 
L 98.727537 396.672104 
L 87.986639 392.821687 
z
" clip-path="url(#p45e06919c3)" style="fill: #414487"/>
    <path d="M 386.626141 358.74997 
L 397.620341 375.149003 
L 403.456376 376.301289 
L 392.423231 363.87255 
z
" clip-path="url(#p45e06919c3)" style="fill: #375b8d"/>
    <path d="M 408.692835 387.964325 
L 419.872848 397.202251 
L 425.796934 392.455108 
L 414.58081 385.577927 
z
" clip-path="url(#p45e06919c3)" style="fill: #3e4989"/>
    <path d="M 109.504851 400.502339 
L 120.318855 404.307738 
L 127.197356 396.90093 
L 116.413969 393.409473 
z
" clip-path="url(#p45e06919c3)" style="fill: #414487"/>
    <path d="M 359.745796 300.336576 
L 370.584093 326.821057 
L 376.546812 328.172463 
L 365.821325 299.819647 
z
" clip-path="url(#p45e06919c3)" style="fill: #27808e"/>
    <path d="M 355.133218 263.627299 
L 365.821325 299.819647 
L 371.829109 299.996114 
L 361.211943 264.71881 
z
" clip-path="url(#p45e06919c3)" style="fill: #1f958b"/>
    <path d="M 157.74174 357.786258 
L 168.41035 354.317567 
L 174.474468 321.454217 
L 163.924516 331.12236 
z
" clip-path="url(#p45e06919c3)" style="fill: #2e6f8e"/>
    <path d="M 419.872848 397.202251 
L 431.157903 403.773384 
L 437.093881 397.773183 
L 425.796934 392.455108 
z
" clip-path="url(#p45e06919c3)" style="fill: #404588"/>
    <path d="M 217.833639 237.411362 
L 228.832006 237.459649 
L 235.664208 251.475256 
L 224.838721 258.962185 
z
" clip-path="url(#p45e06919c3)" style="fill: #26ad81"/>
    <path d="M 375.658725 339.803615 
L 386.626141 358.74997 
L 392.423231 363.87255 
L 381.470556 347.647006 
z
" clip-path="url(#p45e06919c3)" style="fill: #31678e"/>
    <path d="M 350.545175 224.344862 
L 361.211943 264.71881 
L 367.11965 271.677293 
L 356.480098 236.307731 
z
" clip-path="url(#p45e06919c3)" style="fill: #25ab82"/>
    <path d="M 253.153648 243.795561 
L 264.090075 223.898179 
L 270.549938 208.74442 
L 259.63433 238.430505 
z
" clip-path="url(#p45e06919c3)" style="fill: #35b779"/>
    <path d="M 138.017703 400.322034 
L 148.879866 403.794546 
L 155.586368 393.308183 
L 144.764584 390.742131 
z
" clip-path="url(#p45e06919c3)" style="fill: #3f4788"/>
    <path d="M 91.74396 403.4822 
L 102.54396 407.390349 
L 109.504851 400.502339 
L 98.727537 396.672104 
z
" clip-path="url(#p45e06919c3)" style="fill: #414487"/>
    <path d="M 155.586368 393.308183 
L 166.466102 396.341632 
L 172.97267 379.862977 
L 162.116688 377.846982 
z
" clip-path="url(#p45e06919c3)" style="fill: #3c4f8a"/>
    <path d="M 162.116688 377.846982 
L 172.97267 379.862977 
L 179.248818 354.604087 
L 168.41035 354.317567 
z
" clip-path="url(#p45e06919c3)" style="fill: #355f8d"/>
    <path d="M 120.318855 404.307738 
L 131.1706 408.103239 
L 138.017703 400.322034 
L 127.197356 396.90093 
z
" clip-path="url(#p45e06919c3)" style="fill: #414487"/>
    <path d="M 312.201201 168.692866 
L 323.507567 163.848385 
L 329.449326 195.628711 
L 318.266255 198.539192 
z
" clip-path="url(#p45e06919c3)" style="fill: #7ad151"/>
    <path d="M 334.705499 175.755842 
L 345.699388 201.971193 
L 351.463219 226.682573 
L 340.538692 205.627098 
z
" clip-path="url(#p45e06919c3)" style="fill: #5ac864"/>
    <path d="M 73.933108 406.366127 
L 84.71627 410.298863 
L 91.74396 403.4822 
L 80.981505 399.580058 
z
" clip-path="url(#p45e06919c3)" style="fill: #414487"/>
    <path d="M 364.676174 319.447403 
L 375.658725 339.803615 
L 381.470556 347.647006 
L 370.584093 326.821057 
z
" clip-path="url(#p45e06919c3)" style="fill: #2a768e"/>
    <path d="M 102.54396 407.390349 
L 113.381721 411.303469 
L 120.318855 404.307738 
L 109.504851 400.502339 
z
" clip-path="url(#p45e06919c3)" style="fill: #414487"/>
    <path d="M 148.879866 403.794546 
L 159.785229 407.366822 
L 166.466102 396.341632 
L 155.586368 393.308183 
z
" clip-path="url(#p45e06919c3)" style="fill: #3f4889"/>
    <path d="M 246.607871 246.598039 
L 257.628749 240.893879 
L 264.090075 223.898179 
L 253.153648 243.795561 
z
" clip-path="url(#p45e06919c3)" style="fill: #2fb47c"/>
    <path d="M 323.507567 163.848385 
L 334.705499 175.755842 
L 340.538692 205.627098 
L 329.449326 195.628711 
z
" clip-path="url(#p45e06919c3)" style="fill: #7ad151"/>
    <path d="M 163.924516 331.12236 
L 174.474468 321.454217 
L 180.446526 283.018159 
L 170.020123 300.333133 
z
" clip-path="url(#p45e06919c3)" style="fill: #24878e"/>
    <path d="M 166.466102 396.341632 
L 177.388713 399.387068 
L 183.903573 383.004962 
L 172.97267 379.862977 
z
" clip-path="url(#p45e06919c3)" style="fill: #3b518b"/>
    <path d="M 131.1706 408.103239 
L 142.061478 411.917946 
L 148.879866 403.794546 
L 138.017703 400.322034 
z
" clip-path="url(#p45e06919c3)" style="fill: #404588"/>
    <path d="M 228.832006 237.459649 
L 239.977656 246.171386 
L 246.607871 246.598039 
L 235.664208 251.475256 
z
" clip-path="url(#p45e06919c3)" style="fill: #2ab07f"/>
    <path d="M 402.824611 387.974478 
L 413.941174 400.882225 
L 419.872848 397.202251 
L 408.692835 387.964325 
z
" clip-path="url(#p45e06919c3)" style="fill: #3d4e8a"/>
    <path d="M 172.97267 379.862977 
L 183.903573 383.004962 
L 190.233043 358.846942 
L 179.248818 354.604087 
z
" clip-path="url(#p45e06919c3)" style="fill: #34608d"/>
    <path d="M 168.41035 354.317567 
L 179.248818 354.604087 
L 185.304675 319.149184 
L 174.474468 321.454217 
z
" clip-path="url(#p45e06919c3)" style="fill: #2a768e"/>
    <path d="M 84.71627 410.298863 
L 95.537403 414.243984 
L 102.54396 407.390349 
L 91.74396 403.4822 
z
" clip-path="url(#p45e06919c3)" style="fill: #414487"/>
    <path d="M 413.941174 400.882225 
L 425.197865 409.387781 
L 431.157903 403.773384 
L 419.872848 397.202251 
z
" clip-path="url(#p45e06919c3)" style="fill: #3f4889"/>
    <path d="M 391.838642 369.613342 
L 402.824611 387.974478 
L 408.692835 387.964325 
L 397.620341 375.149003 
z
" clip-path="url(#p45e06919c3)" style="fill: #38598c"/>
    <path d="M 113.381721 411.303469 
L 124.257637 415.22484 
L 131.1706 408.103239 
L 120.318855 404.307738 
z
" clip-path="url(#p45e06919c3)" style="fill: #414487"/>
    <path d="M 277.009331 200.60387 
L 288.168993 167.475215 
L 294.605398 170.830327 
L 283.438293 202.826176 
z
" clip-path="url(#p45e06919c3)" style="fill: #7fd34e"/>
    <path d="M 348.918681 267.672338 
L 359.745796 300.336576 
L 365.821325 299.819647 
L 355.133218 263.627299 
z
" clip-path="url(#p45e06919c3)" style="fill: #1f9a8a"/>
    <path d="M 159.785229 407.366822 
L 170.725267 410.745912 
L 177.388713 399.387068 
L 166.466102 396.341632 
z
" clip-path="url(#p45e06919c3)" style="fill: #3e4989"/>
    <path d="M 182.77216 257.68552 
L 193.08363 230.154034 
L 199.994349 232.226086 
L 189.645149 258.3808 
z
" clip-path="url(#p45e06919c3)" style="fill: #2eb37c"/>
    <path d="M 199.994349 232.226086 
L 210.771705 220.02778 
L 217.833639 237.411362 
L 207.114911 249.713177 
z
" clip-path="url(#p45e06919c3)" style="fill: #38b977"/>
    <path d="M 353.668149 297.638982 
L 364.676174 319.447403 
L 370.584093 326.821057 
L 359.745796 300.336576 
z
" clip-path="url(#p45e06919c3)" style="fill: #23898e"/>
    <path d="M 142.061478 411.917946 
L 152.991517 415.747609 
L 159.785229 407.366822 
L 148.879866 403.794546 
z
" clip-path="url(#p45e06919c3)" style="fill: #404588"/>
    <path d="M 239.977656 246.171386 
L 251.147395 256.294583 
L 257.628749 240.893879 
L 246.607871 246.598039 
z
" clip-path="url(#p45e06919c3)" style="fill: #2db27d"/>
    <path d="M 177.388713 399.387068 
L 188.316091 400.793146 
L 194.843289 384.600364 
L 183.903573 383.004962 
z
" clip-path="url(#p45e06919c3)" style="fill: #3b528b"/>
    <path d="M 183.903573 383.004962 
L 194.843289 384.600364 
L 201.259125 363.364253 
L 190.233043 358.846942 
z
" clip-path="url(#p45e06919c3)" style="fill: #34618d"/>
    <path d="M 380.913094 346.910407 
L 391.838642 369.613342 
L 397.620341 375.149003 
L 386.626141 358.74997 
z
" clip-path="url(#p45e06919c3)" style="fill: #31678e"/>
    <path d="M 95.537403 414.243984 
L 106.396711 418.201345 
L 113.381721 411.303469 
L 102.54396 407.390349 
z
" clip-path="url(#p45e06919c3)" style="fill: #414487"/>
    <path d="M 179.248818 354.604087 
L 190.233043 358.846942 
L 196.390183 325.707162 
L 185.304675 319.149184 
z
" clip-path="url(#p45e06919c3)" style="fill: #2a778e"/>
    <path d="M 124.257637 415.22484 
L 135.172155 419.160043 
L 142.061478 411.917946 
L 131.1706 408.103239 
z
" clip-path="url(#p45e06919c3)" style="fill: #414487"/>
    <path d="M 294.605398 170.830327 
L 305.949445 148.029264 
L 312.201201 168.692866 
L 300.924392 187.759229 
z
" clip-path="url(#p45e06919c3)" style="fill: #a0da39"/>
    <path d="M 249.439828 309.210723 
L 260.628658 322.983282 
L 267.05908 299.34234 
L 255.883382 288.542274 
z
" clip-path="url(#p45e06919c3)" style="fill: #218e8d"/>
    <path d="M 170.020123 300.333133 
L 180.446526 283.018159 
L 186.575965 248.782746 
L 176.239525 272.956316 
z
" clip-path="url(#p45e06919c3)" style="fill: #1fa188"/>
    <path d="M 344.385065 222.207055 
L 355.133218 263.627299 
L 361.211943 264.71881 
L 350.545175 224.344862 
z
" clip-path="url(#p45e06919c3)" style="fill: #32b67a"/>
    <path d="M 242.947096 324.527351 
L 254.130232 335.462692 
L 260.628658 322.983282 
L 249.439828 309.210723 
z
" clip-path="url(#p45e06919c3)" style="fill: #25838e"/>
    <path d="M 170.725267 410.745912 
L 181.681057 413.097452 
L 188.316091 400.793146 
L 177.388713 399.387068 
z
" clip-path="url(#p45e06919c3)" style="fill: #3e4989"/>
    <path d="M 339.712002 185.041481 
L 350.545175 224.344862 
L 356.480098 236.307731 
L 345.699388 201.971193 
z
" clip-path="url(#p45e06919c3)" style="fill: #5ac864"/>
    <path d="M 260.628658 322.983282 
L 271.782176 329.560743 
L 278.229264 304.965483 
L 267.05908 299.34234 
z
" clip-path="url(#p45e06919c3)" style="fill: #23898e"/>
    <path d="M 152.991517 415.747609 
L 163.957026 419.45917 
L 170.725267 410.745912 
L 159.785229 407.366822 
z
" clip-path="url(#p45e06919c3)" style="fill: #404588"/>
    <path d="M 190.233043 358.846942 
L 201.259125 363.364253 
L 207.578681 336.555826 
L 196.390183 325.707162 
z
" clip-path="url(#p45e06919c3)" style="fill: #2b748e"/>
    <path d="M 254.130232 335.462692 
L 265.289604 340.872016 
L 271.782176 329.560743 
L 260.628658 322.983282 
z
" clip-path="url(#p45e06919c3)" style="fill: #277f8e"/>
    <path d="M 106.396711 418.201345 
L 117.294434 422.171595 
L 124.257637 415.22484 
L 113.381721 411.303469 
z
" clip-path="url(#p45e06919c3)" style="fill: #414487"/>
    <path d="M 176.239525 272.956316 
L 186.575965 248.782746 
L 193.08363 230.154034 
L 182.77216 257.68552 
z
" clip-path="url(#p45e06919c3)" style="fill: #2cb17e"/>
    <path d="M 244.641815 270.453397 
L 255.883382 288.542274 
L 262.304888 262.953184 
L 251.147395 256.294583 
z
" clip-path="url(#p45e06919c3)" style="fill: #22a785"/>
    <path d="M 407.982607 403.97243 
L 419.205561 414.80236 
L 425.197865 409.387781 
L 413.941174 400.882225 
z
" clip-path="url(#p45e06919c3)" style="fill: #3e4a89"/>
    <path d="M 238.135024 286.026051 
L 249.439828 309.210723 
L 255.883382 288.542274 
L 244.641815 270.453397 
z
" clip-path="url(#p45e06919c3)" style="fill: #1e9b8a"/>
    <path d="M 369.939575 323.495956 
L 380.913094 346.910407 
L 386.626141 358.74997 
L 375.658725 339.803615 
z
" clip-path="url(#p45e06919c3)" style="fill: #2a788e"/>
    <path d="M 255.883382 288.542274 
L 267.05908 299.34234 
L 273.477692 266.314762 
L 262.304888 262.953184 
z
" clip-path="url(#p45e06919c3)" style="fill: #1fa188"/>
    <path d="M 251.147395 256.294583 
L 262.304888 262.953184 
L 268.73079 233.522195 
L 257.628749 240.893879 
z
" clip-path="url(#p45e06919c3)" style="fill: #31b57b"/>
    <path d="M 396.937754 386.630628 
L 407.982607 403.97243 
L 413.941174 400.882225 
L 402.824611 387.974478 
z
" clip-path="url(#p45e06919c3)" style="fill: #3a548c"/>
    <path d="M 135.172155 419.160043 
L 146.125287 423.103331 
L 152.991517 415.747609 
L 142.061478 411.917946 
z
" clip-path="url(#p45e06919c3)" style="fill: #414487"/>
    <path d="M 174.474468 321.454217 
L 185.304675 319.149184 
L 191.275964 277.44112 
L 180.446526 283.018159 
z
" clip-path="url(#p45e06919c3)" style="fill: #20938c"/>
    <path d="M 270.549938 208.74442 
L 281.675412 179.504154 
L 288.168993 167.475215 
L 277.009331 200.60387 
z
" clip-path="url(#p45e06919c3)" style="fill: #84d44b"/>
    <path d="M 231.651136 304.426412 
L 242.947096 324.527351 
L 249.439828 309.210723 
L 238.135024 286.026051 
z
" clip-path="url(#p45e06919c3)" style="fill: #21918c"/>
    <path d="M 194.843289 384.600364 
L 205.733556 380.910514 
L 212.226873 362.474674 
L 201.259125 363.364253 
z
" clip-path="url(#p45e06919c3)" style="fill: #32648e"/>
    <path d="M 233.301508 247.057399 
L 244.641815 270.453397 
L 251.147395 256.294583 
L 239.977656 246.171386 
z
" clip-path="url(#p45e06919c3)" style="fill: #2cb17e"/>
    <path d="M 188.316091 400.793146 
L 199.217247 398.407463 
L 205.733556 380.910514 
L 194.843289 384.600364 
z
" clip-path="url(#p45e06919c3)" style="fill: #38588c"/>
    <path d="M 201.259125 363.364253 
L 212.226873 362.474674 
L 218.712498 343.778406 
L 207.578681 336.555826 
z
" clip-path="url(#p45e06919c3)" style="fill: #2c728e"/>
    <path d="M 271.782176 329.560743 
L 282.958118 330.594426 
L 289.433319 306.877277 
L 278.229264 304.965483 
z
" clip-path="url(#p45e06919c3)" style="fill: #23898e"/>
    <path d="M 257.628749 240.893879 
L 268.73079 233.522195 
L 275.185722 203.66611 
L 264.090075 223.898179 
z
" clip-path="url(#p45e06919c3)" style="fill: #4ec36b"/>
    <path d="M 342.639237 273.209574 
L 353.668149 297.638982 
L 359.745796 300.336576 
L 348.918681 267.672338 
z
" clip-path="url(#p45e06919c3)" style="fill: #1f9f88"/>
    <path d="M 210.771705 220.02778 
L 221.94258 226.674906 
L 228.832006 237.459649 
L 217.833639 237.411362 
z
" clip-path="url(#p45e06919c3)" style="fill: #48c16e"/>
    <path d="M 225.184764 324.326934 
L 236.382801 334.749797 
L 242.947096 324.527351 
L 231.651136 304.426412 
z
" clip-path="url(#p45e06919c3)" style="fill: #24868e"/>
    <path d="M 236.382801 334.749797 
L 247.522326 338.03012 
L 254.130232 335.462692 
L 242.947096 324.527351 
z
" clip-path="url(#p45e06919c3)" style="fill: #27808e"/>
    <path d="M 163.957026 419.45917 
L 174.9503 422.715608 
L 181.681057 413.097452 
L 170.725267 410.745912 
z
" clip-path="url(#p45e06919c3)" style="fill: #404688"/>
    <path d="M 265.289604 340.872016 
L 276.473904 343.130748 
L 282.958118 330.594426 
L 271.782176 329.560743 
z
" clip-path="url(#p45e06919c3)" style="fill: #277f8e"/>
    <path d="M 264.090075 223.898179 
L 275.185722 203.66611 
L 281.675412 179.504154 
L 270.549938 208.74442 
z
" clip-path="url(#p45e06919c3)" style="fill: #6ece58"/>
    <path d="M 267.05908 299.34234 
L 278.229264 304.965483 
L 284.691892 269.363143 
L 273.477692 266.314762 
z
" clip-path="url(#p45e06919c3)" style="fill: #1fa088"/>
    <path d="M 117.294434 422.171595 
L 128.230816 426.155635 
L 135.172155 419.160043 
L 124.257637 415.22484 
z
" clip-path="url(#p45e06919c3)" style="fill: #414487"/>
    <path d="M 221.94258 226.674906 
L 233.301508 247.057399 
L 239.977656 246.171386 
L 228.832006 237.459649 
z
" clip-path="url(#p45e06919c3)" style="fill: #3dbc74"/>
    <path d="M 181.681057 413.097452 
L 192.637995 413.383452 
L 199.217247 398.407463 
L 188.316091 400.793146 
z
" clip-path="url(#p45e06919c3)" style="fill: #3d4e8a"/>
    <path d="M 207.578681 336.555826 
L 218.712498 343.778406 
L 225.184764 324.326934 
L 213.8582 305.935032 
z
" clip-path="url(#p45e06919c3)" style="fill: #25848e"/>
    <path d="M 386.047659 361.511036 
L 396.937754 386.630628 
L 402.824611 387.974478 
L 391.838642 369.613342 
z
" clip-path="url(#p45e06919c3)" style="fill: #32648e"/>
    <path d="M 146.125287 423.103331 
L 157.115887 427.00954 
L 163.957026 419.45917 
L 152.991517 415.747609 
z
" clip-path="url(#p45e06919c3)" style="fill: #414487"/>
    <path d="M 358.840136 303.531097 
L 369.939575 323.495956 
L 375.658725 339.803615 
L 364.676174 319.447403 
z
" clip-path="url(#p45e06919c3)" style="fill: #23898e"/>
    <path d="M 218.712498 343.778406 
L 229.760003 342.760448 
L 236.382801 334.749797 
L 225.184764 324.326934 
z
" clip-path="url(#p45e06919c3)" style="fill: #277f8e"/>
    <path d="M 196.390183 325.707162 
L 207.578681 336.555826 
L 213.8582 305.935032 
L 202.481764 286.870062 
z
" clip-path="url(#p45e06919c3)" style="fill: #218e8d"/>
    <path d="M 185.304675 319.149184 
L 196.390183 325.707162 
L 202.481764 286.870062 
L 191.275964 277.44112 
z
" clip-path="url(#p45e06919c3)" style="fill: #1f958b"/>
    <path d="M 247.522326 338.03012 
L 258.699136 340.478122 
L 265.289604 340.872016 
L 254.130232 335.462692 
z
" clip-path="url(#p45e06919c3)" style="fill: #277f8e"/>
    <path d="M 226.67797 256.154488 
L 238.135024 286.026051 
L 244.641815 270.453397 
L 233.301508 247.057399 
z
" clip-path="url(#p45e06919c3)" style="fill: #27ad81"/>
    <path d="M 338.033734 230.491252 
L 348.918681 267.672338 
L 355.133218 263.627299 
L 344.385065 222.207055 
z
" clip-path="url(#p45e06919c3)" style="fill: #38b977"/>
    <path d="M 262.304888 262.953184 
L 273.477692 266.314762 
L 279.930979 227.486804 
L 268.73079 233.522195 
z
" clip-path="url(#p45e06919c3)" style="fill: #37b878"/>
    <path d="M 213.8582 305.935032 
L 225.184764 324.326934 
L 231.651136 304.426412 
L 220.196332 276.848706 
z
" clip-path="url(#p45e06919c3)" style="fill: #1f958b"/>
    <path d="M 278.229264 304.965483 
L 289.433319 306.877277 
L 295.945926 273.756357 
L 284.691892 269.363143 
z
" clip-path="url(#p45e06919c3)" style="fill: #1fa088"/>
    <path d="M 128.230816 426.155635 
L 139.205991 430.151427 
L 146.125287 423.103331 
L 135.172155 419.160043 
z
" clip-path="url(#p45e06919c3)" style="fill: #414487"/>
    <path d="M 174.9503 422.715608 
L 185.965542 425.109643 
L 192.637995 413.383452 
L 181.681057 413.097452 
z
" clip-path="url(#p45e06919c3)" style="fill: #3f4889"/>
    <path d="M 401.960044 407.671869 
L 413.165218 420.479007 
L 419.205561 414.80236 
L 407.982607 403.97243 
z
" clip-path="url(#p45e06919c3)" style="fill: #3d4e8a"/>
    <path d="M 220.196332 276.848706 
L 231.651136 304.426412 
L 238.135024 286.026051 
L 226.67797 256.154488 
z
" clip-path="url(#p45e06919c3)" style="fill: #20a486"/>
    <path d="M 212.226873 362.474674 
L 223.14421 353.782079 
L 229.760003 342.760448 
L 218.712498 343.778406 
z
" clip-path="url(#p45e06919c3)" style="fill: #2a788e"/>
    <path d="M 157.115887 427.00954 
L 168.141526 430.771168 
L 174.9503 422.715608 
L 163.957026 419.45917 
z
" clip-path="url(#p45e06919c3)" style="fill: #404588"/>
    <path d="M 328.639225 155.083711 
L 339.712002 185.041481 
L 345.699388 201.971193 
L 334.705499 175.755842 
z
" clip-path="url(#p45e06919c3)" style="fill: #a0da39"/>
    <path d="M 282.958118 330.594426 
L 294.204758 324.398398 
L 300.706658 303.587336 
L 289.433319 306.877277 
z
" clip-path="url(#p45e06919c3)" style="fill: #218e8d"/>
    <path d="M 193.08363 230.154034 
L 203.897651 218.961772 
L 210.771705 220.02778 
L 199.994349 232.226086 
z
" clip-path="url(#p45e06919c3)" style="fill: #56c667"/>
    <path d="M 347.621052 288.514708 
L 358.840136 303.531097 
L 364.676174 319.447403 
L 353.668149 297.638982 
z
" clip-path="url(#p45e06919c3)" style="fill: #1f988b"/>
    <path d="M 305.949445 148.029264 
L 317.346519 141.778659 
L 323.507567 163.848385 
L 312.201201 168.692866 
z
" clip-path="url(#p45e06919c3)" style="fill: #cde11d"/>
    <path d="M 276.473904 343.130748 
L 287.710347 339.839041 
L 294.204758 324.398398 
L 282.958118 330.594426 
z
" clip-path="url(#p45e06919c3)" style="fill: #25838e"/>
    <path d="M 258.699136 340.478122 
L 269.933022 345.738379 
L 276.473904 343.130748 
L 265.289604 340.872016 
z
" clip-path="url(#p45e06919c3)" style="fill: #277f8e"/>
    <path d="M 205.733556 380.910514 
L 216.600589 370.944534 
L 223.14421 353.782079 
L 212.226873 362.474674 
z
" clip-path="url(#p45e06919c3)" style="fill: #2e6f8e"/>
    <path d="M 390.95879 386.551908 
L 401.960044 407.671869 
L 407.982607 403.97243 
L 396.937754 386.630628 
z
" clip-path="url(#p45e06919c3)" style="fill: #375b8d"/>
    <path d="M 180.446526 283.018159 
L 191.275964 277.44112 
L 197.404073 239.939809 
L 186.575965 248.782746 
z
" clip-path="url(#p45e06919c3)" style="fill: #2db27d"/>
    <path d="M 229.760003 342.760448 
L 240.825105 337.186297 
L 247.522326 338.03012 
L 236.382801 334.749797 
z
" clip-path="url(#p45e06919c3)" style="fill: #26828e"/>
    <path d="M 199.217247 398.407463 
L 210.117415 391.930133 
L 216.600589 370.944534 
L 205.733556 380.910514 
z
" clip-path="url(#p45e06919c3)" style="fill: #33638d"/>
    <path d="M 375.196997 331.014017 
L 386.047659 361.511036 
L 391.838642 369.613342 
L 380.913094 346.910407 
z
" clip-path="url(#p45e06919c3)" style="fill: #2a788e"/>
    <path d="M 192.637995 413.383452 
L 203.611947 411.551973 
L 210.117415 391.930133 
L 199.217247 398.407463 
z
" clip-path="url(#p45e06919c3)" style="fill: #39568c"/>
    <path d="M 139.205991 430.151427 
L 150.219803 434.147309 
L 157.115887 427.00954 
L 146.125287 423.103331 
z
" clip-path="url(#p45e06919c3)" style="fill: #414487"/>
    <path d="M 289.433319 306.877277 
L 300.706658 303.587336 
L 307.238209 277.837743 
L 295.945926 273.756357 
z
" clip-path="url(#p45e06919c3)" style="fill: #1fa188"/>
    <path d="M 331.572586 245.828751 
L 342.639237 273.209574 
L 348.918681 267.672338 
L 338.033734 230.491252 
z
" clip-path="url(#p45e06919c3)" style="fill: #35b779"/>
    <path d="M 333.467698 181.737409 
L 344.385065 222.207055 
L 350.545175 224.344862 
L 339.712002 185.041481 
z
" clip-path="url(#p45e06919c3)" style="fill: #7fd34e"/>
    <path d="M 273.477692 266.314762 
L 284.691892 269.363143 
L 291.212922 227.224563 
L 279.930979 227.486804 
z
" clip-path="url(#p45e06919c3)" style="fill: #3dbc74"/>
    <path d="M 288.168993 167.475215 
L 299.525229 143.719205 
L 305.949445 148.029264 
L 294.605398 170.830327 
z
" clip-path="url(#p45e06919c3)" style="fill: #d0e11c"/>
    <path d="M 202.481764 286.870062 
L 213.8582 305.935032 
L 220.196332 276.848706 
L 208.692759 251.280306 
z
" clip-path="url(#p45e06919c3)" style="fill: #22a884"/>
    <path d="M 336.35004 276.166978 
L 347.621052 288.514708 
L 353.668149 297.638982 
L 342.639237 273.209574 
z
" clip-path="url(#p45e06919c3)" style="fill: #21a585"/>
    <path d="M 168.141526 430.771168 
L 179.20041 434.260518 
L 185.965542 425.109643 
L 174.9503 422.715608 
z
" clip-path="url(#p45e06919c3)" style="fill: #404588"/>
    <path d="M 215.178599 229.612463 
L 226.67797 256.154488 
L 233.301508 247.057399 
L 221.94258 226.674906 
z
" clip-path="url(#p45e06919c3)" style="fill: #48c16e"/>
    <path d="M 317.346519 141.778659 
L 328.639225 155.083711 
L 334.705499 175.755842 
L 323.507567 163.848385 
z
" clip-path="url(#p45e06919c3)" style="fill: #cde11d"/>
    <path d="M 185.965542 425.109643 
L 197.010081 426.644521 
L 203.611947 411.551973 
L 192.637995 413.383452 
z
" clip-path="url(#p45e06919c3)" style="fill: #3d4d8a"/>
    <path d="M 268.73079 233.522195 
L 279.930979 227.486804 
L 286.442138 188.834066 
L 275.185722 203.66611 
z
" clip-path="url(#p45e06919c3)" style="fill: #6ece58"/>
    <path d="M 186.575965 248.782746 
L 197.404073 239.939809 
L 203.897651 218.961772 
L 193.08363 230.154034 
z
" clip-path="url(#p45e06919c3)" style="fill: #52c569"/>
    <path d="M 269.933022 345.738379 
L 281.198736 350.168366 
L 287.710347 339.839041 
L 276.473904 343.130748 
z
" clip-path="url(#p45e06919c3)" style="fill: #27808e"/>
    <path d="M 150.219803 434.147309 
L 161.271764 438.116407 
L 168.141526 430.771168 
L 157.115887 427.00954 
z
" clip-path="url(#p45e06919c3)" style="fill: #414487"/>
    <path d="M 191.275964 277.44112 
L 202.481764 286.870062 
L 208.692759 251.280306 
L 197.404073 239.939809 
z
" clip-path="url(#p45e06919c3)" style="fill: #2fb47c"/>
    <path d="M 395.838668 413.349411 
L 407.061811 426.942604 
L 413.165218 420.479007 
L 401.960044 407.671869 
z
" clip-path="url(#p45e06919c3)" style="fill: #3c4f8a"/>
    <path d="M 203.897651 218.961772 
L 215.178599 229.612463 
L 221.94258 226.674906 
L 210.771705 220.02778 
z
" clip-path="url(#p45e06919c3)" style="fill: #63cb5f"/>
    <path d="M 284.691892 269.363143 
L 295.945926 273.756357 
L 302.523258 234.823314 
L 291.212922 227.224563 
z
" clip-path="url(#p45e06919c3)" style="fill: #3dbc74"/>
    <path d="M 208.692759 251.280306 
L 220.196332 276.848706 
L 226.67797 256.154488 
L 215.178599 229.612463 
z
" clip-path="url(#p45e06919c3)" style="fill: #3bbb75"/>
    <path d="M 240.825105 337.186297 
L 252.015929 336.244508 
L 258.699136 340.478122 
L 247.522326 338.03012 
z
" clip-path="url(#p45e06919c3)" style="fill: #25858e"/>
    <path d="M 380.12581 355.651494 
L 390.95879 386.551908 
L 396.937754 386.630628 
L 386.047659 361.511036 
z
" clip-path="url(#p45e06919c3)" style="fill: #2e6f8e"/>
    <path d="M 325.081289 263.018857 
L 336.35004 276.166978 
L 342.639237 273.209574 
L 331.572586 245.828751 
z
" clip-path="url(#p45e06919c3)" style="fill: #2fb47c"/>
    <path d="M 223.14421 353.782079 
L 234.138858 342.705215 
L 240.825105 337.186297 
L 229.760003 342.760448 
z
" clip-path="url(#p45e06919c3)" style="fill: #26828e"/>
    <path d="M 179.20041 434.260518 
L 190.295187 437.483148 
L 197.010081 426.644521 
L 185.965542 425.109643 
z
" clip-path="url(#p45e06919c3)" style="fill: #404688"/>
    <path d="M 295.945926 273.756357 
L 307.238209 277.837743 
L 313.814153 248.231347 
L 302.523258 234.823314 
z
" clip-path="url(#p45e06919c3)" style="fill: #37b878"/>
    <path d="M 384.819755 390.754394 
L 395.838668 413.349411 
L 401.960044 407.671869 
L 390.95879 386.551908 
z
" clip-path="url(#p45e06919c3)" style="fill: #355f8d"/>
    <path d="M 364.21609 301.88089 
L 375.196997 331.014017 
L 380.913094 346.910407 
L 369.939575 323.495956 
z
" clip-path="url(#p45e06919c3)" style="fill: #218f8d"/>
    <path d="M 300.706658 303.587336 
L 312.105174 292.944282 
L 318.59535 278.605611 
L 307.238209 277.837743 
z
" clip-path="url(#p45e06919c3)" style="fill: #22a785"/>
    <path d="M 161.271764 438.116407 
L 172.361549 442.027109 
L 179.20041 434.260518 
L 168.141526 430.771168 
z
" clip-path="url(#p45e06919c3)" style="fill: #414487"/>
    <path d="M 294.204758 324.398398 
L 305.591768 308.705006 
L 312.105174 292.944282 
L 300.706658 303.587336 
z
" clip-path="url(#p45e06919c3)" style="fill: #1e9b8a"/>
    <path d="M 203.611947 411.551973 
L 214.655635 409.685927 
L 221.108033 385.165671 
L 210.117415 391.930133 
z
" clip-path="url(#p45e06919c3)" style="fill: #355f8d"/>
    <path d="M 197.010081 426.644521 
L 208.107568 428.199375 
L 214.655635 409.685927 
L 203.611947 411.551973 
z
" clip-path="url(#p45e06919c3)" style="fill: #3b518b"/>
    <path d="M 275.185722 203.66611 
L 286.442138 188.834066 
L 292.99436 158.418816 
L 281.675412 179.504154 
z
" clip-path="url(#p45e06919c3)" style="fill: #addc30"/>
    <path d="M 307.238209 277.837743 
L 318.59535 278.605611 
L 325.081289 263.018857 
L 313.814153 248.231347 
z
" clip-path="url(#p45e06919c3)" style="fill: #31b57b"/>
    <path d="M 197.404073 239.939809 
L 208.692759 251.280306 
L 215.178599 229.612463 
L 203.897651 218.961772 
z
" clip-path="url(#p45e06919c3)" style="fill: #58c765"/>
    <path d="M 281.675412 179.504154 
L 292.99436 158.418816 
L 299.525229 143.719205 
L 288.168993 167.475215 
z
" clip-path="url(#p45e06919c3)" style="fill: #d5e21a"/>
    <path d="M 327.006747 193.87735 
L 338.033734 230.491252 
L 344.385065 222.207055 
L 333.467698 181.737409 
z
" clip-path="url(#p45e06919c3)" style="fill: #84d44b"/>
    <path d="M 252.015929 336.244508 
L 263.321446 344.929233 
L 269.933022 345.738379 
L 258.699136 340.478122 
z
" clip-path="url(#p45e06919c3)" style="fill: #25858e"/>
    <path d="M 287.710347 339.839041 
L 299.056581 327.308894 
L 305.591768 308.705006 
L 294.204758 324.398398 
z
" clip-path="url(#p45e06919c3)" style="fill: #21918c"/>
    <path d="M 210.117415 391.930133 
L 221.108033 385.165671 
L 227.567247 359.991983 
L 216.600589 370.944534 
z
" clip-path="url(#p45e06919c3)" style="fill: #2e6f8e"/>
    <path d="M 216.600589 370.944534 
L 227.567247 359.991983 
L 234.138858 342.705215 
L 223.14421 353.782079 
z
" clip-path="url(#p45e06919c3)" style="fill: #287c8e"/>
    <path d="M 313.814153 248.231347 
L 325.081289 263.018857 
L 331.572586 245.828751 
L 320.423064 218.196973 
z
" clip-path="url(#p45e06919c3)" style="fill: #4ec36b"/>
    <path d="M 263.321446 344.929233 
L 274.652696 358.278961 
L 281.198736 350.168366 
L 269.933022 345.738379 
z
" clip-path="url(#p45e06919c3)" style="fill: #26828e"/>
    <path d="M 389.610689 421.625402 
L 400.891479 434.430514 
L 407.061811 426.942604 
L 395.838668 413.349411 
z
" clip-path="url(#p45e06919c3)" style="fill: #3c4f8a"/>
    <path d="M 281.198736 350.168366 
L 292.515067 347.420918 
L 299.056581 327.308894 
L 287.710347 339.839041 
z
" clip-path="url(#p45e06919c3)" style="fill: #24868e"/>
    <path d="M 318.59535 278.605611 
L 330.046226 275.873035 
L 336.35004 276.166978 
L 325.081289 263.018857 
z
" clip-path="url(#p45e06919c3)" style="fill: #2db27d"/>
    <path d="M 190.295187 437.483148 
L 201.434192 440.726678 
L 208.107568 428.199375 
L 197.010081 426.644521 
z
" clip-path="url(#p45e06919c3)" style="fill: #3e4989"/>
    <path d="M 320.423064 218.196973 
L 331.572586 245.828751 
L 338.033734 230.491252 
L 327.006747 193.87735 
z
" clip-path="url(#p45e06919c3)" style="fill: #6ece58"/>
    <path d="M 279.930979 227.486804 
L 291.212922 227.224563 
L 297.80034 185.430478 
L 286.442138 188.834066 
z
" clip-path="url(#p45e06919c3)" style="fill: #89d548"/>
    <path d="M 172.361549 442.027109 
L 183.490008 445.881503 
L 190.295187 437.483148 
L 179.20041 434.260518 
z
" clip-path="url(#p45e06919c3)" style="fill: #404588"/>
    <path d="M 322.316434 150.796887 
L 333.467698 181.737409 
L 339.712002 185.041481 
L 328.639225 155.083711 
z
" clip-path="url(#p45e06919c3)" style="fill: #d0e11c"/>
    <path d="M 352.991448 281.950533 
L 364.21609 301.88089 
L 369.939575 323.495956 
L 358.840136 303.531097 
z
" clip-path="url(#p45e06919c3)" style="fill: #1fa188"/>
    <path d="M 274.652696 358.278961 
L 285.974812 367.081535 
L 292.515067 347.420918 
L 281.198736 350.168366 
z
" clip-path="url(#p45e06919c3)" style="fill: #277f8e"/>
    <path d="M 208.107568 428.199375 
L 219.280525 431.174883 
L 225.817943 411.161 
L 214.655635 409.685927 
z
" clip-path="url(#p45e06919c3)" style="fill: #3a548c"/>
    <path d="M 378.507589 400.611348 
L 389.610689 421.625402 
L 395.838668 413.349411 
L 384.819755 390.754394 
z
" clip-path="url(#p45e06919c3)" style="fill: #355f8d"/>
    <path d="M 330.046226 275.873035 
L 341.554332 274.541371 
L 347.621052 288.514708 
L 336.35004 276.166978 
z
" clip-path="url(#p45e06919c3)" style="fill: #2ab07f"/>
    <path d="M 299.525229 143.719205 
L 310.960888 137.095227 
L 317.346519 141.778659 
L 305.949445 148.029264 
z
" clip-path="url(#p45e06919c3)" style="fill: #fde725"/>
    <path d="M 302.523258 234.823314 
L 313.814153 248.231347 
L 320.423064 218.196973 
L 309.157046 196.064297 
z
" clip-path="url(#p45e06919c3)" style="fill: #6ece58"/>
    <path d="M 234.138858 342.705215 
L 245.329048 339.756367 
L 252.015929 336.244508 
L 240.825105 337.186297 
z
" clip-path="url(#p45e06919c3)" style="fill: #228b8d"/>
    <path d="M 214.655635 409.685927 
L 225.817943 411.161 
L 232.272136 384.466203 
L 221.108033 385.165671 
z
" clip-path="url(#p45e06919c3)" style="fill: #32658e"/>
    <path d="M 369.310936 318.457912 
L 380.12581 355.651494 
L 386.047659 361.511036 
L 375.196997 331.014017 
z
" clip-path="url(#p45e06919c3)" style="fill: #238a8d"/>
    <path d="M 291.212922 227.224563 
L 302.523258 234.823314 
L 309.157046 196.064297 
L 297.80034 185.430478 
z
" clip-path="url(#p45e06919c3)" style="fill: #89d548"/>
    <path d="M 373.962231 357.648453 
L 384.819755 390.754394 
L 390.95879 386.551908 
L 380.12581 355.651494 
z
" clip-path="url(#p45e06919c3)" style="fill: #2a768e"/>
    <path d="M 201.434192 440.726678 
L 212.62559 444.445197 
L 219.280525 431.174883 
L 208.107568 428.199375 
z
" clip-path="url(#p45e06919c3)" style="fill: #3e4989"/>
    <path d="M 341.554332 274.541371 
L 352.991448 281.950533 
L 358.840136 303.531097 
L 347.621052 288.514708 
z
" clip-path="url(#p45e06919c3)" style="fill: #26ad81"/>
    <path d="M 183.490008 445.881503 
L 194.65954 449.752732 
L 201.434192 440.726678 
L 190.295187 437.483148 
z
" clip-path="url(#p45e06919c3)" style="fill: #404588"/>
    <path d="M 268.082135 369.411536 
L 279.433317 385.983147 
L 285.974812 367.081535 
L 274.652696 358.278961 
z
" clip-path="url(#p45e06919c3)" style="fill: #2a788e"/>
    <path d="M 383.301296 431.901771 
L 394.664276 442.714229 
L 400.891479 434.430514 
L 389.610689 421.625402 
z
" clip-path="url(#p45e06919c3)" style="fill: #3d4e8a"/>
    <path d="M 272.888388 404.62316 
L 284.222116 416.268209 
L 290.767841 394.741598 
L 279.433317 385.983147 
z
" clip-path="url(#p45e06919c3)" style="fill: #32648e"/>
    <path d="M 312.105174 292.944282 
L 323.670844 276.902625 
L 330.046226 275.873035 
L 318.59535 278.605611 
z
" clip-path="url(#p45e06919c3)" style="fill: #2cb17e"/>
    <path d="M 266.335698 422.319837 
L 277.673335 432.71834 
L 284.222116 416.268209 
L 272.888388 404.62316 
z
" clip-path="url(#p45e06919c3)" style="fill: #38588c"/>
    <path d="M 219.280525 431.174883 
L 230.527187 436.282195 
L 237.092185 417.700113 
L 225.817943 411.161 
z
" clip-path="url(#p45e06919c3)" style="fill: #3a548c"/>
    <path d="M 279.433317 385.983147 
L 290.767841 394.741598 
L 297.336052 367.604145 
L 285.974812 367.081535 
z
" clip-path="url(#p45e06919c3)" style="fill: #2c728e"/>
    <path d="M 256.687454 350.494188 
L 268.082135 369.411536 
L 274.652696 358.278961 
L 263.321446 344.929233 
z
" clip-path="url(#p45e06919c3)" style="fill: #26828e"/>
    <path d="M 261.518456 386.706306 
L 272.888388 404.62316 
L 279.433317 385.983147 
L 268.082135 369.411536 
z
" clip-path="url(#p45e06919c3)" style="fill: #2e6f8e"/>
    <path d="M 310.960888 137.095227 
L 322.316434 150.796887 
L 328.639225 155.083711 
L 317.346519 141.778659 
z
" clip-path="url(#p45e06919c3)" style="fill: #fde725"/>
    <path d="M 221.108033 385.165671 
L 232.272136 384.466203 
L 238.744237 357.346765 
L 227.567247 359.991983 
z
" clip-path="url(#p45e06919c3)" style="fill: #2a788e"/>
    <path d="M 254.97431 407.837136 
L 266.335698 422.319837 
L 272.888388 404.62316 
L 261.518456 386.706306 
z
" clip-path="url(#p45e06919c3)" style="fill: #33638d"/>
    <path d="M 245.329048 339.756367 
L 256.687454 350.494188 
L 263.321446 344.929233 
L 252.015929 336.244508 
z
" clip-path="url(#p45e06919c3)" style="fill: #228b8d"/>
    <path d="M 372.074693 414.79895 
L 383.301296 431.901771 
L 389.610689 421.625402 
L 378.507589 400.611348 
z
" clip-path="url(#p45e06919c3)" style="fill: #375b8d"/>
    <path d="M 277.673335 432.71834 
L 289.020577 439.315214 
L 295.568518 422.609852 
L 284.222116 416.268209 
z
" clip-path="url(#p45e06919c3)" style="fill: #3b528b"/>
    <path d="M 284.222116 416.268209 
L 295.568518 422.609852 
L 302.139718 398.064217 
L 290.767841 394.741598 
z
" clip-path="url(#p45e06919c3)" style="fill: #34618d"/>
    <path d="M 225.817943 411.161 
L 237.092185 417.700113 
L 243.593771 393.10127 
L 232.272136 384.466203 
z
" clip-path="url(#p45e06919c3)" style="fill: #32658e"/>
    <path d="M 248.422477 427.599621 
L 259.760985 437.483621 
L 266.335698 422.319837 
L 254.97431 407.837136 
z
" clip-path="url(#p45e06919c3)" style="fill: #39568c"/>
    <path d="M 227.567247 359.991983 
L 238.744237 357.346765 
L 245.329048 339.756367 
L 234.138858 342.705215 
z
" clip-path="url(#p45e06919c3)" style="fill: #24868e"/>
    <path d="M 212.62559 444.445197 
L 223.869282 448.868653 
L 230.527187 436.282195 
L 219.280525 431.174883 
z
" clip-path="url(#p45e06919c3)" style="fill: #3e4989"/>
    <path d="M 286.442138 188.834066 
L 297.80034 185.430478 
L 304.412336 152.757958 
L 292.99436 158.418816 
z
" clip-path="url(#p45e06919c3)" style="fill: #d5e21a"/>
    <path d="M 259.760985 437.483621 
L 271.100967 445.255548 
L 277.673335 432.71834 
L 266.335698 422.319837 
z
" clip-path="url(#p45e06919c3)" style="fill: #3d4e8a"/>
    <path d="M 237.092185 417.700113 
L 248.422477 427.599621 
L 254.97431 407.837136 
L 243.593771 393.10127 
z
" clip-path="url(#p45e06919c3)" style="fill: #355f8d"/>
    <path d="M 230.527187 436.282195 
L 241.82314 442.818266 
L 248.422477 427.599621 
L 237.092185 417.700113 
z
" clip-path="url(#p45e06919c3)" style="fill: #3b518b"/>
    <path d="M 309.157046 196.064297 
L 320.423064 218.196973 
L 327.006747 193.87735 
L 315.788442 165.557487 
z
" clip-path="url(#p45e06919c3)" style="fill: #addc30"/>
    <path d="M 285.974812 367.081535 
L 297.336052 367.604145 
L 303.944612 336.625678 
L 292.515067 347.420918 
z
" clip-path="url(#p45e06919c3)" style="fill: #25848e"/>
    <path d="M 194.65954 449.752732 
L 205.87256 453.755714 
L 212.62559 444.445197 
L 201.434192 440.726678 
z
" clip-path="url(#p45e06919c3)" style="fill: #404588"/>
    <path d="M 315.788442 165.557487 
L 327.006747 193.87735 
L 333.467698 181.737409 
L 322.316434 150.796887 
z
" clip-path="url(#p45e06919c3)" style="fill: #d5e21a"/>
    <path d="M 243.593771 393.10127 
L 254.97431 407.837136 
L 261.518456 386.706306 
L 250.105533 367.84759 
z
" clip-path="url(#p45e06919c3)" style="fill: #2e6f8e"/>
    <path d="M 292.99436 158.418816 
L 304.412336 152.757958 
L 310.960888 137.095227 
L 299.525229 143.719205 
z
" clip-path="url(#p45e06919c3)" style="fill: #fde725"/>
    <path d="M 250.105533 367.84759 
L 261.518456 386.706306 
L 268.082135 369.411536 
L 256.687454 350.494188 
z
" clip-path="url(#p45e06919c3)" style="fill: #287c8e"/>
    <path d="M 241.82314 442.818266 
L 253.146131 449.382586 
L 259.760985 437.483621 
L 248.422477 427.599621 
z
" clip-path="url(#p45e06919c3)" style="fill: #3d4d8a"/>
    <path d="M 271.100967 445.255548 
L 282.460046 450.957632 
L 289.020577 439.315214 
L 277.673335 432.71834 
z
" clip-path="url(#p45e06919c3)" style="fill: #3e4989"/>
    <path d="M 289.020577 439.315214 
L 300.400855 444.265561 
L 306.95132 427.397824 
L 295.568518 422.609852 
z
" clip-path="url(#p45e06919c3)" style="fill: #3b518b"/>
    <path d="M 367.539548 370.076714 
L 378.507589 400.611348 
L 384.819755 390.754394 
L 373.962231 357.648453 
z
" clip-path="url(#p45e06919c3)" style="fill: #2b758e"/>
    <path d="M 376.949602 442.812021 
L 388.396443 451.270506 
L 394.664276 442.714229 
L 383.301296 431.901771 
z
" clip-path="url(#p45e06919c3)" style="fill: #3e4a89"/>
    <path d="M 305.591768 308.705006 
L 317.176081 286.2049 
L 323.670844 276.902625 
L 312.105174 292.944282 
z
" clip-path="url(#p45e06919c3)" style="fill: #27ad81"/>
    <path d="M 232.272136 384.466203 
L 243.593771 393.10127 
L 250.105533 367.84759 
L 238.744237 357.346765 
z
" clip-path="url(#p45e06919c3)" style="fill: #2a788e"/>
    <path d="M 290.767841 394.741598 
L 302.139718 398.064217 
L 308.777849 364.458091 
L 297.336052 367.604145 
z
" clip-path="url(#p45e06919c3)" style="fill: #2b748e"/>
    <path d="M 295.568518 422.609852 
L 306.95132 427.397824 
L 313.55426 401.662445 
L 302.139718 398.064217 
z
" clip-path="url(#p45e06919c3)" style="fill: #34608d"/>
    <path d="M 365.599243 430.302796 
L 376.949602 442.812021 
L 383.301296 431.901771 
L 372.074693 414.79895 
z
" clip-path="url(#p45e06919c3)" style="fill: #3a538b"/>
    <path d="M 292.515067 347.420918 
L 303.944612 336.625678 
L 310.578002 307.18968 
L 299.056581 327.308894 
z
" clip-path="url(#p45e06919c3)" style="fill: #1f958b"/>
    <path d="M 223.869282 448.868653 
L 235.15708 453.769833 
L 241.82314 442.818266 
L 230.527187 436.282195 
z
" clip-path="url(#p45e06919c3)" style="fill: #3e4989"/>
    <path d="M 238.744237 357.346765 
L 250.105533 367.84759 
L 256.687454 350.494188 
L 245.329048 339.756367 
z
" clip-path="url(#p45e06919c3)" style="fill: #24868e"/>
    <path d="M 297.80034 185.430478 
L 309.157046 196.064297 
L 315.788442 165.557487 
L 304.412336 152.757958 
z
" clip-path="url(#p45e06919c3)" style="fill: #d5e21a"/>
    <path d="M 253.146131 449.382586 
L 264.491787 455.090546 
L 271.100967 445.255548 
L 259.760985 437.483621 
z
" clip-path="url(#p45e06919c3)" style="fill: #3f4889"/>
    <path d="M 299.056581 327.308894 
L 310.578002 307.18968 
L 317.176081 286.2049 
L 305.591768 308.705006 
z
" clip-path="url(#p45e06919c3)" style="fill: #20a486"/>
    <path d="M 205.87256 453.755714 
L 217.129293 457.948599 
L 223.869282 448.868653 
L 212.62559 444.445197 
z
" clip-path="url(#p45e06919c3)" style="fill: #404588"/>
    <path d="M 282.460046 450.957632 
L 293.853347 455.62803 
L 300.400855 444.265561 
L 289.020577 439.315214 
z
" clip-path="url(#p45e06919c3)" style="fill: #3e4989"/>
    <path d="M 360.949053 390.455127 
L 372.074693 414.79895 
L 378.507589 400.611348 
L 367.539548 370.076714 
z
" clip-path="url(#p45e06919c3)" style="fill: #2e6f8e"/>
    <path d="M 300.400855 444.265561 
L 311.817173 449.231616 
L 318.361661 433.327947 
L 306.95132 427.397824 
z
" clip-path="url(#p45e06919c3)" style="fill: #3c4f8a"/>
    <path d="M 304.412336 152.757958 
L 315.788442 165.557487 
L 322.316434 150.796887 
L 310.960888 137.095227 
z
" clip-path="url(#p45e06919c3)" style="fill: #fde725"/>
    <path d="M 306.95132 427.397824 
L 318.361661 433.327947 
L 324.973291 409.26295 
L 313.55426 401.662445 
z
" clip-path="url(#p45e06919c3)" style="fill: #355f8d"/>
    <path d="M 235.15708 453.769833 
L 246.48112 458.694837 
L 253.146131 449.382586 
L 241.82314 442.818266 
z
" clip-path="url(#p45e06919c3)" style="fill: #404688"/>
    <path d="M 354.320848 413.163783 
L 365.599243 430.302796 
L 372.074693 414.79895 
L 360.949053 390.455127 
z
" clip-path="url(#p45e06919c3)" style="fill: #33638d"/>
    <path d="M 359.135402 444.450892 
L 370.583613 453.136841 
L 376.949602 442.812021 
L 365.599243 430.302796 
z
" clip-path="url(#p45e06919c3)" style="fill: #3d4e8a"/>
    <path d="M 358.300374 284.410954 
L 369.310936 318.457912 
L 375.196997 331.014017 
L 364.21609 301.88089 
z
" clip-path="url(#p45e06919c3)" style="fill: #21a585"/>
    <path d="M 264.491787 455.090546 
L 275.86745 459.934833 
L 282.460046 450.957632 
L 271.100967 445.255548 
z
" clip-path="url(#p45e06919c3)" style="fill: #404688"/>
    <path d="M 347.74107 433.272573 
L 359.135402 444.450892 
L 365.599243 430.302796 
L 354.320848 413.163783 
z
" clip-path="url(#p45e06919c3)" style="fill: #39568c"/>
    <path d="M 323.670844 276.902625 
L 335.34942 263.827828 
L 341.554332 274.541371 
L 330.046226 275.873035 
z
" clip-path="url(#p45e06919c3)" style="fill: #3dbc74"/>
    <path d="M 318.361661 433.327947 
L 329.78581 440.806617 
L 336.366024 420.681501 
L 324.973291 409.26295 
z
" clip-path="url(#p45e06919c3)" style="fill: #375b8d"/>
    <path d="M 370.583613 453.136841 
L 382.099862 459.630897 
L 388.396443 451.270506 
L 376.949602 442.812021 
z
" clip-path="url(#p45e06919c3)" style="fill: #3f4788"/>
    <path d="M 363.105279 318.032141 
L 373.962231 357.648453 
L 380.12581 355.651494 
L 369.310936 318.457912 
z
" clip-path="url(#p45e06919c3)" style="fill: #1f948c"/>
    <path d="M 302.139718 398.064217 
L 313.55426 401.662445 
L 320.26308 365.62324 
L 308.777849 364.458091 
z
" clip-path="url(#p45e06919c3)" style="fill: #2a778e"/>
    <path d="M 217.129293 457.948599 
L 228.427727 462.274048 
L 235.15708 453.769833 
L 223.869282 448.868653 
z
" clip-path="url(#p45e06919c3)" style="fill: #404588"/>
    <path d="M 311.817173 449.231616 
L 323.265355 454.674855 
L 329.78581 440.806617 
L 318.361661 433.327947 
z
" clip-path="url(#p45e06919c3)" style="fill: #3d4e8a"/>
    <path d="M 329.78581 440.806617 
L 341.225311 448.793449 
L 347.74107 433.272573 
L 336.366024 420.681501 
z
" clip-path="url(#p45e06919c3)" style="fill: #3a538b"/>
    <path d="M 293.853347 455.62803 
L 305.285574 460.105647 
L 311.817173 449.231616 
L 300.400855 444.265561 
z
" clip-path="url(#p45e06919c3)" style="fill: #3f4889"/>
    <path d="M 336.366024 420.681501 
L 347.74107 433.272573 
L 354.320848 413.163783 
L 343.048058 393.362262 
z
" clip-path="url(#p45e06919c3)" style="fill: #33638d"/>
    <path d="M 246.48112 458.694837 
L 257.839607 463.354396 
L 264.491787 455.090546 
L 253.146131 449.382586 
z
" clip-path="url(#p45e06919c3)" style="fill: #404588"/>
    <path d="M 341.225311 448.793449 
L 352.695035 456.145177 
L 359.135402 444.450892 
L 347.74107 433.272573 
z
" clip-path="url(#p45e06919c3)" style="fill: #3d4e8a"/>
    <path d="M 297.336052 367.604145 
L 308.777849 364.458091 
L 315.500382 325.098775 
L 303.944612 336.625678 
z
" clip-path="url(#p45e06919c3)" style="fill: #218e8d"/>
    <path d="M 275.86745 459.934833 
L 287.280364 464.322588 
L 293.853347 455.62803 
L 282.460046 450.957632 
z
" clip-path="url(#p45e06919c3)" style="fill: #404588"/>
    <path d="M 323.265355 454.674855 
L 334.745327 460.296495 
L 341.225311 448.793449 
L 329.78581 440.806617 
z
" clip-path="url(#p45e06919c3)" style="fill: #3e4a89"/>
    <path d="M 324.973291 409.26295 
L 336.366024 420.681501 
L 343.048058 393.362262 
L 331.704304 375.750015 
z
" clip-path="url(#p45e06919c3)" style="fill: #2e6f8e"/>
    <path d="M 352.695035 456.145177 
L 364.210148 462.369252 
L 370.583613 453.136841 
L 359.135402 444.450892 
z
" clip-path="url(#p45e06919c3)" style="fill: #3f4889"/>
    <path d="M 313.55426 401.662445 
L 324.973291 409.26295 
L 331.704304 375.750015 
L 320.26308 365.62324 
z
" clip-path="url(#p45e06919c3)" style="fill: #2a768e"/>
    <path d="M 228.427727 462.274048 
L 239.765838 466.617313 
L 246.48112 458.694837 
L 235.15708 453.769833 
z
" clip-path="url(#p45e06919c3)" style="fill: #404588"/>
    <path d="M 343.048058 393.362262 
L 354.320848 413.163783 
L 360.949053 390.455127 
L 349.817738 361.856301 
z
" clip-path="url(#p45e06919c3)" style="fill: #2b758e"/>
    <path d="M 305.285574 460.105647 
L 316.756353 464.68637 
L 323.265355 454.674855 
L 311.817173 449.231616 
z
" clip-path="url(#p45e06919c3)" style="fill: #3f4788"/>
    <path d="M 257.839607 463.354396 
L 269.235041 467.74172 
L 275.86745 459.934833 
L 264.491787 455.090546 
z
" clip-path="url(#p45e06919c3)" style="fill: #404588"/>
    <path d="M 334.745327 460.296495 
L 346.262136 465.680302 
L 352.695035 456.145177 
L 341.225311 448.793449 
z
" clip-path="url(#p45e06919c3)" style="fill: #3f4788"/>
    <path d="M 364.210148 462.369252 
L 375.777531 467.599567 
L 382.099862 459.630897 
L 370.583613 453.136841 
z
" clip-path="url(#p45e06919c3)" style="fill: #404588"/>
    <path d="M 346.96016 264.579161 
L 358.300374 284.410954 
L 364.21609 301.88089 
L 352.991448 281.950533 
z
" clip-path="url(#p45e06919c3)" style="fill: #38b977"/>
    <path d="M 287.280364 464.322588 
L 298.733521 468.592512 
L 305.285574 460.105647 
L 293.853347 455.62803 
z
" clip-path="url(#p45e06919c3)" style="fill: #404588"/>
    <path d="M 335.34942 263.827828 
L 346.96016 264.579161 
L 352.991448 281.950533 
L 341.554332 274.541371 
z
" clip-path="url(#p45e06919c3)" style="fill: #48c16e"/>
    <path d="M 356.563264 333.805238 
L 367.539548 370.076714 
L 373.962231 357.648453 
L 363.105279 318.032141 
z
" clip-path="url(#p45e06919c3)" style="fill: #20938c"/>
    <path d="M 349.817738 361.856301 
L 360.949053 390.455127 
L 367.539548 370.076714 
L 356.563264 333.805238 
z
" clip-path="url(#p45e06919c3)" style="fill: #24878e"/>
    <path d="M 239.765838 466.617313 
L 251.143208 470.904955 
L 257.839607 463.354396 
L 246.48112 458.694837 
z
" clip-path="url(#p45e06919c3)" style="fill: #414487"/>
    <path d="M 316.756353 464.68637 
L 328.265661 469.321711 
L 334.745327 460.296495 
L 323.265355 454.674855 
z
" clip-path="url(#p45e06919c3)" style="fill: #404688"/>
    <path d="M 269.235041 467.74172 
L 280.670155 471.984511 
L 287.280364 464.322588 
L 275.86745 459.934833 
z
" clip-path="url(#p45e06919c3)" style="fill: #414487"/>
    <path d="M 346.262136 465.680302 
L 357.821441 470.639757 
L 364.210148 462.369252 
L 352.695035 456.145177 
z
" clip-path="url(#p45e06919c3)" style="fill: #404588"/>
    <path d="M 303.944612 336.625678 
L 315.500382 325.098775 
L 322.253463 289.008698 
L 310.578002 307.18968 
z
" clip-path="url(#p45e06919c3)" style="fill: #22a884"/>
    <path d="M 317.176081 286.2049 
L 328.910181 266.965298 
L 335.34942 263.827828 
L 323.670844 276.902625 
z
" clip-path="url(#p45e06919c3)" style="fill: #48c16e"/>
    <path d="M 308.777849 364.458091 
L 320.26308 365.62324 
L 327.0849 323.256033 
L 315.500382 325.098775 
z
" clip-path="url(#p45e06919c3)" style="fill: #1f958b"/>
    <path d="M 331.704304 375.750015 
L 343.048058 393.362262 
L 349.817738 361.856301 
L 338.549034 336.58793 
z
" clip-path="url(#p45e06919c3)" style="fill: #24878e"/>
    <path d="M 298.733521 468.592512 
L 310.227416 472.878895 
L 316.756353 464.68637 
L 305.285574 460.105647 
z
" clip-path="url(#p45e06919c3)" style="fill: #404588"/>
    <path d="M 328.265661 469.321711 
L 339.815032 473.888282 
L 346.262136 465.680302 
L 334.745327 460.296495 
z
" clip-path="url(#p45e06919c3)" style="fill: #404588"/>
    <path d="M 251.143208 470.904955 
L 262.56063 475.134693 
L 269.235041 467.74172 
L 257.839607 463.354396 
z
" clip-path="url(#p45e06919c3)" style="fill: #414487"/>
    <path d="M 357.821441 470.639757 
L 369.426126 475.226092 
L 375.777531 467.599567 
L 364.210148 462.369252 
z
" clip-path="url(#p45e06919c3)" style="fill: #404588"/>
    <path d="M 280.670155 471.984511 
L 292.146314 476.190871 
L 298.733521 468.592512 
L 287.280364 464.322588 
z
" clip-path="url(#p45e06919c3)" style="fill: #414487"/>
    <path d="M 310.578002 307.18968 
L 322.253463 289.008698 
L 328.910181 266.965298 
L 317.176081 286.2049 
z
" clip-path="url(#p45e06919c3)" style="fill: #3bbb75"/>
    <path d="M 320.26308 365.62324 
L 331.704304 375.750015 
L 338.549034 336.58793 
L 327.0849 323.256033 
z
" clip-path="url(#p45e06919c3)" style="fill: #20938c"/>
    <path d="M 352.028113 282.55461 
L 363.105279 318.032141 
L 369.310936 318.457912 
L 358.300374 284.410954 
z
" clip-path="url(#p45e06919c3)" style="fill: #2eb37c"/>
    <path d="M 310.227416 472.878895 
L 321.762218 477.186208 
L 328.265661 469.321711 
L 316.756353 464.68637 
z
" clip-path="url(#p45e06919c3)" style="fill: #414487"/>
    <path d="M 339.815032 473.888282 
L 351.406349 478.327565 
L 357.821441 470.639757 
L 346.262136 465.680302 
z
" clip-path="url(#p45e06919c3)" style="fill: #414487"/>
    <path d="M 262.56063 475.134693 
L 274.019018 479.338249 
L 280.670155 471.984511 
L 269.235041 467.74172 
z
" clip-path="url(#p45e06919c3)" style="fill: #414487"/>
    <path d="M 292.146314 476.190871 
L 303.663962 480.406454 
L 310.227416 472.878895 
L 298.733521 468.592512 
z
" clip-path="url(#p45e06919c3)" style="fill: #414487"/>
    <path d="M 338.549034 336.58793 
L 349.817738 361.856301 
L 356.563264 333.805238 
L 345.391047 301.669526 
z
" clip-path="url(#p45e06919c3)" style="fill: #1fa188"/>
    <path d="M 321.762218 477.186208 
L 333.338447 481.485064 
L 339.815032 473.888282 
L 328.265661 469.321711 
z
" clip-path="url(#p45e06919c3)" style="fill: #414487"/>
    <path d="M 351.406349 478.327565 
L 363.040729 482.656339 
L 369.426126 475.226092 
L 357.821441 470.639757 
z
" clip-path="url(#p45e06919c3)" style="fill: #414487"/>
    <path d="M 345.391047 301.669526 
L 356.563264 333.805238 
L 363.105279 318.032141 
L 352.028113 282.55461 
z
" clip-path="url(#p45e06919c3)" style="fill: #2cb17e"/>
    <path d="M 274.019018 479.338249 
L 285.518941 483.542762 
L 292.146314 476.190871 
L 280.670155 471.984511 
z
" clip-path="url(#p45e06919c3)" style="fill: #414487"/>
    <path d="M 315.500382 325.098775 
L 327.0849 323.256033 
L 333.925738 285.130731 
L 322.253463 289.008698 
z
" clip-path="url(#p45e06919c3)" style="fill: #2fb47c"/>
    <path d="M 328.910181 266.965298 
L 340.602986 263.708086 
L 346.96016 264.579161 
L 335.34942 263.827828 
z
" clip-path="url(#p45e06919c3)" style="fill: #63cb5f"/>
    <path d="M 303.663962 480.406454 
L 315.223333 484.637219 
L 321.762218 477.186208 
L 310.227416 472.878895 
z
" clip-path="url(#p45e06919c3)" style="fill: #414487"/>
    <path d="M 340.602986 263.708086 
L 352.028113 282.55461 
L 358.300374 284.410954 
L 346.96016 264.579161 
z
" clip-path="url(#p45e06919c3)" style="fill: #56c667"/>
    <path d="M 333.338447 481.485064 
L 344.956758 485.760301 
L 351.406349 478.327565 
L 339.815032 473.888282 
z
" clip-path="url(#p45e06919c3)" style="fill: #414487"/>
    <path d="M 327.0849 323.256033 
L 338.549034 336.58793 
L 345.391047 301.669526 
L 333.925738 285.130731 
z
" clip-path="url(#p45e06919c3)" style="fill: #2db27d"/>
    <path d="M 285.518941 483.542762 
L 297.060709 487.760133 
L 303.663962 480.406454 
L 292.146314 476.190871 
z
" clip-path="url(#p45e06919c3)" style="fill: #414487"/>
    <path d="M 322.253463 289.008698 
L 333.925738 285.130731 
L 340.602986 263.708086 
L 328.910181 266.965298 
z
" clip-path="url(#p45e06919c3)" style="fill: #58c765"/>
    <path d="M 315.223333 484.637219 
L 326.824712 488.877652 
L 333.338447 481.485064 
L 321.762218 477.186208 
z
" clip-path="url(#p45e06919c3)" style="fill: #414487"/>
    <path d="M 344.956758 485.760301 
L 356.617629 490.016632 
L 363.040729 482.656339 
L 351.406349 478.327565 
z
" clip-path="url(#p45e06919c3)" style="fill: #414487"/>
    <path d="M 333.925738 285.130731 
L 345.391047 301.669526 
L 352.028113 282.55461 
L 340.602986 263.708086 
z
" clip-path="url(#p45e06919c3)" style="fill: #52c569"/>
    <path d="M 297.060709 487.760133 
L 308.644561 491.992579 
L 315.223333 484.637219 
L 303.663962 480.406454 
z
" clip-path="url(#p45e06919c3)" style="fill: #414487"/>
    <path d="M 326.824712 488.877652 
L 338.46842 493.124547 
L 344.956758 485.760301 
L 333.338447 481.485064 
z
" clip-path="url(#p45e06919c3)" style="fill: #414487"/>
    <path d="M 308.644561 491.992579 
L 320.270737 496.239342 
L 326.824712 488.877652 
L 315.223333 484.637219 
z
" clip-path="url(#p45e06919c3)" style="fill: #414487"/>
    <path d="M 338.46842 493.124547 
L 350.15475 497.379076 
L 356.617629 490.016632 
L 344.956758 485.760301 
z
" clip-path="url(#p45e06919c3)" style="fill: #414487"/>
    <path d="M 320.270737 496.239342 
L 331.939486 500.499917 
L 338.46842 493.124547 
L 326.824712 488.877652 
z
" clip-path="url(#p45e06919c3)" style="fill: #414487"/>
    <path d="M 331.939486 500.499917 
L 343.651054 504.774604 
L 350.15475 497.379076 
L 338.46842 493.124547 
z
" clip-path="url(#p45e06919c3)" style="fill: #414487"/>
   </g>
  </g>
 </g>
 <defs>
  <clipPath id="p45e06919c3">
   <rect x="0" y="0" width="554.4" height="554.4"/>
  </clipPath>
 </defs>
</svg>
