<?xml version="1.0" encoding="utf-8" standalone="no"?>
<!DOCTYPE svg PUBLIC "-//W3C//DTD SVG 1.1//EN"
  "http://www.w3.org/Graphics/SVG/1.1/DTD/svg11.dtd">
<svg xmlns:xlink="http://www.w3.org/1999/xlink" width="554.4pt" height="554.4pt" viewBox="0 0 554.4 554.4" xmlns="http://www.w3.org/2000/svg" version="1.1">
 <metadata>
  <rdf:RDF xmlns:dc="http://purl.org/dc/elements/1.1/" xmlns:cc="http://creativecommons.org/ns#" xmlns:rdf="http://www.w3.org/1999/02/22-rdf-syntax-ns#">
   <cc:Work>
    <dc:type rdf:resource="http://purl.org/dc/dcmitype/StillImage"/>
    <dc:date>2026-01-23T10:27:31.336342</dc:date>
    <dc:format>image/svg+xml</dc:format>
    <dc:creator>
     <cc:Agent>
      <dc:title>Matplotlib v3.9.2, https://matplotlib.org/</dc:title>
     </cc:Agent>
    </dc:creator>
   </cc:Work>
  </rdf:RDF>
 </metadata>
 <defs>
  <style type="text/css">*{stroke-linejoin: round; stroke-linecap: butt}</style>
 </defs>
 <g id="figure_1">
  <g id="patch_1">
   <path d="M 0 554.4 
L 554.4 554.4 
L 554.4 0 
L 0 0 
L 0 554.4 
z
" style="fill: none; opacity: 0"/>
  </g>
  <g id="patch_2">
   <path d="M 0 554.4 
L 554.4 554.4 
L 554.4 0 
L 0 0 
L 0 554.4 
z
" style="fill: none; opacity: 0"/>
  </g>
  <g id="axes_1">
   <g id="Poly3DCollection_1">
    <path d="M 225.902508 259.899966 
L 236.225128 262.93249 
L 242.368518 257.391944 
L 232.063571 254.219842 
z
" clip-path="url(#pd3279e176e)" style="fill: #414487"/>
    <path d="M 236.225128 262.93249 
L 246.582034 265.78614 
L 252.70765 260.46003 
L 242.368518 257.391944 
z
" clip-path="url(#pd3279e176e)" style="fill: #414487"/>
    <path d="M 219.703844 265.498205 
L 230.043044 268.316193 
L 236.225128 262.93249 
L 225.902508 259.899966 
z
" clip-path="url(#pd3279e176e)" style="fill: #414487"/>
    <path d="M 246.582034 265.78614 
L 256.974497 268.415841 
L 263.08184 263.396849 
L 252.70765 260.46003 
z
" clip-path="url(#pd3279e176e)" style="fill: #404588"/>
    <path d="M 230.043044 268.316193 
L 240.416414 270.844966 
L 246.582034 265.78614 
L 236.225128 262.93249 
z
" clip-path="url(#pd3279e176e)" style="fill: #404588"/>
    <path d="M 256.974497 268.415841 
L 267.404298 270.789534 
L 273.492258 266.183067 
L 263.08184 263.396849 
z
" clip-path="url(#pd3279e176e)" style="fill: #404588"/>
    <path d="M 213.466294 270.987281 
L 223.820458 273.497809 
L 230.043044 268.316193 
L 219.703844 265.498205 
z
" clip-path="url(#pd3279e176e)" style="fill: #404588"/>
    <path d="M 240.416414 270.844966 
L 250.82577 273.013104 
L 256.974497 268.415841 
L 246.582034 265.78614 
z
" clip-path="url(#pd3279e176e)" style="fill: #404588"/>
    <path d="M 267.404298 270.789534 
L 277.873591 272.901382 
L 283.940274 268.815269 
L 273.492258 266.183067 
z
" clip-path="url(#pd3279e176e)" style="fill: #404688"/>
    <path d="M 223.820458 273.497809 
L 234.20829 275.564727 
L 240.416414 270.844966 
L 230.043044 268.316193 
z
" clip-path="url(#pd3279e176e)" style="fill: #404588"/>
    <path d="M 250.82577 273.013104 
L 261.273763 274.76963 
L 267.404298 270.789534 
L 256.974497 268.415841 
z
" clip-path="url(#pd3279e176e)" style="fill: #3f4788"/>
    <path d="M 207.188544 276.347785 
L 217.555479 278.445021 
L 223.820458 273.497809 
L 213.466294 270.987281 
z
" clip-path="url(#pd3279e176e)" style="fill: #404588"/>
    <path d="M 277.873591 272.901382 
L 288.384574 274.784558 
L 294.427254 271.313687 
L 283.940274 268.815269 
z
" clip-path="url(#pd3279e176e)" style="fill: #3f4889"/>
    <path d="M 234.20829 275.564727 
L 244.632303 277.079574 
L 250.82577 273.013104 
L 240.416414 270.844966 
z
" clip-path="url(#pd3279e176e)" style="fill: #3f4788"/>
    <path d="M 261.273763 274.76963 
L 271.763698 276.1049 
L 277.873591 272.901382 
L 267.404298 270.789534 
z
" clip-path="url(#pd3279e176e)" style="fill: #3e4989"/>
    <path d="M 217.555479 278.445021 
L 227.954978 279.893935 
L 234.20829 275.564727 
L 223.820458 273.497809 
z
" clip-path="url(#pd3279e176e)" style="fill: #3f4788"/>
    <path d="M 288.384574 274.784558 
L 298.938984 276.519587 
L 304.954242 273.72721 
L 294.427254 271.313687 
z
" clip-path="url(#pd3279e176e)" style="fill: #3e4989"/>
    <path d="M 244.632303 277.079574 
L 255.096322 277.964578 
L 261.273763 274.76963 
L 250.82577 273.013104 
z
" clip-path="url(#pd3279e176e)" style="fill: #3e4989"/>
    <path d="M 200.869455 281.576234 
L 211.246448 283.151728 
L 217.555479 278.445021 
L 207.188544 276.347785 
z
" clip-path="url(#pd3279e176e)" style="fill: #404688"/>
    <path d="M 271.763698 276.1049 
L 282.29904 277.070889 
L 288.384574 274.784558 
L 277.873591 272.901382 
z
" clip-path="url(#pd3279e176e)" style="fill: #3e4a89"/>
    <path d="M 227.954978 279.893935 
L 238.390388 280.536629 
L 244.632303 277.079574 
L 234.20829 275.564727 
z
" clip-path="url(#pd3279e176e)" style="fill: #3e4989"/>
    <path d="M 298.938984 276.519587 
L 309.537501 278.234113 
L 315.521604 276.133185 
L 304.954242 273.72721 
z
" clip-path="url(#pd3279e176e)" style="fill: #3e4a89"/>
    <path d="M 255.096322 277.964578 
L 265.605258 278.204291 
L 271.763698 276.1049 
L 261.273763 274.76963 
z
" clip-path="url(#pd3279e176e)" style="fill: #3d4d8a"/>
    <path d="M 211.246448 283.151728 
L 221.654064 283.822386 
L 227.954978 279.893935 
L 217.555479 278.445021 
z
" clip-path="url(#pd3279e176e)" style="fill: #3e4989"/>
    <path d="M 282.29904 277.070889 
L 292.882634 277.794548 
L 298.938984 276.519587 
L 288.384574 274.784558 
z
" clip-path="url(#pd3279e176e)" style="fill: #3d4e8a"/>
    <path d="M 309.537501 278.234113 
L 320.179252 280.091354 
L 326.12874 278.630378 
L 315.521604 276.133185 
z
" clip-path="url(#pd3279e176e)" style="fill: #3d4d8a"/>
    <path d="M 194.508354 286.692873 
L 204.892375 287.650943 
L 211.246448 283.151728 
L 200.869455 281.576234 
z
" clip-path="url(#pd3279e176e)" style="fill: #3f4889"/>
    <path d="M 238.390388 280.536629 
L 248.867024 280.259215 
L 255.096322 277.964578 
L 244.632303 277.079574 
z
" clip-path="url(#pd3279e176e)" style="fill: #3d4d8a"/>
    <path d="M 265.605258 278.204291 
L 276.164409 277.876457 
L 282.29904 277.070889 
L 271.763698 276.1049 
z
" clip-path="url(#pd3279e176e)" style="fill: #3c508b"/>
    <path d="M 221.654064 283.822386 
L 232.096568 283.367853 
L 238.390388 280.536629 
L 227.954978 279.893935 
z
" clip-path="url(#pd3279e176e)" style="fill: #3d4d8a"/>
    <path d="M 292.882634 277.794548 
L 303.515759 278.477661 
L 309.537501 278.234113 
L 298.938984 276.519587 
z
" clip-path="url(#pd3279e176e)" style="fill: #3c508b"/>
    <path d="M 320.179252 280.091354 
L 330.861593 282.267411 
L 336.773971 281.325225 
L 326.12874 278.630378 
z
" clip-path="url(#pd3279e176e)" style="fill: #3d4e8a"/>
    <path d="M 204.892375 287.650943 
L 215.304038 287.401625 
L 221.654064 283.822386 
L 211.246448 283.151728 
z
" clip-path="url(#pd3279e176e)" style="fill: #3e4a89"/>
    <path d="M 248.867024 280.259215 
L 259.391922 279.03768 
L 265.605258 278.204291 
L 255.096322 277.964578 
z
" clip-path="url(#pd3279e176e)" style="fill: #3b518b"/>
    <path d="M 188.105325 291.746782 
L 198.49341 292.023291 
L 204.892375 287.650943 
L 194.508354 286.692873 
z
" clip-path="url(#pd3279e176e)" style="fill: #3e4989"/>
    <path d="M 330.861593 282.267411 
L 341.580322 284.921259 
L 347.454697 284.313723 
L 336.773971 281.325225 
z
" clip-path="url(#pd3279e176e)" style="fill: #3c4f8a"/>
    <path d="M 276.164409 277.876457 
L 286.7783 277.172601 
L 292.882634 277.794548 
L 282.29904 277.070889 
z
" clip-path="url(#pd3279e176e)" style="fill: #3a538b"/>
    <path d="M 232.096568 283.367853 
L 242.581056 281.628018 
L 248.867024 280.259215 
L 238.390388 280.536629 
z
" clip-path="url(#pd3279e176e)" style="fill: #3b518b"/>
    <path d="M 303.515759 278.477661 
L 314.197303 279.378773 
L 320.179252 280.091354 
L 309.537501 278.234113 
z
" clip-path="url(#pd3279e176e)" style="fill: #3b528b"/>
    <path d="M 215.304038 287.401625 
L 225.748522 285.650149 
L 232.096568 283.367853 
L 221.654064 283.822386 
z
" clip-path="url(#pd3279e176e)" style="fill: #3c508b"/>
    <path d="M 259.391922 279.03768 
L 269.972892 276.982968 
L 276.164409 277.876457 
L 265.605258 278.204291 
z
" clip-path="url(#pd3279e176e)" style="fill: #39568c"/>
    <path d="M 341.580322 284.921259 
L 352.330365 288.164312 
L 358.167835 287.66311 
L 347.454697 284.313723 
z
" clip-path="url(#pd3279e176e)" style="fill: #3c508b"/>
    <path d="M 198.49341 292.023291 
L 208.905002 290.758531 
L 215.304038 287.401625 
L 204.892375 287.650943 
z
" clip-path="url(#pd3279e176e)" style="fill: #3d4e8a"/>
    <path d="M 314.197303 279.378773 
L 324.923365 280.777311 
L 330.861593 282.267411 
L 320.179252 280.091354 
z
" clip-path="url(#pd3279e176e)" style="fill: #39558c"/>
    <path d="M 286.7783 277.172601 
L 297.449247 276.398287 
L 303.515759 278.477661 
L 292.882634 277.794548 
z
" clip-path="url(#pd3279e176e)" style="fill: #38588c"/>
    <path d="M 181.661433 296.815763 
L 192.051203 296.396924 
L 198.49341 292.023291 
L 188.105325 291.746782 
z
" clip-path="url(#pd3279e176e)" style="fill: #3e4a89"/>
    <path d="M 242.581056 281.628018 
L 253.117211 278.56674 
L 259.391922 279.03768 
L 248.867024 280.259215 
z
" clip-path="url(#pd3279e176e)" style="fill: #39568c"/>
    <path d="M 352.330365 288.164312 
L 363.106772 292.037633 
L 368.910436 291.398172 
L 358.167835 287.66311 
z
" clip-path="url(#pd3279e176e)" style="fill: #3c508b"/>
    <path d="M 225.748522 285.650149 
L 236.234902 282.180511 
L 242.581056 281.628018 
L 232.096568 283.367853 
z
" clip-path="url(#pd3279e176e)" style="fill: #39568c"/>
    <path d="M 324.923365 280.777311 
L 335.687526 282.925878 
L 341.580322 284.921259 
L 330.861593 282.267411 
z
" clip-path="url(#pd3279e176e)" style="fill: #39568c"/>
    <path d="M 269.972892 276.982968 
L 280.61687 274.371521 
L 286.7783 277.172601 
L 276.164409 277.876457 
z
" clip-path="url(#pd3279e176e)" style="fill: #375b8d"/>
    <path d="M 208.905002 290.758531 
L 219.346083 287.57467 
L 225.748522 285.650149 
L 215.304038 287.401625 
z
" clip-path="url(#pd3279e176e)" style="fill: #3a538b"/>
    <path d="M 297.449247 276.398287 
L 308.17605 275.946145 
L 314.197303 279.378773 
L 303.515759 278.477661 
z
" clip-path="url(#pd3279e176e)" style="fill: #375b8d"/>
    <path d="M 363.106772 292.037633 
L 373.90579 296.503281 
L 379.680341 295.496051 
L 368.910436 291.398172 
z
" clip-path="url(#pd3279e176e)" style="fill: #3c4f8a"/>
    <path d="M 192.051203 296.396924 
L 202.459253 294.095411 
L 208.905002 290.758531 
L 198.49341 292.023291 
z
" clip-path="url(#pd3279e176e)" style="fill: #3c508b"/>
    <path d="M 175.178772 301.999348 
L 185.569022 300.936062 
L 192.051203 296.396924 
L 181.661433 296.815763 
z
" clip-path="url(#pd3279e176e)" style="fill: #3d4d8a"/>
    <path d="M 253.117211 278.56674 
L 263.716098 274.334985 
L 269.972892 276.982968 
L 259.391922 279.03768 
z
" clip-path="url(#pd3279e176e)" style="fill: #355e8d"/>
    <path d="M 335.687526 282.925878 
L 346.481859 286.001673 
L 352.330365 288.164312 
L 341.580322 284.921259 
z
" clip-path="url(#pd3279e176e)" style="fill: #38588c"/>
    <path d="M 373.90579 296.503281 
L 384.725682 301.452332 
L 390.476662 299.891057 
L 379.680341 295.496051 
z
" clip-path="url(#pd3279e176e)" style="fill: #3d4e8a"/>
    <path d="M 308.17605 275.946145 
L 318.9533 276.241531 
L 324.923365 280.777311 
L 314.197303 279.378773 
z
" clip-path="url(#pd3279e176e)" style="fill: #355f8d"/>
    <path d="M 280.61687 274.371521 
L 291.327833 271.646601 
L 297.449247 276.398287 
L 286.7783 277.172601 
z
" clip-path="url(#pd3279e176e)" style="fill: #34618d"/>
    <path d="M 236.234902 282.180511 
L 246.775969 276.94024 
L 253.117211 278.56674 
L 242.581056 281.628018 
z
" clip-path="url(#pd3279e176e)" style="fill: #355e8d"/>
    <path d="M 384.725682 301.452332 
L 395.567061 306.727224 
L 401.299971 304.488097 
L 390.476662 299.891057 
z
" clip-path="url(#pd3279e176e)" style="fill: #3d4d8a"/>
    <path d="M 346.481859 286.001673 
L 357.298479 290.070026 
L 363.106772 292.037633 
L 352.330365 288.164312 
z
" clip-path="url(#pd3279e176e)" style="fill: #38588c"/>
    <path d="M 219.346083 287.57467 
L 229.827762 282.192279 
L 236.234902 282.180511 
L 225.748522 285.650149 
z
" clip-path="url(#pd3279e176e)" style="fill: #375b8d"/>
    <path d="M 202.459253 294.095411 
L 212.892134 289.447441 
L 219.346083 287.57467 
L 208.905002 290.758531 
z
" clip-path="url(#pd3279e176e)" style="fill: #38588c"/>
    <path d="M 185.569022 300.936062 
L 195.971509 297.67209 
L 202.459253 294.095411 
L 192.051203 296.396924 
z
" clip-path="url(#pd3279e176e)" style="fill: #3b528b"/>
    <path d="M 168.660274 307.405037 
L 179.051485 305.818294 
L 185.569022 300.936062 
L 175.178772 301.999348 
z
" clip-path="url(#pd3279e176e)" style="fill: #3d4e8a"/>
    <path d="M 395.567061 306.727224 
L 406.432674 312.152043 
L 412.152141 309.1809 
L 401.299971 304.488097 
z
" clip-path="url(#pd3279e176e)" style="fill: #3e4a89"/>
    <path d="M 357.298479 290.070026 
L 368.131227 295.070519 
L 373.90579 296.503281 
L 363.106772 292.037633 
z
" clip-path="url(#pd3279e176e)" style="fill: #39568c"/>
    <path d="M 263.716098 274.334985 
L 274.387929 269.314465 
L 280.61687 274.371521 
L 269.972892 276.982968 
z
" clip-path="url(#pd3279e176e)" style="fill: #32658e"/>
    <path d="M 318.9533 276.241531 
L 329.771672 277.669716 
L 335.687526 282.925878 
L 324.923365 280.777311 
z
" clip-path="url(#pd3279e176e)" style="fill: #34618d"/>
    <path d="M 291.327833 271.646601 
L 302.104819 269.3799 
L 308.17605 275.946145 
L 297.449247 276.398287 
z
" clip-path="url(#pd3279e176e)" style="fill: #31678e"/>
    <path d="M 406.432674 312.152043 
L 417.326705 317.562699 
L 423.035908 313.870226 
L 412.152141 309.1809 
z
" clip-path="url(#pd3279e176e)" style="fill: #3e4989"/>
    <path d="M 368.131227 295.070519 
L 378.977 300.829842 
L 384.725682 301.452332 
L 373.90579 296.503281 
z
" clip-path="url(#pd3279e176e)" style="fill: #39558c"/>
    <path d="M 246.775969 276.94024 
L 257.386752 270.125234 
L 263.716098 274.334985 
L 253.117211 278.56674 
z
" clip-path="url(#pd3279e176e)" style="fill: #31678e"/>
    <path d="M 329.771672 277.669716 
L 340.619368 280.501349 
L 346.481859 286.001673 
L 335.687526 282.925878 
z
" clip-path="url(#pd3279e176e)" style="fill: #33638d"/>
    <path d="M 417.326705 317.562699 
L 428.253871 322.83 
L 433.954299 318.477843 
L 423.035908 313.870226 
z
" clip-path="url(#pd3279e176e)" style="fill: #3f4889"/>
    <path d="M 229.827762 282.192279 
L 240.366214 274.538316 
L 246.775969 276.94024 
L 236.234902 282.180511 
z
" clip-path="url(#pd3279e176e)" style="fill: #32658e"/>
    <path d="M 378.977 300.829842 
L 389.836333 307.097553 
L 395.567061 306.727224 
L 384.725682 301.452332 
z
" clip-path="url(#pd3279e176e)" style="fill: #3b528b"/>
    <path d="M 179.051485 305.818294 
L 189.448577 301.770036 
L 195.971509 297.67209 
L 185.569022 300.936062 
z
" clip-path="url(#pd3279e176e)" style="fill: #39558c"/>
    <path d="M 162.10925 313.130085 
L 172.503887 311.204413 
L 179.051485 305.818294 
L 168.660274 307.405037 
z
" clip-path="url(#pd3279e176e)" style="fill: #3c4f8a"/>
    <path d="M 212.892134 289.447441 
L 223.362836 282.10683 
L 229.827762 282.192279 
L 219.346083 287.57467 
z
" clip-path="url(#pd3279e176e)" style="fill: #34618d"/>
    <path d="M 195.971509 297.67209 
L 206.393013 291.66265 
L 212.892134 289.447441 
L 202.459253 294.095411 
z
" clip-path="url(#pd3279e176e)" style="fill: #375b8d"/>
    <path d="M 274.387929 269.314465 
L 285.139152 264.121111 
L 291.327833 271.646601 
L 280.61687 274.371521 
z
" clip-path="url(#pd3279e176e)" style="fill: #2e6d8e"/>
    <path d="M 302.104819 269.3799 
L 312.940768 268.192739 
L 318.9533 276.241531 
L 308.17605 275.946145 
z
" clip-path="url(#pd3279e176e)" style="fill: #2f6b8e"/>
    <path d="M 389.836333 307.097553 
L 400.713098 313.594427 
L 406.432674 312.152043 
L 395.567061 306.727224 
z
" clip-path="url(#pd3279e176e)" style="fill: #3c508b"/>
    <path d="M 340.619368 280.501349 
L 351.484403 284.836281 
L 357.298479 290.070026 
L 346.481859 286.001673 
z
" clip-path="url(#pd3279e176e)" style="fill: #33638d"/>
    <path d="M 428.253871 322.83 
L 439.218536 327.871652 
L 444.910094 322.953837 
L 433.954299 318.477843 
z
" clip-path="url(#pd3279e176e)" style="fill: #404688"/>
    <path d="M 400.713098 313.594427 
L 411.613482 320.060443 
L 417.326705 317.562699 
L 406.432674 312.152043 
z
" clip-path="url(#pd3279e176e)" style="fill: #3d4e8a"/>
    <path d="M 351.484403 284.836281 
L 362.357168 290.582131 
L 368.131227 295.070519 
L 357.298479 290.070026 
z
" clip-path="url(#pd3279e176e)" style="fill: #34618d"/>
    <path d="M 439.218536 327.871652 
L 450.224084 332.652892 
L 455.905444 327.277057 
L 444.910094 322.953837 
z
" clip-path="url(#pd3279e176e)" style="fill: #404588"/>
    <path d="M 257.386752 270.125234 
L 268.081652 262.239701 
L 274.387929 269.314465 
L 263.716098 274.334985 
z
" clip-path="url(#pd3279e176e)" style="fill: #2d708e"/>
    <path d="M 155.528769 319.243011 
L 165.931233 317.207726 
L 172.503887 311.204413 
L 162.10925 313.130085 
z
" clip-path="url(#pd3279e176e)" style="fill: #3c508b"/>
    <path d="M 312.940768 268.192739 
L 323.822791 268.649353 
L 329.771672 277.669716 
L 318.9533 276.241531 
z
" clip-path="url(#pd3279e176e)" style="fill: #2e6f8e"/>
    <path d="M 411.613482 320.060443 
L 422.544573 326.291277 
L 428.253871 322.83 
L 417.326705 317.562699 
z
" clip-path="url(#pd3279e176e)" style="fill: #3e4a89"/>
    <path d="M 172.503887 311.204413 
L 182.89841 306.644443 
L 189.448577 301.770036 
L 179.051485 305.818294 
z
" clip-path="url(#pd3279e176e)" style="fill: #39568c"/>
    <path d="M 362.357168 290.582131 
L 373.232481 297.474134 
L 378.977 300.829842 
L 368.131227 295.070519 
z
" clip-path="url(#pd3279e176e)" style="fill: #355f8d"/>
    <path d="M 189.448577 301.770036 
L 199.858162 294.648365 
L 206.393013 291.66265 
L 195.971509 297.67209 
z
" clip-path="url(#pd3279e176e)" style="fill: #355f8d"/>
    <path d="M 240.366214 274.538316 
L 250.981005 264.855352 
L 257.386752 270.125234 
L 246.775969 276.94024 
z
" clip-path="url(#pd3279e176e)" style="fill: #2d708e"/>
    <path d="M 450.224084 332.652892 
L 461.272639 337.178398 
L 466.941704 331.450262 
L 455.905444 327.277057 
z
" clip-path="url(#pd3279e176e)" style="fill: #404588"/>
    <path d="M 285.139152 264.121111 
L 295.969585 259.55308 
L 302.104819 269.3799 
L 291.327833 271.646601 
z
" clip-path="url(#pd3279e176e)" style="fill: #2c738e"/>
    <path d="M 206.393013 291.66265 
L 216.848051 282.497637 
L 223.362836 282.10683 
L 212.892134 289.447441 
z
" clip-path="url(#pd3279e176e)" style="fill: #31678e"/>
    <path d="M 223.362836 282.10683 
L 233.890953 271.976699 
L 240.366214 274.538316 
L 229.827762 282.192279 
z
" clip-path="url(#pd3279e176e)" style="fill: #2e6d8e"/>
    <path d="M 422.544573 326.291277 
L 433.512996 332.157103 
L 439.218536 327.871652 
L 428.253871 322.83 
z
" clip-path="url(#pd3279e176e)" style="fill: #3e4989"/>
    <path d="M 373.232481 297.474134 
L 384.110552 305.130222 
L 389.836333 307.097553 
L 378.977 300.829842 
z
" clip-path="url(#pd3279e176e)" style="fill: #375b8d"/>
    <path d="M 323.822791 268.649353 
L 334.734106 271.146869 
L 340.619368 280.501349 
L 329.771672 277.669716 
z
" clip-path="url(#pd3279e176e)" style="fill: #2d708e"/>
    <path d="M 384.110552 305.130222 
L 394.99662 313.12523 
L 400.713098 313.594427 
L 389.836333 307.097553 
z
" clip-path="url(#pd3279e176e)" style="fill: #38588c"/>
    <path d="M 461.272639 337.178398 
L 472.365105 341.479599 
L 478.019471 335.492446 
L 466.941704 331.450262 
z
" clip-path="url(#pd3279e176e)" style="fill: #414487"/>
    <path d="M 433.512996 332.157103 
L 444.523925 337.603363 
L 450.224084 332.652892 
L 439.218536 327.871652 
z
" clip-path="url(#pd3279e176e)" style="fill: #3f4788"/>
    <path d="M 148.920985 325.769709 
L 159.337193 323.870935 
L 165.931233 317.207726 
L 155.528769 319.243011 
z
" clip-path="url(#pd3279e176e)" style="fill: #3c508b"/>
    <path d="M 394.99662 313.12523 
L 405.899465 321.064169 
L 411.613482 320.060443 
L 400.713098 313.594427 
z
" clip-path="url(#pd3279e176e)" style="fill: #3a538b"/>
    <path d="M 165.931233 317.207726 
L 176.328686 312.475272 
L 182.89841 306.644443 
L 172.503887 311.204413 
z
" clip-path="url(#pd3279e176e)" style="fill: #38588c"/>
    <path d="M 268.081652 262.239701 
L 278.870546 254.103398 
L 285.139152 264.121111 
L 274.387929 269.314465 
z
" clip-path="url(#pd3279e176e)" style="fill: #297a8e"/>
    <path d="M 334.734106 271.146869 
L 345.657303 275.831946 
L 351.484403 284.836281 
L 340.619368 280.501349 
z
" clip-path="url(#pd3279e176e)" style="fill: #2d708e"/>
    <path d="M 405.899465 321.064169 
L 416.82934 328.637509 
L 422.544573 326.291277 
L 411.613482 320.060443 
z
" clip-path="url(#pd3279e176e)" style="fill: #3c508b"/>
    <path d="M 472.365105 341.479599 
L 483.501434 345.601411 
L 489.138754 339.430808 
L 478.019471 335.492446 
z
" clip-path="url(#pd3279e176e)" style="fill: #414487"/>
    <path d="M 182.89841 306.644443 
L 193.298873 298.793458 
L 199.858162 294.648365 
L 189.448577 301.770036 
z
" clip-path="url(#pd3279e176e)" style="fill: #34618d"/>
    <path d="M 444.523925 337.603363 
L 455.580616 342.637812 
L 461.272639 337.178398 
L 450.224084 332.652892 
z
" clip-path="url(#pd3279e176e)" style="fill: #404588"/>
    <path d="M 295.969585 259.55308 
L 306.870584 256.481288 
L 312.940768 268.192739 
L 302.104819 269.3799 
z
" clip-path="url(#pd3279e176e)" style="fill: #297a8e"/>
    <path d="M 416.82934 328.637509 
L 427.795932 335.649288 
L 433.512996 332.157103 
L 422.544573 326.291277 
z
" clip-path="url(#pd3279e176e)" style="fill: #3d4d8a"/>
    <path d="M 199.858162 294.648365 
L 210.295739 283.989478 
L 216.848051 282.497637 
L 206.393013 291.66265 
z
" clip-path="url(#pd3279e176e)" style="fill: #2f6b8e"/>
    <path d="M 345.657303 275.831946 
L 356.578054 282.568897 
L 362.357168 290.582131 
L 351.484403 284.836281 
z
" clip-path="url(#pd3279e176e)" style="fill: #2e6f8e"/>
    <path d="M 250.981005 264.855352 
L 261.691553 253.780626 
L 268.081652 262.239701 
L 257.386752 270.125234 
z
" clip-path="url(#pd3279e176e)" style="fill: #287c8e"/>
    <path d="M 455.580616 342.637812 
L 466.684455 347.310366 
L 472.365105 341.479599 
L 461.272639 337.178398 
z
" clip-path="url(#pd3279e176e)" style="fill: #404588"/>
    <path d="M 142.286626 332.688074 
L 152.723268 331.157199 
L 159.337193 323.870935 
L 148.920985 325.769709 
z
" clip-path="url(#pd3279e176e)" style="fill: #3c4f8a"/>
    <path d="M 216.848051 282.497637 
L 227.359326 270.055389 
L 233.890953 271.976699 
L 223.362836 282.10683 
z
" clip-path="url(#pd3279e176e)" style="fill: #2c738e"/>
    <path d="M 356.578054 282.568897 
L 367.488186 290.969182 
L 373.232481 297.474134 
L 362.357168 290.582131 
z
" clip-path="url(#pd3279e176e)" style="fill: #2f6b8e"/>
    <path d="M 427.795932 335.649288 
L 438.806866 342.017791 
L 444.523925 337.603363 
L 433.512996 332.157103 
z
" clip-path="url(#pd3279e176e)" style="fill: #3e4989"/>
    <path d="M 233.890953 271.976699 
L 244.500854 259.344137 
L 250.981005 264.855352 
L 240.366214 274.538316 
z
" clip-path="url(#pd3279e176e)" style="fill: #297a8e"/>
    <path d="M 159.337193 323.870935 
L 169.745238 319.330275 
L 176.328686 312.475272 
L 165.931233 317.207726 
z
" clip-path="url(#pd3279e176e)" style="fill: #38588c"/>
    <path d="M 367.488186 290.969182 
L 378.38719 300.473145 
L 384.110552 305.130222 
L 373.232481 297.474134 
z
" clip-path="url(#pd3279e176e)" style="fill: #31678e"/>
    <path d="M 306.870584 256.481288 
L 317.825179 255.69924 
L 323.822791 268.649353 
L 312.940768 268.192739 
z
" clip-path="url(#pd3279e176e)" style="fill: #277f8e"/>
    <path d="M 466.684455 347.310366 
L 477.835349 351.692138 
L 483.501434 345.601411 
L 472.365105 341.479599 
z
" clip-path="url(#pd3279e176e)" style="fill: #414487"/>
    <path d="M 378.38719 300.473145 
L 389.281815 310.45959 
L 394.99662 313.12523 
L 384.110552 305.130222 
z
" clip-path="url(#pd3279e176e)" style="fill: #34618d"/>
    <path d="M 176.328686 312.475272 
L 186.726303 304.372513 
L 193.298873 298.793458 
L 182.89841 306.644443 
z
" clip-path="url(#pd3279e176e)" style="fill: #33638d"/>
    <path d="M 438.806866 342.017791 
L 449.866989 347.75556 
L 455.580616 342.637812 
L 444.523925 337.603363 
z
" clip-path="url(#pd3279e176e)" style="fill: #3f4788"/>
    <path d="M 278.870546 254.103398 
L 289.754803 246.784593 
L 295.969585 259.55308 
L 285.139152 264.121111 
z
" clip-path="url(#pd3279e176e)" style="fill: #25838e"/>
    <path d="M 389.281815 310.45959 
L 400.184015 320.353208 
L 405.899465 321.064169 
L 394.99662 313.12523 
z
" clip-path="url(#pd3279e176e)" style="fill: #375b8d"/>
    <path d="M 400.184015 320.353208 
L 411.108023 329.704833 
L 416.82934 328.637509 
L 405.899465 321.064169 
z
" clip-path="url(#pd3279e176e)" style="fill: #39568c"/>
    <path d="M 135.624767 339.932717 
L 146.088406 338.957974 
L 152.723268 331.157199 
L 142.286626 332.688074 
z
" clip-path="url(#pd3279e176e)" style="fill: #3d4e8a"/>
    <path d="M 449.866989 347.75556 
L 460.978396 352.938719 
L 466.684455 347.310366 
L 455.580616 342.637812 
z
" clip-path="url(#pd3279e176e)" style="fill: #404588"/>
    <path d="M 193.298873 298.793458 
L 203.72109 287.151419 
L 210.295739 283.989478 
L 199.858162 294.648365 
z
" clip-path="url(#pd3279e176e)" style="fill: #2e6f8e"/>
    <path d="M 411.108023 329.704833 
L 422.067443 338.231478 
L 427.795932 335.649288 
L 416.82934 328.637509 
z
" clip-path="url(#pd3279e176e)" style="fill: #3b518b"/>
    <path d="M 152.723268 331.157199 
L 163.150766 327.150659 
L 169.745238 319.330275 
L 159.337193 323.870935 
z
" clip-path="url(#pd3279e176e)" style="fill: #39568c"/>
    <path d="M 317.825179 255.69924 
L 328.810555 257.766776 
L 334.734106 271.146869 
L 323.822791 268.649353 
z
" clip-path="url(#pd3279e176e)" style="fill: #26828e"/>
    <path d="M 422.067443 338.231478 
L 433.073089 345.816389 
L 438.806866 342.017791 
L 427.795932 335.649288 
z
" clip-path="url(#pd3279e176e)" style="fill: #3d4d8a"/>
    <path d="M 460.978396 352.938719 
L 472.140989 357.675215 
L 477.835349 351.692138 
L 466.684455 347.310366 
z
" clip-path="url(#pd3279e176e)" style="fill: #404588"/>
    <path d="M 261.691553 253.780626 
L 272.512153 242.35898 
L 278.870546 254.103398 
L 268.081652 262.239701 
z
" clip-path="url(#pd3279e176e)" style="fill: #23898e"/>
    <path d="M 169.745238 319.330275 
L 180.149219 311.488904 
L 186.726303 304.372513 
L 176.328686 312.475272 
z
" clip-path="url(#pd3279e176e)" style="fill: #33638d"/>
    <path d="M 210.295739 283.989478 
L 220.786482 269.649492 
L 227.359326 270.055389 
L 216.848051 282.497637 
z
" clip-path="url(#pd3279e176e)" style="fill: #297a8e"/>
    <path d="M 433.073089 345.816389 
L 444.131914 352.479336 
L 449.866989 347.75556 
L 438.806866 342.017791 
z
" clip-path="url(#pd3279e176e)" style="fill: #3e4989"/>
    <path d="M 328.810555 257.766776 
L 339.802485 262.890931 
L 345.657303 275.831946 
L 334.734106 271.146869 
z
" clip-path="url(#pd3279e176e)" style="fill: #26828e"/>
    <path d="M 128.932969 347.408397 
L 139.42918 347.11536 
L 146.088406 338.957974 
L 135.624767 339.932717 
z
" clip-path="url(#pd3279e176e)" style="fill: #3d4d8a"/>
    <path d="M 289.754803 246.784593 
L 300.724562 241.454476 
L 306.870584 256.481288 
L 295.969585 259.55308 
z
" clip-path="url(#pd3279e176e)" style="fill: #228c8d"/>
    <path d="M 227.359326 270.055389 
L 237.955883 254.661486 
L 244.500854 259.344137 
L 233.890953 271.976699 
z
" clip-path="url(#pd3279e176e)" style="fill: #25838e"/>
    <path d="M 244.500854 259.344137 
L 255.217554 244.979994 
L 261.691553 253.780626 
L 250.981005 264.855352 
z
" clip-path="url(#pd3279e176e)" style="fill: #23898e"/>
    <path d="M 146.088406 338.957974 
L 156.544202 335.763659 
L 163.150766 327.150659 
L 152.723268 331.157199 
z
" clip-path="url(#pd3279e176e)" style="fill: #39558c"/>
    <path d="M 444.131914 352.479336 
L 455.247005 358.331798 
L 460.978396 352.938719 
L 449.866989 347.75556 
z
" clip-path="url(#pd3279e176e)" style="fill: #3f4788"/>
    <path d="M 339.802485 262.890931 
L 350.780535 270.880209 
L 356.578054 282.568897 
L 345.657303 275.831946 
z
" clip-path="url(#pd3279e176e)" style="fill: #277f8e"/>
    <path d="M 186.726303 304.372513 
L 197.139518 292.386037 
L 203.72109 287.151419 
L 193.298873 298.793458 
z
" clip-path="url(#pd3279e176e)" style="fill: #2d708e"/>
    <path d="M 350.780535 270.880209 
L 361.73245 281.186851 
L 367.488186 290.969182 
L 356.578054 282.568897 
z
" clip-path="url(#pd3279e176e)" style="fill: #297a8e"/>
    <path d="M 383.56072 305.519619 
L 394.4609 317.871305 
L 400.184015 320.353208 
L 389.281815 310.45959 
z
" clip-path="url(#pd3279e176e)" style="fill: #32658e"/>
    <path d="M 394.4609 317.871305 
L 405.375914 329.454333 
L 411.108023 329.704833 
L 400.184015 320.353208 
z
" clip-path="url(#pd3279e176e)" style="fill: #355e8d"/>
    <path d="M 361.73245 281.186851 
L 372.65643 293.023646 
L 378.38719 300.473145 
L 367.488186 290.969182 
z
" clip-path="url(#pd3279e176e)" style="fill: #2c738e"/>
    <path d="M 372.65643 293.023646 
L 383.56072 305.519619 
L 389.281815 310.45959 
L 378.38719 300.473145 
z
" clip-path="url(#pd3279e176e)" style="fill: #2e6d8e"/>
    <path d="M 163.150766 327.150659 
L 173.572088 320.052656 
L 180.149219 311.488904 
L 169.745238 319.330275 
z
" clip-path="url(#pd3279e176e)" style="fill: #34618d"/>
    <path d="M 405.375914 329.454333 
L 416.324092 339.877762 
L 422.067443 338.231478 
L 411.108023 329.704833 
z
" clip-path="url(#pd3279e176e)" style="fill: #39568c"/>
    <path d="M 455.247005 358.331798 
L 466.418339 363.530898 
L 472.140989 357.675215 
L 460.978396 352.938719 
z
" clip-path="url(#pd3279e176e)" style="fill: #404588"/>
    <path d="M 416.324092 339.877762 
L 427.320153 348.982502 
L 433.073089 345.816389 
L 422.067443 338.231478 
z
" clip-path="url(#pd3279e176e)" style="fill: #3b518b"/>
    <path d="M 122.207729 355.008349 
L 132.740463 355.452545 
L 139.42918 347.11536 
L 128.932969 347.408397 
z
" clip-path="url(#pd3279e176e)" style="fill: #3e4a89"/>
    <path d="M 139.42918 347.11536 
L 149.92091 344.918268 
L 156.544202 335.763659 
L 146.088406 338.957974 
z
" clip-path="url(#pd3279e176e)" style="fill: #3b528b"/>
    <path d="M 427.320153 348.982502 
L 438.373694 356.798804 
L 444.131914 352.479336 
L 433.073089 345.816389 
z
" clip-path="url(#pd3279e176e)" style="fill: #3d4d8a"/>
    <path d="M 203.72109 287.151419 
L 214.191781 271.558743 
L 220.786482 269.649492 
L 210.295739 283.989478 
z
" clip-path="url(#pd3279e176e)" style="fill: #277f8e"/>
    <path d="M 300.724562 241.454476 
L 311.758551 239.184307 
L 317.825179 255.69924 
L 306.870584 256.481288 
z
" clip-path="url(#pd3279e176e)" style="fill: #20928c"/>
    <path d="M 272.512153 242.35898 
L 283.446695 231.960548 
L 289.754803 246.784593 
L 278.870546 254.103398 
z
" clip-path="url(#pd3279e176e)" style="fill: #1f958b"/>
    <path d="M 180.149219 311.488904 
L 190.563561 299.84499 
L 197.139518 292.386037 
L 186.726303 304.372513 
z
" clip-path="url(#pd3279e176e)" style="fill: #2d708e"/>
    <path d="M 438.373694 356.798804 
L 449.489112 363.48344 
L 455.247005 358.331798 
L 444.131914 352.479336 
z
" clip-path="url(#pd3279e176e)" style="fill: #3e4989"/>
    <path d="M 156.544202 335.763659 
L 166.994061 329.799832 
L 173.572088 320.052656 
L 163.150766 327.150659 
z
" clip-path="url(#pd3279e176e)" style="fill: #355f8d"/>
    <path d="M 115.445116 362.63267 
L 126.016401 363.804249 
L 132.740463 355.452545 
L 122.207729 355.008349 
z
" clip-path="url(#pd3279e176e)" style="fill: #3e4989"/>
    <path d="M 220.786482 269.649492 
L 231.36349 251.983363 
L 237.955883 254.661486 
L 227.359326 270.055389 
z
" clip-path="url(#pd3279e176e)" style="fill: #228c8d"/>
    <path d="M 132.740463 355.452545 
L 143.273654 354.333822 
L 149.92091 344.918268 
L 139.42918 347.11536 
z
" clip-path="url(#pd3279e176e)" style="fill: #3c508b"/>
    <path d="M 449.489112 363.48344 
L 460.666577 369.255692 
L 466.418339 363.530898 
L 455.247005 358.331798 
z
" clip-path="url(#pd3279e176e)" style="fill: #404688"/>
    <path d="M 255.217554 244.979994 
L 266.060627 230.159368 
L 272.512153 242.35898 
L 261.691553 253.780626 
z
" clip-path="url(#pd3279e176e)" style="fill: #1f998a"/>
    <path d="M 311.758551 239.184307 
L 322.827103 240.732051 
L 328.810555 257.766776 
L 317.825179 255.69924 
z
" clip-path="url(#pd3279e176e)" style="fill: #1f958b"/>
    <path d="M 237.955883 254.661486 
L 248.668473 237.208959 
L 255.217554 244.979994 
L 244.500854 259.344137 
z
" clip-path="url(#pd3279e176e)" style="fill: #1f958b"/>
    <path d="M 399.622835 328.036368 
L 410.55813 340.699073 
L 416.324092 339.877762 
L 405.375914 329.454333 
z
" clip-path="url(#pd3279e176e)" style="fill: #355e8d"/>
    <path d="M 410.55813 340.699073 
L 421.542387 351.594199 
L 427.320153 348.982502 
L 416.324092 339.877762 
z
" clip-path="url(#pd3279e176e)" style="fill: #39568c"/>
    <path d="M 149.92091 344.918268 
L 160.409172 340.347557 
L 166.994061 329.799832 
L 156.544202 335.763659 
z
" clip-path="url(#pd3279e176e)" style="fill: #375b8d"/>
    <path d="M 173.572088 320.052656 
L 184.000149 309.396092 
L 190.563561 299.84499 
L 180.149219 311.488904 
z
" clip-path="url(#pd3279e176e)" style="fill: #2e6f8e"/>
    <path d="M 388.717282 313.812835 
L 399.622835 328.036368 
L 405.375914 329.454333 
L 394.4609 317.871305 
z
" clip-path="url(#pd3279e176e)" style="fill: #31678e"/>
    <path d="M 197.139518 292.386037 
L 207.595497 276.350272 
L 214.191781 271.558743 
L 203.72109 287.151419 
z
" clip-path="url(#pd3279e176e)" style="fill: #26828e"/>
    <path d="M 421.542387 351.594199 
L 432.588324 360.76641 
L 438.373694 356.798804 
L 427.320153 348.982502 
z
" clip-path="url(#pd3279e176e)" style="fill: #3c508b"/>
    <path d="M 377.817798 298.545151 
L 388.717282 313.812835 
L 394.4609 317.871305 
L 383.56072 305.519619 
z
" clip-path="url(#pd3279e176e)" style="fill: #2d708e"/>
    <path d="M 432.588324 360.76641 
L 443.701972 368.427321 
L 449.489112 363.48344 
L 438.373694 356.798804 
z
" clip-path="url(#pd3279e176e)" style="fill: #3e4a89"/>
    <path d="M 322.827103 240.732051 
L 333.897935 246.378485 
L 339.802485 262.890931 
L 328.810555 257.766776 
z
" clip-path="url(#pd3279e176e)" style="fill: #1f958b"/>
    <path d="M 126.016401 363.804249 
L 136.594025 363.748389 
L 143.273654 354.333822 
L 132.740463 355.452545 
z
" clip-path="url(#pd3279e176e)" style="fill: #3d4e8a"/>
    <path d="M 108.641402 370.202472 
L 119.25141 372.040091 
L 126.016401 363.804249 
L 115.445116 362.63267 
z
" clip-path="url(#pd3279e176e)" style="fill: #3f4889"/>
    <path d="M 366.900233 283.064644 
L 377.817798 298.545151 
L 383.56072 305.519619 
L 372.65643 293.023646 
z
" clip-path="url(#pd3279e176e)" style="fill: #297a8e"/>
    <path d="M 283.446695 231.960548 
L 294.484804 224.095404 
L 300.724562 241.454476 
L 289.754803 246.784593 
z
" clip-path="url(#pd3279e176e)" style="fill: #1fa188"/>
    <path d="M 355.945177 268.447067 
L 366.900233 283.064644 
L 372.65643 293.023646 
L 361.73245 281.186851 
z
" clip-path="url(#pd3279e176e)" style="fill: #25838e"/>
    <path d="M 333.897935 246.378485 
L 344.943131 255.864029 
L 350.780535 270.880209 
L 339.802485 262.890931 
z
" clip-path="url(#pd3279e176e)" style="fill: #20928c"/>
    <path d="M 143.273654 354.333822 
L 153.807643 351.268547 
L 160.409172 340.347557 
L 149.92091 344.918268 
z
" clip-path="url(#pd3279e176e)" style="fill: #38588c"/>
    <path d="M 443.701972 368.427321 
L 454.883862 374.870308 
L 460.666577 369.255692 
L 449.489112 363.48344 
z
" clip-path="url(#pd3279e176e)" style="fill: #3f4889"/>
    <path d="M 166.994061 329.799832 
L 177.449076 320.652105 
L 184.000149 309.396092 
L 173.572088 320.052656 
z
" clip-path="url(#pd3279e176e)" style="fill: #2f6b8e"/>
    <path d="M 344.943131 255.864029 
L 355.945177 268.447067 
L 361.73245 281.186851 
L 350.780535 270.880209 
z
" clip-path="url(#pd3279e176e)" style="fill: #228c8d"/>
    <path d="M 214.191781 271.558743 
L 224.747021 252.388701 
L 231.36349 251.983363 
L 220.786482 269.649492 
z
" clip-path="url(#pd3279e176e)" style="fill: #20928c"/>
    <path d="M 190.563561 299.84499 
L 201.014729 284.237998 
L 207.595497 276.350272 
L 197.139518 292.386037 
z
" clip-path="url(#pd3279e176e)" style="fill: #26828e"/>
    <path d="M 119.25141 372.040091 
L 129.873925 372.955714 
L 136.594025 363.748389 
L 126.016401 363.804249 
z
" clip-path="url(#pd3279e176e)" style="fill: #3e4a89"/>
    <path d="M 101.793564 377.667356 
L 112.440954 380.076835 
L 119.25141 372.040091 
L 108.641402 370.202472 
z
" clip-path="url(#pd3279e176e)" style="fill: #404688"/>
    <path d="M 404.757535 340.974676 
L 415.730866 353.845538 
L 421.542387 351.594199 
L 410.55813 340.699073 
z
" clip-path="url(#pd3279e176e)" style="fill: #375b8d"/>
    <path d="M 415.730866 353.845538 
L 426.769444 364.511204 
L 432.588324 360.76641 
L 421.542387 351.594199 
z
" clip-path="url(#pd3279e176e)" style="fill: #3a538b"/>
    <path d="M 160.409172 340.347557 
L 170.903108 333.05234 
L 177.449076 320.652105 
L 166.994061 329.799832 
z
" clip-path="url(#pd3279e176e)" style="fill: #31678e"/>
    <path d="M 136.594025 363.748389 
L 147.177884 362.164967 
L 153.807643 351.268547 
L 143.273654 354.333822 
z
" clip-path="url(#pd3279e176e)" style="fill: #3a538b"/>
    <path d="M 393.833278 325.835453 
L 404.757535 340.974676 
L 410.55813 340.699073 
L 399.622835 328.036368 
z
" clip-path="url(#pd3279e176e)" style="fill: #32658e"/>
    <path d="M 426.769444 364.511204 
L 437.881215 373.245607 
L 443.701972 368.427321 
L 432.588324 360.76641 
z
" clip-path="url(#pd3279e176e)" style="fill: #3d4e8a"/>
    <path d="M 266.060627 230.159368 
L 277.037528 216.565176 
L 283.446695 231.960548 
L 272.512153 242.35898 
z
" clip-path="url(#pd3279e176e)" style="fill: #23a983"/>
    <path d="M 294.484804 224.095404 
L 305.601125 220.150769 
L 311.758551 239.184307 
L 300.724562 241.454476 
z
" clip-path="url(#pd3279e176e)" style="fill: #23a983"/>
    <path d="M 231.36349 251.983363 
L 242.062843 231.982627 
L 248.668473 237.208959 
L 237.955883 254.661486 
z
" clip-path="url(#pd3279e176e)" style="fill: #1fa188"/>
    <path d="M 382.934029 308.684311 
L 393.833278 325.835453 
L 399.622835 328.036368 
L 388.717282 313.812835 
z
" clip-path="url(#pd3279e176e)" style="fill: #2d708e"/>
    <path d="M 437.881215 373.245607 
L 449.067282 380.42487 
L 454.883862 374.870308 
L 443.701972 368.427321 
z
" clip-path="url(#pd3279e176e)" style="fill: #3e4989"/>
    <path d="M 184.000149 309.396092 
L 194.459681 295.035402 
L 201.014729 284.237998 
L 190.563561 299.84499 
z
" clip-path="url(#pd3279e176e)" style="fill: #277f8e"/>
    <path d="M 153.807643 351.268547 
L 164.349661 345.972679 
L 170.903108 333.05234 
L 160.409172 340.347557 
z
" clip-path="url(#pd3279e176e)" style="fill: #34618d"/>
    <path d="M 248.668473 237.208959 
L 259.522483 219.187407 
L 266.060627 230.159368 
L 255.217554 244.979994 
z
" clip-path="url(#pd3279e176e)" style="fill: #23a983"/>
    <path d="M 112.440954 380.076835 
L 123.106747 381.824394 
L 129.873925 372.955714 
L 119.25141 372.040091 
z
" clip-path="url(#pd3279e176e)" style="fill: #3e4989"/>
    <path d="M 129.873925 372.955714 
L 140.508605 372.724384 
L 147.177884 362.164967 
L 136.594025 363.748389 
z
" clip-path="url(#pd3279e176e)" style="fill: #3c508b"/>
    <path d="M 372.030501 290.17462 
L 382.934029 308.684311 
L 388.717282 313.812835 
L 377.817798 298.545151 
z
" clip-path="url(#pd3279e176e)" style="fill: #287c8e"/>
    <path d="M 94.899532 385.005936 
L 105.581965 387.879168 
L 112.440954 380.076835 
L 101.793564 377.667356 
z
" clip-path="url(#pd3279e176e)" style="fill: #404588"/>
    <path d="M 207.595497 276.350272 
L 218.13185 256.644848 
L 224.747021 252.388701 
L 214.191781 271.558743 
z
" clip-path="url(#pd3279e176e)" style="fill: #1f958b"/>
    <path d="M 177.449076 320.652105 
L 187.93142 308.196746 
L 194.459681 295.035402 
L 184.000149 309.396092 
z
" clip-path="url(#pd3279e176e)" style="fill: #297a8e"/>
    <path d="M 147.177884 362.164967 
L 157.773467 358.833828 
L 164.349661 345.972679 
L 153.807643 351.268547 
z
" clip-path="url(#pd3279e176e)" style="fill: #375b8d"/>
    <path d="M 305.601125 220.150769 
L 316.758786 221.11128 
L 322.827103 240.732051 
L 311.758551 239.184307 
z
" clip-path="url(#pd3279e176e)" style="fill: #26ad81"/>
    <path d="M 409.8742 356.047232 
L 420.908864 368.238946 
L 426.769444 364.511204 
L 415.730866 353.845538 
z
" clip-path="url(#pd3279e176e)" style="fill: #38588c"/>
    <path d="M 361.093227 271.366431 
L 372.030501 290.17462 
L 377.817798 298.545151 
L 366.900233 283.064644 
z
" clip-path="url(#pd3279e176e)" style="fill: #23898e"/>
    <path d="M 420.908864 368.238946 
L 432.021188 378.068867 
L 437.881215 373.245607 
L 426.769444 364.511204 
z
" clip-path="url(#pd3279e176e)" style="fill: #3c508b"/>
    <path d="M 398.907142 341.154114 
L 409.8742 356.047232 
L 415.730866 353.845538 
L 404.757535 340.974676 
z
" clip-path="url(#pd3279e176e)" style="fill: #34618d"/>
    <path d="M 123.106747 381.824394 
L 133.790521 382.748413 
L 140.508605 372.724384 
L 129.873925 372.955714 
z
" clip-path="url(#pd3279e176e)" style="fill: #3d4d8a"/>
    <path d="M 432.021188 378.068867 
L 443.213065 385.998801 
L 449.067282 380.42487 
L 437.881215 373.245607 
z
" clip-path="url(#pd3279e176e)" style="fill: #3e4a89"/>
    <path d="M 105.581965 387.879168 
L 116.288023 390.298872 
L 123.106747 381.824394 
L 112.440954 380.076835 
z
" clip-path="url(#pd3279e176e)" style="fill: #3f4788"/>
    <path d="M 170.903108 333.05234 
L 181.421799 322.933645 
L 187.93142 308.196746 
L 177.449076 320.652105 
z
" clip-path="url(#pd3279e176e)" style="fill: #2c738e"/>
    <path d="M 350.09914 253.640005 
L 361.093227 271.366431 
L 366.900233 283.064644 
L 355.945177 268.447067 
z
" clip-path="url(#pd3279e176e)" style="fill: #1f958b"/>
    <path d="M 387.987952 323.474656 
L 398.907142 341.154114 
L 404.757535 340.974676 
L 393.833278 325.835453 
z
" clip-path="url(#pd3279e176e)" style="fill: #2e6d8e"/>
    <path d="M 140.508605 372.724384 
L 151.159451 371.182504 
L 157.773467 358.833828 
L 147.177884 362.164967 
z
" clip-path="url(#pd3279e176e)" style="fill: #39568c"/>
    <path d="M 87.958214 392.221013 
L 98.672885 395.451646 
L 105.581965 387.879168 
L 94.899532 385.005936 
z
" clip-path="url(#pd3279e176e)" style="fill: #404588"/>
    <path d="M 316.758786 221.11128 
L 327.91659 227.342376 
L 333.897935 246.378485 
L 322.827103 240.732051 
z
" clip-path="url(#pd3279e176e)" style="fill: #26ad81"/>
    <path d="M 277.037528 216.565176 
L 288.138375 206.062316 
L 294.484804 224.095404 
L 283.446695 231.960548 
z
" clip-path="url(#pd3279e176e)" style="fill: #32b67a"/>
    <path d="M 201.014729 284.237998 
L 211.540257 265.041742 
L 218.13185 256.644848 
L 207.595497 276.350272 
z
" clip-path="url(#pd3279e176e)" style="fill: #1f958b"/>
    <path d="M 339.038005 238.506413 
L 350.09914 253.640005 
L 355.945177 268.447067 
L 344.943131 255.864029 
z
" clip-path="url(#pd3279e176e)" style="fill: #1fa188"/>
    <path d="M 224.747021 252.388701 
L 235.427193 230.697194 
L 242.062843 231.982627 
L 231.36349 251.983363 
z
" clip-path="url(#pd3279e176e)" style="fill: #23a983"/>
    <path d="M 164.349661 345.972679 
L 174.915464 338.371329 
L 181.421799 322.933645 
L 170.903108 333.05234 
z
" clip-path="url(#pd3279e176e)" style="fill: #2e6d8e"/>
    <path d="M 327.91659 227.342376 
L 339.038005 238.506413 
L 344.943131 255.864029 
L 333.897935 246.378485 
z
" clip-path="url(#pd3279e176e)" style="fill: #23a983"/>
    <path d="M 377.087747 303.31291 
L 387.987952 323.474656 
L 393.833278 325.835453 
L 382.934029 308.684311 
z
" clip-path="url(#pd3279e176e)" style="fill: #297a8e"/>
    <path d="M 116.288023 390.298872 
L 127.017311 392.153739 
L 133.790521 382.748413 
L 123.106747 381.824394 
z
" clip-path="url(#pd3279e176e)" style="fill: #3e4989"/>
    <path d="M 133.790521 382.748413 
L 144.495081 382.732243 
L 151.159451 371.182504 
L 140.508605 372.724384 
z
" clip-path="url(#pd3279e176e)" style="fill: #3b518b"/>
    <path d="M 157.773467 358.833828 
L 168.393261 353.701034 
L 174.915464 338.371329 
L 164.349661 345.972679 
z
" clip-path="url(#pd3279e176e)" style="fill: #32658e"/>
    <path d="M 98.672885 395.451646 
L 109.415515 398.38654 
L 116.288023 390.298872 
L 105.581965 387.879168 
z
" clip-path="url(#pd3279e176e)" style="fill: #404588"/>
    <path d="M 414.997684 372.213898 
L 426.115686 383.06441 
L 432.021188 378.068867 
L 420.908864 368.238946 
z
" clip-path="url(#pd3279e176e)" style="fill: #3b528b"/>
    <path d="M 403.960144 358.599555 
L 414.997684 372.213898 
L 420.908864 368.238946 
L 409.8742 356.047232 
z
" clip-path="url(#pd3279e176e)" style="fill: #375b8d"/>
    <path d="M 426.115686 383.06441 
L 437.317046 391.693685 
L 443.213065 385.998801 
L 432.021188 378.068867 
z
" clip-path="url(#pd3279e176e)" style="fill: #3d4d8a"/>
    <path d="M 194.459681 295.035402 
L 204.986552 277.326664 
L 211.540257 265.041742 
L 201.014729 284.237998 
z
" clip-path="url(#pd3279e176e)" style="fill: #20928c"/>
    <path d="M 259.522483 219.187407 
L 270.529838 202.574866 
L 277.037528 216.565176 
L 266.060627 230.159368 
z
" clip-path="url(#pd3279e176e)" style="fill: #3aba76"/>
    <path d="M 242.062843 231.982627 
L 252.915721 211.312793 
L 259.522483 219.187407 
L 248.668473 237.208959 
z
" clip-path="url(#pd3279e176e)" style="fill: #32b67a"/>
    <path d="M 80.969322 399.331861 
L 91.713419 402.825948 
L 98.672885 395.451646 
L 87.958214 392.221013 
z
" clip-path="url(#pd3279e176e)" style="fill: #414487"/>
    <path d="M 392.990857 341.818793 
L 403.960144 358.599555 
L 409.8742 356.047232 
L 398.907142 341.154114 
z
" clip-path="url(#pd3279e176e)" style="fill: #31678e"/>
    <path d="M 366.171828 281.45969 
L 377.087747 303.31291 
L 382.934029 308.684311 
L 372.030501 290.17462 
z
" clip-path="url(#pd3279e176e)" style="fill: #23898e"/>
    <path d="M 151.159451 371.182504 
L 161.835962 368.292859 
L 168.393261 353.701034 
L 157.773467 358.833828 
z
" clip-path="url(#pd3279e176e)" style="fill: #355e8d"/>
    <path d="M 127.017311 392.153739 
L 137.771734 393.363926 
L 144.495081 382.732243 
L 133.790521 382.748413 
z
" clip-path="url(#pd3279e176e)" style="fill: #3d4d8a"/>
    <path d="M 109.415515 398.38654 
L 120.185796 400.952211 
L 127.017311 392.153739 
L 116.288023 390.298872 
z
" clip-path="url(#pd3279e176e)" style="fill: #3f4788"/>
    <path d="M 187.93142 308.196746 
L 198.473934 292.761065 
L 204.986552 277.326664 
L 194.459681 295.035402 
z
" clip-path="url(#pd3279e176e)" style="fill: #228c8d"/>
    <path d="M 288.138375 206.062316 
L 299.334493 200.371613 
L 305.601125 220.150769 
L 294.484804 224.095404 
z
" clip-path="url(#pd3279e176e)" style="fill: #42be71"/>
    <path d="M 382.066706 321.763773 
L 392.990857 341.818793 
L 398.907142 341.154114 
L 387.987952 323.474656 
z
" clip-path="url(#pd3279e176e)" style="fill: #2c738e"/>
    <path d="M 218.13185 256.644848 
L 228.791708 234.348866 
L 235.427193 230.697194 
L 224.747021 252.388701 
z
" clip-path="url(#pd3279e176e)" style="fill: #26ad81"/>
    <path d="M 91.713419 402.825948 
L 102.488868 406.137512 
L 109.415515 398.38654 
L 98.672885 395.451646 
z
" clip-path="url(#pd3279e176e)" style="fill: #404588"/>
    <path d="M 144.495081 382.732243 
L 155.227369 381.75114 
L 161.835962 368.292859 
L 151.159451 371.182504 
z
" clip-path="url(#pd3279e176e)" style="fill: #39568c"/>
    <path d="M 181.421799 322.933645 
L 191.994057 310.280838 
L 198.473934 292.761065 
L 187.93142 308.196746 
z
" clip-path="url(#pd3279e176e)" style="fill: #25838e"/>
    <path d="M 355.205831 259.209226 
L 366.171828 281.45969 
L 372.030501 290.17462 
L 361.093227 271.366431 
z
" clip-path="url(#pd3279e176e)" style="fill: #1f998a"/>
    <path d="M 409.02781 376.722344 
L 420.158982 388.413153 
L 426.115686 383.06441 
L 414.997684 372.213898 
z
" clip-path="url(#pd3279e176e)" style="fill: #39558c"/>
    <path d="M 174.915464 338.371329 
L 185.529288 328.709727 
L 191.994057 310.280838 
L 181.421799 322.933645 
z
" clip-path="url(#pd3279e176e)" style="fill: #297a8e"/>
    <path d="M 73.933108 406.366127 
L 84.704126 410.047504 
L 91.713419 402.825948 
L 80.969322 399.331861 
z
" clip-path="url(#pd3279e176e)" style="fill: #414487"/>
    <path d="M 420.158982 388.413153 
L 431.375325 397.619231 
L 437.317046 391.693685 
L 426.115686 383.06441 
z
" clip-path="url(#pd3279e176e)" style="fill: #3d4e8a"/>
    <path d="M 397.977756 361.937232 
L 409.02781 376.722344 
L 414.997684 372.213898 
L 403.960144 358.599555 
z
" clip-path="url(#pd3279e176e)" style="fill: #355f8d"/>
    <path d="M 120.185796 400.952211 
L 130.98499 403.0962 
L 137.771734 393.363926 
L 127.017311 392.153739 
z
" clip-path="url(#pd3279e176e)" style="fill: #3e4989"/>
    <path d="M 168.393261 353.701034 
L 179.056809 346.965286 
L 185.529288 328.709727 
L 174.915464 338.371329 
z
" clip-path="url(#pd3279e176e)" style="fill: #2d708e"/>
    <path d="M 137.771734 393.363926 
L 148.556168 393.913511 
L 155.227369 381.75114 
L 144.495081 382.732243 
z
" clip-path="url(#pd3279e176e)" style="fill: #3b518b"/>
    <path d="M 371.154467 298.779909 
L 382.066706 321.763773 
L 387.987952 323.474656 
L 377.087747 303.31291 
z
" clip-path="url(#pd3279e176e)" style="fill: #25838e"/>
    <path d="M 102.488868 406.137512 
L 113.295474 409.220061 
L 120.185796 400.952211 
L 109.415515 398.38654 
z
" clip-path="url(#pd3279e176e)" style="fill: #404588"/>
    <path d="M 161.835962 368.292859 
L 172.55325 364.209112 
L 179.056809 346.965286 
L 168.393261 353.701034 
z
" clip-path="url(#pd3279e176e)" style="fill: #31678e"/>
    <path d="M 386.994586 343.602258 
L 397.977756 361.937232 
L 403.960144 358.599555 
L 392.990857 341.818793 
z
" clip-path="url(#pd3279e176e)" style="fill: #2f6b8e"/>
    <path d="M 344.163656 238.257525 
L 355.205831 259.209226 
L 361.093227 271.366431 
L 350.09914 253.640005 
z
" clip-path="url(#pd3279e176e)" style="fill: #23a983"/>
    <path d="M 299.334493 200.371613 
L 310.582112 200.718488 
L 316.758786 221.11128 
L 305.601125 220.150769 
z
" clip-path="url(#pd3279e176e)" style="fill: #4ec36b"/>
    <path d="M 84.704126 410.047504 
L 95.509021 413.623498 
L 102.488868 406.137512 
L 91.713419 402.825948 
z
" clip-path="url(#pd3279e176e)" style="fill: #414487"/>
    <path d="M 211.540257 265.041742 
L 222.184121 243.314811 
L 228.791708 234.348866 
L 218.13185 256.644848 
z
" clip-path="url(#pd3279e176e)" style="fill: #26ad81"/>
    <path d="M 155.227369 381.75114 
L 165.998594 379.91843 
L 172.55325 364.209112 
L 161.835962 368.292859 
z
" clip-path="url(#pd3279e176e)" style="fill: #355e8d"/>
    <path d="M 235.427193 230.697194 
L 246.268606 208.266251 
L 252.915721 211.312793 
L 242.062843 231.982627 
z
" clip-path="url(#pd3279e176e)" style="fill: #42be71"/>
    <path d="M 270.529838 202.574866 
L 281.682363 189.574463 
L 288.138375 206.062316 
L 277.037528 216.565176 
z
" clip-path="url(#pd3279e176e)" style="fill: #5ac864"/>
    <path d="M 130.98499 403.0962 
L 141.816405 404.808573 
L 148.556168 393.913511 
L 137.771734 393.363926 
z
" clip-path="url(#pd3279e176e)" style="fill: #3d4d8a"/>
    <path d="M 113.295474 409.220061 
L 124.134067 412.040527 
L 130.98499 403.0962 
L 120.185796 400.952211 
z
" clip-path="url(#pd3279e176e)" style="fill: #3f4788"/>
    <path d="M 333.03515 220.471289 
L 344.163656 238.257525 
L 350.09914 253.640005 
L 339.038005 238.506413 
z
" clip-path="url(#pd3279e176e)" style="fill: #32b67a"/>
    <path d="M 376.052323 321.588865 
L 386.994586 343.602258 
L 392.990857 341.818793 
L 382.066706 321.763773 
z
" clip-path="url(#pd3279e176e)" style="fill: #297a8e"/>
    <path d="M 402.99353 382.023852 
L 414.146898 394.278902 
L 420.158982 388.413153 
L 409.02781 376.722344 
z
" clip-path="url(#pd3279e176e)" style="fill: #39568c"/>
    <path d="M 310.582112 200.718488 
L 321.830921 207.558633 
L 327.91659 227.342376 
L 316.758786 221.11128 
z
" clip-path="url(#pd3279e176e)" style="fill: #4ec36b"/>
    <path d="M 414.146898 394.278902 
L 425.384966 403.874681 
L 431.375325 397.619231 
L 420.158982 388.413153 
z
" clip-path="url(#pd3279e176e)" style="fill: #3c4f8a"/>
    <path d="M 360.214801 273.783849 
L 371.154467 298.779909 
L 377.087747 303.31291 
L 366.171828 281.45969 
z
" clip-path="url(#pd3279e176e)" style="fill: #1f958b"/>
    <path d="M 148.556168 393.913511 
L 159.3786 393.882193 
L 165.998594 379.91843 
L 155.227369 381.75114 
z
" clip-path="url(#pd3279e176e)" style="fill: #39568c"/>
    <path d="M 95.509021 413.623498 
L 106.34771 417.06593 
L 113.295474 409.220061 
L 102.488868 406.137512 
z
" clip-path="url(#pd3279e176e)" style="fill: #404588"/>
    <path d="M 252.915721 211.312793 
L 263.939089 192.196698 
L 270.529838 202.574866 
L 259.522483 219.187407 
z
" clip-path="url(#pd3279e176e)" style="fill: #5ac864"/>
    <path d="M 321.830921 207.558633 
L 333.03515 220.471289 
L 339.038005 238.506413 
L 327.91659 227.342376 
z
" clip-path="url(#pd3279e176e)" style="fill: #42be71"/>
    <path d="M 391.919597 366.455212 
L 402.99353 382.023852 
L 409.02781 376.722344 
L 397.977756 361.937232 
z
" clip-path="url(#pd3279e176e)" style="fill: #34618d"/>
    <path d="M 204.986552 277.326664 
L 215.623591 257.266528 
L 222.184121 243.314811 
L 211.540257 265.041742 
z
" clip-path="url(#pd3279e176e)" style="fill: #23a983"/>
    <path d="M 198.473934 292.761065 
L 209.116492 275.245118 
L 215.623591 257.266528 
L 204.986552 277.326664 
z
" clip-path="url(#pd3279e176e)" style="fill: #1fa188"/>
    <path d="M 380.909173 347.081643 
L 391.919597 366.455212 
L 397.977756 361.937232 
L 386.994586 343.602258 
z
" clip-path="url(#pd3279e176e)" style="fill: #2e6f8e"/>
    <path d="M 124.134067 412.040527 
L 135.006824 414.592902 
L 141.816405 404.808573 
L 130.98499 403.0962 
z
" clip-path="url(#pd3279e176e)" style="fill: #3e4989"/>
    <path d="M 179.056809 346.965286 
L 189.788825 339.139187 
L 196.221404 317.633802 
L 185.529288 328.709727 
z
" clip-path="url(#pd3279e176e)" style="fill: #287c8e"/>
    <path d="M 141.816405 404.808573 
L 152.685511 406.142799 
L 159.3786 393.882193 
L 148.556168 393.913511 
z
" clip-path="url(#pd3279e176e)" style="fill: #3c508b"/>
    <path d="M 172.55325 364.209112 
L 183.330644 359.320499 
L 189.788825 339.139187 
L 179.056809 346.965286 
z
" clip-path="url(#pd3279e176e)" style="fill: #2d708e"/>
    <path d="M 185.529288 328.709727 
L 196.221404 317.633802 
L 202.655396 295.873016 
L 191.994057 310.280838 
z
" clip-path="url(#pd3279e176e)" style="fill: #23898e"/>
    <path d="M 191.994057 310.280838 
L 202.655396 295.873016 
L 209.116492 275.245118 
L 198.473934 292.761065 
z
" clip-path="url(#pd3279e176e)" style="fill: #1f958b"/>
    <path d="M 106.34771 417.06593 
L 117.220749 420.354816 
L 124.134067 412.040527 
L 113.295474 409.220061 
z
" clip-path="url(#pd3279e176e)" style="fill: #404588"/>
    <path d="M 165.998594 379.91843 
L 176.823251 377.516861 
L 183.330644 359.320499 
L 172.55325 364.209112 
z
" clip-path="url(#pd3279e176e)" style="fill: #32658e"/>
    <path d="M 365.114345 296.274182 
L 376.052323 321.588865 
L 382.066706 321.763773 
L 371.154467 298.779909 
z
" clip-path="url(#pd3279e176e)" style="fill: #228c8d"/>
    <path d="M 349.209439 248.288166 
L 360.214801 273.783849 
L 366.171828 281.45969 
L 355.205831 259.209226 
z
" clip-path="url(#pd3279e176e)" style="fill: #23a983"/>
    <path d="M 396.892703 388.301449 
L 408.077639 400.777073 
L 414.146898 394.278902 
L 402.99353 382.023852 
z
" clip-path="url(#pd3279e176e)" style="fill: #38588c"/>
    <path d="M 408.077639 400.777073 
L 419.344554 410.529957 
L 425.384966 403.874681 
L 414.146898 394.278902 
z
" clip-path="url(#pd3279e176e)" style="fill: #3c508b"/>
    <path d="M 159.3786 393.882193 
L 170.249454 393.466455 
L 176.823251 377.516861 
L 165.998594 379.91843 
z
" clip-path="url(#pd3279e176e)" style="fill: #375b8d"/>
    <path d="M 228.791708 234.348866 
L 239.615186 211.286793 
L 246.268606 208.266251 
L 235.427193 230.697194 
z
" clip-path="url(#pd3279e176e)" style="fill: #4ec36b"/>
    <path d="M 385.783348 372.432361 
L 396.892703 388.301449 
L 402.99353 382.023852 
L 391.919597 366.455212 
z
" clip-path="url(#pd3279e176e)" style="fill: #33638d"/>
    <path d="M 281.682363 189.574463 
L 292.949344 182.227639 
L 299.334493 200.371613 
L 288.138375 206.062316 
z
" clip-path="url(#pd3279e176e)" style="fill: #75d054"/>
    <path d="M 135.006824 414.592902 
L 145.917361 416.911431 
L 152.685511 406.142799 
L 141.816405 404.808573 
z
" clip-path="url(#pd3279e176e)" style="fill: #3e4a89"/>
    <path d="M 369.934252 323.759845 
L 380.909173 347.081643 
L 386.994586 343.602258 
L 376.052323 321.588865 
z
" clip-path="url(#pd3279e176e)" style="fill: #277f8e"/>
    <path d="M 117.220749 420.354816 
L 128.129541 423.486646 
L 135.006824 414.592902 
L 124.134067 412.040527 
z
" clip-path="url(#pd3279e176e)" style="fill: #404688"/>
    <path d="M 152.685511 406.142799 
L 163.599514 407.229512 
L 170.249454 393.466455 
L 159.3786 393.882193 
z
" clip-path="url(#pd3279e176e)" style="fill: #3a538b"/>
    <path d="M 374.732485 352.665235 
L 385.783348 372.432361 
L 391.919597 366.455212 
L 380.909173 347.081643 
z
" clip-path="url(#pd3279e176e)" style="fill: #2d708e"/>
    <path d="M 338.11036 224.286989 
L 349.209439 248.288166 
L 355.205831 259.209226 
L 344.163656 238.257525 
z
" clip-path="url(#pd3279e176e)" style="fill: #3aba76"/>
    <path d="M 354.137995 268.676417 
L 365.114345 296.274182 
L 371.154467 298.779909 
L 360.214801 273.783849 
z
" clip-path="url(#pd3279e176e)" style="fill: #1fa188"/>
    <path d="M 176.823251 377.516861 
L 187.716912 375.000078 
L 194.188671 354.255605 
L 183.330644 359.320499 
z
" clip-path="url(#pd3279e176e)" style="fill: #2e6d8e"/>
    <path d="M 390.727209 395.624009 
L 401.952137 407.951152 
L 408.077639 400.777073 
L 396.892703 388.301449 
z
" clip-path="url(#pd3279e176e)" style="fill: #38588c"/>
    <path d="M 183.330644 359.320499 
L 194.188671 354.255605 
L 200.615221 331.056964 
L 189.788825 339.139187 
z
" clip-path="url(#pd3279e176e)" style="fill: #297a8e"/>
    <path d="M 401.952137 407.951152 
L 413.25444 417.611484 
L 419.344554 410.529957 
L 408.077639 400.777073 
z
" clip-path="url(#pd3279e176e)" style="fill: #3c508b"/>
    <path d="M 170.249454 393.466455 
L 181.180062 392.979909 
L 187.716912 375.000078 
L 176.823251 377.516861 
z
" clip-path="url(#pd3279e176e)" style="fill: #34618d"/>
    <path d="M 145.917361 416.911431 
L 156.870474 419.079231 
L 163.599514 407.229512 
L 152.685511 406.142799 
z
" clip-path="url(#pd3279e176e)" style="fill: #3d4e8a"/>
    <path d="M 246.268606 208.266251 
L 257.293263 187.482317 
L 263.939089 192.196698 
L 252.915721 211.312793 
z
" clip-path="url(#pd3279e176e)" style="fill: #75d054"/>
    <path d="M 128.129541 423.486646 
L 139.076409 426.482381 
L 145.917361 416.911431 
L 135.006824 414.592902 
z
" clip-path="url(#pd3279e176e)" style="fill: #3f4889"/>
    <path d="M 222.184121 243.314811 
L 232.988411 220.844508 
L 239.615186 211.286793 
L 228.791708 234.348866 
z
" clip-path="url(#pd3279e176e)" style="fill: #4ec36b"/>
    <path d="M 263.939089 192.196698 
L 275.127656 177.120597 
L 281.682363 189.574463 
L 270.529838 202.574866 
z
" clip-path="url(#pd3279e176e)" style="fill: #86d549"/>
    <path d="M 379.572346 379.973606 
L 390.727209 395.624009 
L 396.892703 388.301449 
L 385.783348 372.432361 
z
" clip-path="url(#pd3279e176e)" style="fill: #33638d"/>
    <path d="M 189.788825 339.139187 
L 200.615221 331.056964 
L 207.023124 306.203801 
L 196.221404 317.633802 
z
" clip-path="url(#pd3279e176e)" style="fill: #23898e"/>
    <path d="M 292.949344 182.227639 
L 304.281212 181.992581 
L 310.582112 200.718488 
L 299.334493 200.371613 
z
" clip-path="url(#pd3279e176e)" style="fill: #86d549"/>
    <path d="M 358.956166 296.886797 
L 369.934252 323.759845 
L 376.052323 321.588865 
L 365.114345 296.274182 
z
" clip-path="url(#pd3279e176e)" style="fill: #20928c"/>
    <path d="M 163.599514 407.229512 
L 174.566326 408.276396 
L 181.180062 392.979909 
L 170.249454 393.466455 
z
" clip-path="url(#pd3279e176e)" style="fill: #38588c"/>
    <path d="M 363.711155 328.851105 
L 374.732485 352.665235 
L 380.909173 347.081643 
L 369.934252 323.759845 
z
" clip-path="url(#pd3279e176e)" style="fill: #26828e"/>
    <path d="M 196.221404 317.633802 
L 207.023124 306.203801 
L 213.441992 281.000349 
L 202.655396 295.873016 
z
" clip-path="url(#pd3279e176e)" style="fill: #1f998a"/>
    <path d="M 326.90854 203.986211 
L 338.11036 224.286989 
L 344.163656 238.257525 
L 333.03515 220.471289 
z
" clip-path="url(#pd3279e176e)" style="fill: #5ac864"/>
    <path d="M 215.623591 257.266528 
L 226.4128 236.530363 
L 232.988411 220.844508 
L 222.184121 243.314811 
z
" clip-path="url(#pd3279e176e)" style="fill: #42be71"/>
    <path d="M 368.46998 360.506774 
L 379.572346 379.973606 
L 385.783348 372.432361 
L 374.732485 352.665235 
z
" clip-path="url(#pd3279e176e)" style="fill: #2d708e"/>
    <path d="M 202.655396 295.873016 
L 213.441992 281.000349 
L 219.899008 257.15173 
L 209.116492 275.245118 
z
" clip-path="url(#pd3279e176e)" style="fill: #23a983"/>
    <path d="M 139.076409 426.482381 
L 150.064441 429.392638 
L 156.870474 419.079231 
L 145.917361 416.911431 
z
" clip-path="url(#pd3279e176e)" style="fill: #3e4989"/>
    <path d="M 156.870474 419.079231 
L 167.871479 421.228051 
L 174.566326 408.276396 
L 163.599514 407.229512 
z
" clip-path="url(#pd3279e176e)" style="fill: #3c508b"/>
    <path d="M 209.116492 275.245118 
L 219.899008 257.15173 
L 226.4128 236.530363 
L 215.623591 257.266528 
z
" clip-path="url(#pd3279e176e)" style="fill: #32b67a"/>
    <path d="M 304.281212 181.992581 
L 315.619232 189.412535 
L 321.830921 207.558633 
L 310.582112 200.718488 
z
" clip-path="url(#pd3279e176e)" style="fill: #86d549"/>
    <path d="M 384.502495 403.931672 
L 395.773794 415.763586 
L 401.952137 407.951152 
L 390.727209 395.624009 
z
" clip-path="url(#pd3279e176e)" style="fill: #39568c"/>
    <path d="M 315.619232 189.412535 
L 326.90854 203.986211 
L 333.03515 220.471289 
L 321.830921 207.558633 
z
" clip-path="url(#pd3279e176e)" style="fill: #75d054"/>
    <path d="M 395.773794 415.763586 
L 407.116603 425.096716 
L 413.25444 417.611484 
L 401.952137 407.951152 
z
" clip-path="url(#pd3279e176e)" style="fill: #3c4f8a"/>
    <path d="M 181.180062 392.979909 
L 192.18046 392.825646 
L 198.693129 372.953449 
L 187.716912 375.000078 
z
" clip-path="url(#pd3279e176e)" style="fill: #31678e"/>
    <path d="M 343.082649 240.487328 
L 354.137995 268.676417 
L 360.214801 273.783849 
L 349.209439 248.288166 
z
" clip-path="url(#pd3279e176e)" style="fill: #32b67a"/>
    <path d="M 187.716912 375.000078 
L 198.693129 372.953449 
L 205.144845 349.829494 
L 194.188671 354.255605 
z
" clip-path="url(#pd3279e176e)" style="fill: #2c738e"/>
    <path d="M 373.294833 388.987459 
L 384.502495 403.931672 
L 390.727209 395.624009 
L 379.572346 379.973606 
z
" clip-path="url(#pd3279e176e)" style="fill: #34618d"/>
    <path d="M 174.566326 408.276396 
L 185.59308 409.5496 
L 192.18046 392.825646 
L 181.180062 392.979909 
z
" clip-path="url(#pd3279e176e)" style="fill: #375b8d"/>
    <path d="M 194.188671 354.255605 
L 205.144845 349.829494 
L 211.557646 323.806557 
L 200.615221 331.056964 
z
" clip-path="url(#pd3279e176e)" style="fill: #25838e"/>
    <path d="M 150.064441 429.392638 
L 161.097086 432.297487 
L 167.871479 421.228051 
L 156.870474 419.079231 
z
" clip-path="url(#pd3279e176e)" style="fill: #3e4a89"/>
    <path d="M 357.39141 337.079224 
L 368.46998 360.506774 
L 374.732485 352.665235 
L 363.711155 328.851105 
z
" clip-path="url(#pd3279e176e)" style="fill: #26828e"/>
    <path d="M 347.930714 267.547107 
L 358.956166 296.886797 
L 365.114345 296.274182 
L 354.137995 268.676417 
z
" clip-path="url(#pd3279e176e)" style="fill: #23a983"/>
    <path d="M 362.133519 370.472032 
L 373.294833 388.987459 
L 379.572346 379.973606 
L 368.46998 360.506774 
z
" clip-path="url(#pd3279e176e)" style="fill: #2e6f8e"/>
    <path d="M 239.615186 211.286793 
L 250.62867 189.905065 
L 257.293263 187.482317 
L 246.268606 208.266251 
z
" clip-path="url(#pd3279e176e)" style="fill: #86d549"/>
    <path d="M 167.871479 421.228051 
L 178.925248 423.526372 
L 185.59308 409.5496 
L 174.566326 408.276396 
z
" clip-path="url(#pd3279e176e)" style="fill: #3b528b"/>
    <path d="M 352.680271 301.393835 
L 363.711155 328.851105 
L 369.934252 323.759845 
L 358.956166 296.886797 
z
" clip-path="url(#pd3279e176e)" style="fill: #1f958b"/>
    <path d="M 200.615221 331.056964 
L 211.557646 323.806557 
L 217.959991 295.811208 
L 207.023124 306.203801 
z
" clip-path="url(#pd3279e176e)" style="fill: #1f958b"/>
    <path d="M 275.127656 177.120597 
L 286.450342 168.396258 
L 292.949344 182.227639 
L 281.682363 189.574463 
z
" clip-path="url(#pd3279e176e)" style="fill: #aadc32"/>
    <path d="M 378.226355 413.048661 
L 389.547695 424.103799 
L 395.773794 415.763586 
L 384.502495 403.931672 
z
" clip-path="url(#pd3279e176e)" style="fill: #39558c"/>
    <path d="M 389.547695 424.103799 
L 400.934161 432.918963 
L 407.116603 425.096716 
L 395.773794 415.763586 
z
" clip-path="url(#pd3279e176e)" style="fill: #3d4e8a"/>
    <path d="M 366.962133 399.205743 
L 378.226355 413.048661 
L 384.502495 403.931672 
L 373.294833 388.987459 
z
" clip-path="url(#pd3279e176e)" style="fill: #355f8d"/>
    <path d="M 192.18046 392.825646 
L 203.257068 393.440484 
L 209.76017 372.013414 
L 198.693129 372.953449 
z
" clip-path="url(#pd3279e176e)" style="fill: #2f6b8e"/>
    <path d="M 185.59308 409.5496 
L 196.68453 411.336821 
L 203.257068 393.440484 
L 192.18046 392.825646 
z
" clip-path="url(#pd3279e176e)" style="fill: #355f8d"/>
    <path d="M 331.919862 213.948497 
L 343.082649 240.487328 
L 349.209439 248.288166 
L 338.11036 224.286989 
z
" clip-path="url(#pd3279e176e)" style="fill: #5ac864"/>
    <path d="M 161.097086 432.297487 
L 172.177555 435.299161 
L 178.925248 423.526372 
L 167.871479 421.228051 
z
" clip-path="url(#pd3279e176e)" style="fill: #3d4d8a"/>
    <path d="M 198.693129 372.953449 
L 209.76017 372.013414 
L 216.209297 346.932005 
L 205.144845 349.829494 
z
" clip-path="url(#pd3279e176e)" style="fill: #297a8e"/>
    <path d="M 257.293263 187.482317 
L 268.499657 171.022224 
L 275.127656 177.120597 
L 263.939089 192.196698 
z
" clip-path="url(#pd3279e176e)" style="fill: #aadc32"/>
    <path d="M 355.738752 382.168088 
L 366.962133 399.205743 
L 373.294833 388.987459 
L 362.133519 370.472032 
z
" clip-path="url(#pd3279e176e)" style="fill: #2f6b8e"/>
    <path d="M 350.991306 348.255078 
L 362.133519 370.472032 
L 368.46998 360.506774 
L 357.39141 337.079224 
z
" clip-path="url(#pd3279e176e)" style="fill: #277f8e"/>
    <path d="M 178.925248 423.526372 
L 190.035159 426.155982 
L 196.68453 411.336821 
L 185.59308 409.5496 
z
" clip-path="url(#pd3279e176e)" style="fill: #39558c"/>
    <path d="M 207.023124 306.203801 
L 217.959991 295.811208 
L 224.382548 267.367049 
L 213.441992 281.000349 
z
" clip-path="url(#pd3279e176e)" style="fill: #23a983"/>
    <path d="M 232.988411 220.844508 
L 243.982639 200.025055 
L 250.62867 189.905065 
L 239.615186 211.286793 
z
" clip-path="url(#pd3279e176e)" style="fill: #86d549"/>
    <path d="M 346.298824 310.088452 
L 357.39141 337.079224 
L 363.711155 328.851105 
L 352.680271 301.393835 
z
" clip-path="url(#pd3279e176e)" style="fill: #1f958b"/>
    <path d="M 205.144845 349.829494 
L 216.209297 346.932005 
L 222.627849 318.581483 
L 211.557646 323.806557 
z
" clip-path="url(#pd3279e176e)" style="fill: #228c8d"/>
    <path d="M 371.907297 422.719672 
L 383.279522 432.81097 
L 389.547695 424.103799 
L 378.226355 413.048661 
z
" clip-path="url(#pd3279e176e)" style="fill: #3b528b"/>
    <path d="M 360.586302 410.239557 
L 371.907297 422.719672 
L 378.226355 413.048661 
L 366.962133 399.205743 
z
" clip-path="url(#pd3279e176e)" style="fill: #375b8d"/>
    <path d="M 196.68453 411.336821 
L 207.841816 413.898156 
L 214.410908 395.22015 
L 203.257068 393.440484 
z
" clip-path="url(#pd3279e176e)" style="fill: #34618d"/>
    <path d="M 203.257068 393.440484 
L 214.410908 395.22015 
L 220.918587 372.758116 
L 209.76017 372.013414 
z
" clip-path="url(#pd3279e176e)" style="fill: #2e6f8e"/>
    <path d="M 383.279522 432.81097 
L 394.710686 440.981097 
L 400.934161 432.918963 
L 389.547695 424.103799 
z
" clip-path="url(#pd3279e176e)" style="fill: #3d4d8a"/>
    <path d="M 213.441992 281.000349 
L 224.382548 267.367049 
L 230.852126 240.47796 
L 219.899008 257.15173 
z
" clip-path="url(#pd3279e176e)" style="fill: #3aba76"/>
    <path d="M 172.177555 435.299161 
L 183.308163 438.507834 
L 190.035159 426.155982 
L 178.925248 423.526372 
z
" clip-path="url(#pd3279e176e)" style="fill: #3d4e8a"/>
    <path d="M 336.816844 237.551283 
L 347.930714 267.547107 
L 354.137995 268.676417 
L 343.082649 240.487328 
z
" clip-path="url(#pd3279e176e)" style="fill: #42be71"/>
    <path d="M 341.59609 271.401948 
L 352.680271 301.393835 
L 358.956166 296.886797 
L 347.930714 267.547107 
z
" clip-path="url(#pd3279e176e)" style="fill: #26ad81"/>
    <path d="M 344.531452 361.825699 
L 355.738752 382.168088 
L 362.133519 370.472032 
L 350.991306 348.255078 
z
" clip-path="url(#pd3279e176e)" style="fill: #297a8e"/>
    <path d="M 349.301885 395.026221 
L 360.586302 410.239557 
L 366.962133 399.205743 
L 355.738752 382.168088 
z
" clip-path="url(#pd3279e176e)" style="fill: #31678e"/>
    <path d="M 286.450342 168.396258 
L 297.85366 167.679136 
L 304.281212 181.992581 
L 292.949344 182.227639 
z
" clip-path="url(#pd3279e176e)" style="fill: #c0df25"/>
    <path d="M 190.035159 426.155982 
L 201.202264 429.280991 
L 207.841816 413.898156 
L 196.68453 411.336821 
z
" clip-path="url(#pd3279e176e)" style="fill: #39568c"/>
    <path d="M 320.642889 191.54989 
L 331.919862 213.948497 
L 338.11036 224.286989 
L 326.90854 203.986211 
z
" clip-path="url(#pd3279e176e)" style="fill: #86d549"/>
    <path d="M 226.4128 236.530363 
L 237.385148 217.355406 
L 243.982639 200.025055 
L 232.988411 220.844508 
z
" clip-path="url(#pd3279e176e)" style="fill: #75d054"/>
    <path d="M 219.899008 257.15173 
L 230.852126 240.47796 
L 237.385148 217.355406 
L 226.4128 236.530363 
z
" clip-path="url(#pd3279e176e)" style="fill: #5ac864"/>
    <path d="M 209.76017 372.013414 
L 220.918587 372.758116 
L 227.381567 346.374216 
L 216.209297 346.932005 
z
" clip-path="url(#pd3279e176e)" style="fill: #277f8e"/>
    <path d="M 211.557646 323.806557 
L 222.627849 318.581483 
L 229.044819 287.990693 
L 217.959991 295.811208 
z
" clip-path="url(#pd3279e176e)" style="fill: #1fa188"/>
    <path d="M 339.833206 322.714802 
L 350.991306 348.255078 
L 357.39141 337.079224 
L 346.298824 310.088452 
z
" clip-path="url(#pd3279e176e)" style="fill: #20928c"/>
    <path d="M 354.177911 421.655029 
L 365.552957 432.659308 
L 371.907297 422.719672 
L 360.586302 410.239557 
z
" clip-path="url(#pd3279e176e)" style="fill: #38588c"/>
    <path d="M 338.032511 376.992535 
L 349.301885 395.026221 
L 355.738752 382.168088 
L 344.531452 361.825699 
z
" clip-path="url(#pd3279e176e)" style="fill: #2c738e"/>
    <path d="M 207.841816 413.898156 
L 219.061994 417.416054 
L 225.637007 398.442645 
L 214.410908 395.22015 
z
" clip-path="url(#pd3279e176e)" style="fill: #33638d"/>
    <path d="M 183.308163 438.507834 
L 194.48979 442.022866 
L 201.202264 429.280991 
L 190.035159 426.155982 
z
" clip-path="url(#pd3279e176e)" style="fill: #3c4f8a"/>
    <path d="M 365.552957 432.659308 
L 376.97447 441.705059 
L 383.279522 432.81097 
L 371.907297 422.719672 
z
" clip-path="url(#pd3279e176e)" style="fill: #3c508b"/>
    <path d="M 214.410908 395.22015 
L 225.637007 398.442645 
L 232.16048 375.594518 
L 220.918587 372.758116 
z
" clip-path="url(#pd3279e176e)" style="fill: #2d708e"/>
    <path d="M 342.836724 408.413588 
L 354.177911 421.655029 
L 360.586302 410.239557 
L 349.301885 395.026221 
z
" clip-path="url(#pd3279e176e)" style="fill: #34618d"/>
    <path d="M 309.272123 175.586908 
L 320.642889 191.54989 
L 326.90854 203.986211 
L 315.619232 189.412535 
z
" clip-path="url(#pd3279e176e)" style="fill: #aadc32"/>
    <path d="M 297.85366 167.679136 
L 309.272123 175.586908 
L 315.619232 189.412535 
L 304.281212 181.992581 
z
" clip-path="url(#pd3279e176e)" style="fill: #c0df25"/>
    <path d="M 201.202264 429.280991 
L 212.424953 433.016397 
L 219.061994 417.416054 
L 207.841816 413.898156 
z
" clip-path="url(#pd3279e176e)" style="fill: #38588c"/>
    <path d="M 216.209297 346.932005 
L 227.381567 346.374216 
L 233.823639 316.473969 
L 222.627849 318.581483 
z
" clip-path="url(#pd3279e176e)" style="fill: #20928c"/>
    <path d="M 376.97447 441.705059 
L 388.449488 449.174264 
L 394.710686 440.981097 
L 383.279522 432.81097 
z
" clip-path="url(#pd3279e176e)" style="fill: #3e4a89"/>
    <path d="M 333.309275 338.525646 
L 344.531452 361.825699 
L 350.991306 348.255078 
L 339.833206 322.714802 
z
" clip-path="url(#pd3279e176e)" style="fill: #228c8d"/>
    <path d="M 250.62867 189.905065 
L 261.834842 172.950762 
L 268.499657 171.022224 
L 257.293263 187.482317 
z
" clip-path="url(#pd3279e176e)" style="fill: #c0df25"/>
    <path d="M 331.51147 392.869868 
L 342.836724 408.413588 
L 349.301885 395.026221 
L 338.032511 376.992535 
z
" clip-path="url(#pd3279e176e)" style="fill: #2e6d8e"/>
    <path d="M 335.150914 280.621757 
L 346.298824 310.088452 
L 352.680271 301.393835 
L 341.59609 271.401948 
z
" clip-path="url(#pd3279e176e)" style="fill: #26ad81"/>
    <path d="M 220.918587 372.758116 
L 232.16048 375.594518 
L 238.649777 348.72849 
L 227.381567 346.374216 
z
" clip-path="url(#pd3279e176e)" style="fill: #26828e"/>
    <path d="M 217.959991 295.811208 
L 229.044819 287.990693 
L 235.490072 256.862922 
L 224.382548 267.367049 
z
" clip-path="url(#pd3279e176e)" style="fill: #32b67a"/>
    <path d="M 268.499657 171.022224 
L 279.85816 161.380714 
L 286.450342 168.396258 
L 275.127656 177.120597 
z
" clip-path="url(#pd3279e176e)" style="fill: #d5e21a"/>
    <path d="M 219.061994 417.416054 
L 230.338557 421.957727 
L 236.925261 403.210465 
L 225.637007 398.442645 
z
" clip-path="url(#pd3279e176e)" style="fill: #33638d"/>
    <path d="M 194.48979 442.022866 
L 205.72165 445.913839 
L 212.424953 433.016397 
L 201.202264 429.280991 
z
" clip-path="url(#pd3279e176e)" style="fill: #3c508b"/>
    <path d="M 225.637007 398.442645 
L 236.925261 403.210465 
L 243.47088 380.672834 
L 232.16048 375.594518 
z
" clip-path="url(#pd3279e176e)" style="fill: #2d708e"/>
    <path d="M 325.587393 209.306368 
L 336.816844 237.551283 
L 343.082649 240.487328 
L 331.919862 213.948497 
z
" clip-path="url(#pd3279e176e)" style="fill: #75d054"/>
    <path d="M 336.352739 421.743028 
L 347.744505 433.048329 
L 354.177911 421.655029 
L 342.836724 408.413588 
z
" clip-path="url(#pd3279e176e)" style="fill: #375b8d"/>
    <path d="M 326.751989 356.444739 
L 338.032511 376.992535 
L 344.531452 361.825699 
L 333.309275 338.525646 
z
" clip-path="url(#pd3279e176e)" style="fill: #25838e"/>
    <path d="M 347.744505 433.048329 
L 359.168943 442.601308 
L 365.552957 432.659308 
L 354.177911 421.655029 
z
" clip-path="url(#pd3279e176e)" style="fill: #3a538b"/>
    <path d="M 212.424953 433.016397 
L 223.699242 437.40455 
L 230.338557 421.957727 
L 219.061994 417.416054 
z
" clip-path="url(#pd3279e176e)" style="fill: #38588c"/>
    <path d="M 324.97936 408.639175 
L 336.352739 421.743028 
L 342.836724 408.413588 
L 331.51147 392.869868 
z
" clip-path="url(#pd3279e176e)" style="fill: #32658e"/>
    <path d="M 330.419192 240.729198 
L 341.59609 271.401948 
L 347.930714 267.547107 
L 336.816844 237.551283 
z
" clip-path="url(#pd3279e176e)" style="fill: #4ec36b"/>
    <path d="M 359.168943 442.601308 
L 370.636431 450.617816 
L 376.97447 441.705059 
L 365.552957 432.659308 
z
" clip-path="url(#pd3279e176e)" style="fill: #3d4e8a"/>
    <path d="M 320.180954 375.28288 
L 331.51147 392.869868 
L 338.032511 376.992535 
L 326.751989 356.444739 
z
" clip-path="url(#pd3279e176e)" style="fill: #297a8e"/>
    <path d="M 232.16048 375.594518 
L 243.47088 380.672834 
L 249.992707 354.206412 
L 238.649777 348.72849 
z
" clip-path="url(#pd3279e176e)" style="fill: #26828e"/>
    <path d="M 222.627849 318.581483 
L 233.823639 316.473969 
L 240.27282 284.152852 
L 229.044819 287.990693 
z
" clip-path="url(#pd3279e176e)" style="fill: #23a983"/>
    <path d="M 230.338557 421.957727 
L 241.662828 427.46086 
L 248.262587 409.428563 
L 236.925261 403.210465 
z
" clip-path="url(#pd3279e176e)" style="fill: #34618d"/>
    <path d="M 236.925261 403.210465 
L 248.262587 409.428563 
L 254.830925 387.853806 
L 243.47088 380.672834 
z
" clip-path="url(#pd3279e176e)" style="fill: #2e6f8e"/>
    <path d="M 328.622012 294.874525 
L 339.833206 322.714802 
L 346.298824 310.088452 
L 335.150914 280.621757 
z
" clip-path="url(#pd3279e176e)" style="fill: #23a983"/>
    <path d="M 227.381567 346.374216 
L 238.649777 348.72849 
L 245.128022 318.257045 
L 233.823639 316.473969 
z
" clip-path="url(#pd3279e176e)" style="fill: #1f958b"/>
    <path d="M 313.607953 393.946231 
L 324.97936 408.639175 
L 331.51147 392.869868 
L 320.180954 375.28288 
z
" clip-path="url(#pd3279e176e)" style="fill: #2d708e"/>
    <path d="M 370.636431 450.617816 
L 382.153075 457.396633 
L 388.449488 449.174264 
L 376.97447 441.705059 
z
" clip-path="url(#pd3279e176e)" style="fill: #3e4989"/>
    <path d="M 205.72165 445.913839 
L 217.001448 450.206383 
L 223.699242 437.40455 
L 212.424953 433.016397 
z
" clip-path="url(#pd3279e176e)" style="fill: #3c508b"/>
    <path d="M 224.382548 267.367049 
L 235.490072 256.862922 
L 241.987924 227.449498 
L 230.852126 240.47796 
z
" clip-path="url(#pd3279e176e)" style="fill: #5ac864"/>
    <path d="M 318.440716 423.663294 
L 329.854419 434.555324 
L 336.352739 421.743028 
L 324.97936 408.639175 
z
" clip-path="url(#pd3279e176e)" style="fill: #355e8d"/>
    <path d="M 329.854419 434.555324 
L 341.289982 444.102452 
L 347.744505 433.048329 
L 336.352739 421.743028 
z
" clip-path="url(#pd3279e176e)" style="fill: #39568c"/>
    <path d="M 223.699242 437.40455 
L 235.019646 442.40622 
L 241.662828 427.46086 
L 230.338557 421.957727 
z
" clip-path="url(#pd3279e176e)" style="fill: #39568c"/>
    <path d="M 307.036693 411.588053 
L 318.440716 423.663294 
L 324.97936 408.639175 
L 313.607953 393.946231 
z
" clip-path="url(#pd3279e176e)" style="fill: #31678e"/>
    <path d="M 243.982639 200.025055 
L 255.173479 183.542676 
L 261.834842 172.950762 
L 250.62867 189.905065 
z
" clip-path="url(#pd3279e176e)" style="fill: #c0df25"/>
    <path d="M 248.262587 409.428563 
L 259.635733 416.824802 
L 266.221924 396.739034 
L 254.830925 387.853806 
z
" clip-path="url(#pd3279e176e)" style="fill: #2f6b8e"/>
    <path d="M 243.47088 380.672834 
L 254.830925 387.853806 
L 261.384328 362.611942 
L 249.992707 354.206412 
z
" clip-path="url(#pd3279e176e)" style="fill: #277f8e"/>
    <path d="M 341.289982 444.102452 
L 352.758315 452.33609 
L 359.168943 442.601308 
L 347.744505 433.048329 
z
" clip-path="url(#pd3279e176e)" style="fill: #3c508b"/>
    <path d="M 322.040262 313.1916 
L 333.309275 338.525646 
L 339.833206 322.714802 
L 328.622012 294.874525 
z
" clip-path="url(#pd3279e176e)" style="fill: #1fa188"/>
    <path d="M 241.662828 427.46086 
L 253.025833 433.746885 
L 259.635733 416.824802 
L 248.262587 409.428563 
z
" clip-path="url(#pd3279e176e)" style="fill: #355f8d"/>
    <path d="M 302.223249 378.189202 
L 313.607953 393.946231 
L 320.180954 375.28288 
L 308.824717 356.314634 
z
" clip-path="url(#pd3279e176e)" style="fill: #287c8e"/>
    <path d="M 295.63146 398.727995 
L 307.036693 411.588053 
L 313.607953 393.946231 
L 302.223249 378.189202 
z
" clip-path="url(#pd3279e176e)" style="fill: #2d708e"/>
    <path d="M 308.824717 356.314634 
L 320.180954 375.28288 
L 326.751989 356.444739 
L 315.434139 334.181871 
z
" clip-path="url(#pd3279e176e)" style="fill: #23898e"/>
    <path d="M 315.434139 334.181871 
L 326.751989 356.444739 
L 333.309275 338.525646 
L 322.040262 313.1916 
z
" clip-path="url(#pd3279e176e)" style="fill: #1f958b"/>
    <path d="M 254.830925 387.853806 
L 266.221924 396.739034 
L 272.79943 373.384781 
L 261.384328 362.611942 
z
" clip-path="url(#pd3279e176e)" style="fill: #297a8e"/>
    <path d="M 259.635733 416.824802 
L 271.033914 425.006648 
L 277.629071 406.754932 
L 266.221924 396.739034 
z
" clip-path="url(#pd3279e176e)" style="fill: #31678e"/>
    <path d="M 289.0438 417.265176 
L 300.464318 427.680798 
L 307.036693 411.588053 
L 295.63146 398.727995 
z
" clip-path="url(#pd3279e176e)" style="fill: #32658e"/>
    <path d="M 238.649777 348.72849 
L 249.992707 354.206412 
L 256.512204 324.217001 
L 245.128022 318.257045 
z
" clip-path="url(#pd3279e176e)" style="fill: #1f958b"/>
    <path d="M 352.758315 452.33609 
L 364.267594 459.416571 
L 370.636431 450.617816 
L 359.168943 442.601308 
z
" clip-path="url(#pd3279e176e)" style="fill: #3e4a89"/>
    <path d="M 314.238925 185.493614 
L 325.587393 209.306368 
L 331.919862 213.948497 
L 320.642889 191.54989 
z
" clip-path="url(#pd3279e176e)" style="fill: #aadc32"/>
    <path d="M 266.221924 396.739034 
L 277.629071 406.754932 
L 284.218644 385.72011 
L 272.79943 373.384781 
z
" clip-path="url(#pd3279e176e)" style="fill: #2c738e"/>
    <path d="M 300.464318 427.680798 
L 311.894503 437.542299 
L 318.440716 423.663294 
L 307.036693 411.588053 
z
" clip-path="url(#pd3279e176e)" style="fill: #355e8d"/>
    <path d="M 277.629071 406.754932 
L 289.0438 417.265176 
L 295.63146 398.727995 
L 284.218644 385.72011 
z
" clip-path="url(#pd3279e176e)" style="fill: #2e6d8e"/>
    <path d="M 230.852126 240.47796 
L 241.987924 227.449498 
L 248.550563 202.24518 
L 237.385148 217.355406 
z
" clip-path="url(#pd3279e176e)" style="fill: #86d549"/>
    <path d="M 235.019646 442.40622 
L 246.380373 447.908904 
L 253.025833 433.746885 
L 241.662828 427.46086 
z
" clip-path="url(#pd3279e176e)" style="fill: #39558c"/>
    <path d="M 284.218644 385.72011 
L 295.63146 398.727995 
L 302.223249 378.189202 
L 290.81541 362.21388 
z
" clip-path="url(#pd3279e176e)" style="fill: #297a8e"/>
    <path d="M 311.894503 437.542299 
L 323.341792 446.560463 
L 329.854419 434.555324 
L 318.440716 423.663294 
z
" clip-path="url(#pd3279e176e)" style="fill: #39568c"/>
    <path d="M 217.001448 450.206383 
L 228.325898 454.876809 
L 235.019646 442.40622 
L 223.699242 437.40455 
z
" clip-path="url(#pd3279e176e)" style="fill: #3c4f8a"/>
    <path d="M 279.85816 161.380714 
L 291.313819 160.347301 
L 297.85366 167.679136 
L 286.450342 168.396258 
z
" clip-path="url(#pd3279e176e)" style="fill: #eae51a"/>
    <path d="M 271.033914 425.006648 
L 282.45056 433.537488 
L 289.0438 417.265176 
L 277.629071 406.754932 
z
" clip-path="url(#pd3279e176e)" style="fill: #34618d"/>
    <path d="M 253.025833 433.746885 
L 264.420089 440.557869 
L 271.033914 425.006648 
L 259.635733 416.824802 
z
" clip-path="url(#pd3279e176e)" style="fill: #375b8d"/>
    <path d="M 237.385148 217.355406 
L 248.550563 202.24518 
L 255.173479 183.542676 
L 243.982639 200.025055 
z
" clip-path="url(#pd3279e176e)" style="fill: #aadc32"/>
    <path d="M 323.91176 250.494969 
L 335.150914 280.621757 
L 341.59609 271.401948 
L 330.419192 240.729198 
z
" clip-path="url(#pd3279e176e)" style="fill: #4ec36b"/>
    <path d="M 323.341792 446.560463 
L 334.814856 454.61624 
L 341.289982 444.102452 
L 329.854419 434.555324 
z
" clip-path="url(#pd3279e176e)" style="fill: #3b518b"/>
    <path d="M 229.044819 287.990693 
L 240.27282 284.152852 
L 246.756274 251.23275 
L 235.490072 256.862922 
z
" clip-path="url(#pd3279e176e)" style="fill: #42be71"/>
    <path d="M 282.45056 433.537488 
L 293.883817 442.0119 
L 300.464318 427.680798 
L 289.0438 417.265176 
z
" clip-path="url(#pd3279e176e)" style="fill: #375b8d"/>
    <path d="M 272.79943 373.384781 
L 284.218644 385.72011 
L 290.81541 362.21388 
L 279.384228 347.115743 
z
" clip-path="url(#pd3279e176e)" style="fill: #25838e"/>
    <path d="M 233.823639 316.473969 
L 245.128022 318.257045 
L 251.620825 285.299271 
L 240.27282 284.152852 
z
" clip-path="url(#pd3279e176e)" style="fill: #26ad81"/>
    <path d="M 290.81541 362.21388 
L 302.223249 378.189202 
L 308.824717 356.314634 
L 297.428462 337.040616 
z
" clip-path="url(#pd3279e176e)" style="fill: #23898e"/>
    <path d="M 249.992707 354.206412 
L 261.384328 362.611942 
L 267.941779 334.088793 
L 256.512204 324.217001 
z
" clip-path="url(#pd3279e176e)" style="fill: #20928c"/>
    <path d="M 364.267594 459.416571 
L 375.822868 465.567829 
L 382.153075 457.396633 
L 370.636431 450.617816 
z
" clip-path="url(#pd3279e176e)" style="fill: #3f4889"/>
    <path d="M 261.384328 362.611942 
L 272.79943 373.384781 
L 279.384228 347.115743 
L 267.941779 334.088793 
z
" clip-path="url(#pd3279e176e)" style="fill: #228c8d"/>
    <path d="M 264.420089 440.557869 
L 275.840848 447.606343 
L 282.45056 433.537488 
L 271.033914 425.006648 
z
" clip-path="url(#pd3279e176e)" style="fill: #38588c"/>
    <path d="M 293.883817 442.0119 
L 305.335898 450.112372 
L 311.894503 437.542299 
L 300.464318 427.680798 
z
" clip-path="url(#pd3279e176e)" style="fill: #39568c"/>
    <path d="M 319.125324 211.843312 
L 330.419192 240.729198 
L 336.816844 237.551283 
L 325.587393 209.306368 
z
" clip-path="url(#pd3279e176e)" style="fill: #86d549"/>
    <path d="M 246.380373 447.908904 
L 257.776491 453.74992 
L 264.420089 440.557869 
L 253.025833 433.746885 
z
" clip-path="url(#pd3279e176e)" style="fill: #3b528b"/>
    <path d="M 334.814856 454.61624 
L 346.321689 461.730211 
L 352.758315 452.33609 
L 341.289982 444.102452 
z
" clip-path="url(#pd3279e176e)" style="fill: #3d4d8a"/>
    <path d="M 261.834842 172.950762 
L 273.20716 162.986349 
L 279.85816 161.380714 
L 268.499657 171.022224 
z
" clip-path="url(#pd3279e176e)" style="fill: #eae51a"/>
    <path d="M 297.428462 337.040616 
L 308.824717 356.314634 
L 315.434139 334.181871 
L 304.059374 311.513293 
z
" clip-path="url(#pd3279e176e)" style="fill: #1f998a"/>
    <path d="M 228.325898 454.876809 
L 239.691452 459.857099 
L 246.380373 447.908904 
L 235.019646 442.40622 
z
" clip-path="url(#pd3279e176e)" style="fill: #3d4e8a"/>
    <path d="M 302.796979 168.590349 
L 314.238925 185.493614 
L 320.642889 191.54989 
L 309.272123 175.586908 
z
" clip-path="url(#pd3279e176e)" style="fill: #d5e21a"/>
    <path d="M 291.313819 160.347301 
L 302.796979 168.590349 
L 309.272123 175.586908 
L 297.85366 167.679136 
z
" clip-path="url(#pd3279e176e)" style="fill: #eae51a"/>
    <path d="M 305.335898 450.112372 
L 316.81168 457.63805 
L 323.341792 446.560463 
L 311.894503 437.542299 
z
" clip-path="url(#pd3279e176e)" style="fill: #3b518b"/>
    <path d="M 275.840848 447.606343 
L 287.286509 454.624721 
L 293.883817 442.0119 
L 282.45056 433.537488 
z
" clip-path="url(#pd3279e176e)" style="fill: #3a538b"/>
    <path d="M 317.32671 266.435943 
L 328.622012 294.874525 
L 335.150914 280.621757 
L 323.91176 250.494969 
z
" clip-path="url(#pd3279e176e)" style="fill: #42be71"/>
    <path d="M 279.384228 347.115743 
L 290.81541 362.21388 
L 297.428462 337.040616 
L 285.989602 318.862531 
z
" clip-path="url(#pd3279e176e)" style="fill: #1f958b"/>
    <path d="M 304.059374 311.513293 
L 315.434139 334.181871 
L 322.040262 313.1916 
L 310.699065 287.349432 
z
" clip-path="url(#pd3279e176e)" style="fill: #23a983"/>
    <path d="M 346.321689 461.730211 
L 357.868469 468.016682 
L 364.267594 459.416571 
L 352.758315 452.33609 
z
" clip-path="url(#pd3279e176e)" style="fill: #3e4989"/>
    <path d="M 245.128022 318.257045 
L 256.512204 324.217001 
L 263.051417 291.801632 
L 251.620825 285.299271 
z
" clip-path="url(#pd3279e176e)" style="fill: #26ad81"/>
    <path d="M 257.776491 453.74992 
L 269.204769 459.747699 
L 275.840848 447.606343 
L 264.420089 440.557869 
z
" clip-path="url(#pd3279e176e)" style="fill: #3c508b"/>
    <path d="M 310.699065 287.349432 
L 322.040262 313.1916 
L 328.622012 294.874525 
L 317.32671 266.435943 
z
" clip-path="url(#pd3279e176e)" style="fill: #32b67a"/>
    <path d="M 316.81168 457.63805 
L 328.317096 464.505348 
L 334.814856 454.61624 
L 323.341792 446.560463 
z
" clip-path="url(#pd3279e176e)" style="fill: #3d4d8a"/>
    <path d="M 287.286509 454.624721 
L 298.758259 461.40284 
L 305.335898 450.112372 
L 293.883817 442.0119 
z
" clip-path="url(#pd3279e176e)" style="fill: #3c508b"/>
    <path d="M 267.941779 334.088793 
L 279.384228 347.115743 
L 285.989602 318.862531 
L 274.521045 303.316151 
z
" clip-path="url(#pd3279e176e)" style="fill: #1fa188"/>
    <path d="M 239.691452 459.857099 
L 251.095038 465.048822 
L 257.776491 453.74992 
L 246.380373 447.908904 
z
" clip-path="url(#pd3279e176e)" style="fill: #3d4d8a"/>
    <path d="M 235.490072 256.862922 
L 246.756274 251.23275 
L 253.293802 220.129715 
L 241.987924 227.449498 
z
" clip-path="url(#pd3279e176e)" style="fill: #75d054"/>
    <path d="M 256.512204 324.217001 
L 267.941779 334.088793 
L 274.521045 303.316151 
L 263.051417 291.801632 
z
" clip-path="url(#pd3279e176e)" style="fill: #23a983"/>
    <path d="M 357.868469 468.016682 
L 369.459184 473.636543 
L 375.822868 465.567829 
L 364.267594 459.416571 
z
" clip-path="url(#pd3279e176e)" style="fill: #404688"/>
    <path d="M 285.989602 318.862531 
L 297.428462 337.040616 
L 304.059374 311.513293 
L 292.621678 290.156438 
z
" clip-path="url(#pd3279e176e)" style="fill: #23a983"/>
    <path d="M 240.27282 284.152852 
L 251.620825 285.299271 
L 258.151011 251.719467 
L 246.756274 251.23275 
z
" clip-path="url(#pd3279e176e)" style="fill: #4ec36b"/>
    <path d="M 269.204769 459.747699 
L 280.663989 465.732935 
L 287.286509 454.624721 
L 275.840848 447.606343 
z
" clip-path="url(#pd3279e176e)" style="fill: #3d4e8a"/>
    <path d="M 328.317096 464.505348 
L 339.857783 470.72735 
L 346.321689 461.730211 
L 334.814856 454.61624 
z
" clip-path="url(#pd3279e176e)" style="fill: #3e4989"/>
    <path d="M 298.758259 461.40284 
L 310.259185 467.807258 
L 316.81168 457.63805 
L 305.335898 450.112372 
z
" clip-path="url(#pd3279e176e)" style="fill: #3d4d8a"/>
    <path d="M 312.561279 222.122982 
L 323.91176 250.494969 
L 330.419192 240.729198 
L 319.125324 211.843312 
z
" clip-path="url(#pd3279e176e)" style="fill: #86d549"/>
    <path d="M 255.173479 183.542676 
L 266.53866 173.901374 
L 273.20716 162.986349 
L 261.834842 172.950762 
z
" clip-path="url(#pd3279e176e)" style="fill: #eae51a"/>
    <path d="M 251.095038 465.048822 
L 262.534597 470.342009 
L 269.204769 459.747699 
L 257.776491 453.74992 
z
" clip-path="url(#pd3279e176e)" style="fill: #3e4a89"/>
    <path d="M 307.715041 187.496078 
L 319.125324 211.843312 
L 325.587393 209.306368 
L 314.238925 185.493614 
z
" clip-path="url(#pd3279e176e)" style="fill: #c0df25"/>
    <path d="M 280.663989 465.732935 
L 292.154766 471.572386 
L 298.758259 461.40284 
L 287.286509 454.624721 
z
" clip-path="url(#pd3279e176e)" style="fill: #3e4a89"/>
    <path d="M 241.987924 227.449498 
L 253.293802 220.129715 
L 259.891623 193.528383 
L 248.550563 202.24518 
z
" clip-path="url(#pd3279e176e)" style="fill: #aadc32"/>
    <path d="M 339.857783 470.72735 
L 351.438226 476.382309 
L 357.868469 468.016682 
L 346.321689 461.730211 
z
" clip-path="url(#pd3279e176e)" style="fill: #3f4788"/>
    <path d="M 310.259185 467.807258 
L 321.793206 473.781995 
L 328.317096 464.505348 
L 316.81168 457.63805 
z
" clip-path="url(#pd3279e176e)" style="fill: #3e4989"/>
    <path d="M 292.621678 290.156438 
L 304.059374 311.513293 
L 310.699065 287.349432 
L 299.275329 263.012448 
z
" clip-path="url(#pd3279e176e)" style="fill: #3aba76"/>
    <path d="M 273.20716 162.986349 
L 284.691892 161.851094 
L 291.313819 160.347301 
L 279.85816 161.380714 
z
" clip-path="url(#pd3279e176e)" style="fill: #fde725"/>
    <path d="M 274.521045 303.316151 
L 285.989602 318.862531 
L 292.621678 290.156438 
L 281.133715 272.003053 
z
" clip-path="url(#pd3279e176e)" style="fill: #32b67a"/>
    <path d="M 251.620825 285.299271 
L 263.051417 291.801632 
L 269.627742 258.785269 
L 258.151011 251.719467 
z
" clip-path="url(#pd3279e176e)" style="fill: #4ec36b"/>
    <path d="M 248.550563 202.24518 
L 259.891623 193.528383 
L 266.53866 173.901374 
L 255.173479 183.542676 
z
" clip-path="url(#pd3279e176e)" style="fill: #d5e21a"/>
    <path d="M 305.932064 239.655168 
L 317.32671 266.435943 
L 323.91176 250.494969 
L 312.561279 222.122982 
z
" clip-path="url(#pd3279e176e)" style="fill: #75d054"/>
    <path d="M 263.051417 291.801632 
L 274.521045 303.316151 
L 281.133715 272.003053 
L 269.627742 258.785269 
z
" clip-path="url(#pd3279e176e)" style="fill: #42be71"/>
    <path d="M 262.534597 470.342009 
L 274.009305 475.633999 
L 280.663989 465.732935 
L 269.204769 459.747699 
z
" clip-path="url(#pd3279e176e)" style="fill: #3e4989"/>
    <path d="M 299.275329 263.012448 
L 310.699065 287.349432 
L 317.32671 266.435943 
L 305.932064 239.655168 
z
" clip-path="url(#pd3279e176e)" style="fill: #5ac864"/>
    <path d="M 292.154766 471.572386 
L 303.679 477.18123 
L 310.259185 467.807258 
L 298.758259 461.40284 
z
" clip-path="url(#pd3279e176e)" style="fill: #3e4989"/>
    <path d="M 321.793206 473.781995 
L 333.364157 479.335159 
L 339.857783 470.72735 
L 328.317096 464.505348 
z
" clip-path="url(#pd3279e176e)" style="fill: #3f4788"/>
    <path d="M 351.438226 476.382309 
L 363.061444 481.581063 
L 369.459184 473.636543 
L 357.868469 468.016682 
z
" clip-path="url(#pd3279e176e)" style="fill: #404588"/>
    <path d="M 246.756274 251.23275 
L 258.151011 251.719467 
L 264.73234 219.99296 
L 253.293802 220.129715 
z
" clip-path="url(#pd3279e176e)" style="fill: #86d549"/>
    <path d="M 296.218407 170.232194 
L 307.715041 187.496078 
L 314.238925 185.493614 
L 302.796979 168.590349 
z
" clip-path="url(#pd3279e176e)" style="fill: #eae51a"/>
    <path d="M 284.691892 161.851094 
L 296.218407 170.232194 
L 302.796979 168.590349 
L 291.313819 160.347301 
z
" clip-path="url(#pd3279e176e)" style="fill: #fde725"/>
    <path d="M 281.133715 272.003053 
L 292.621678 290.156438 
L 299.275329 263.012448 
L 287.780207 242.409245 
z
" clip-path="url(#pd3279e176e)" style="fill: #5ac864"/>
    <path d="M 274.009305 475.633999 
L 285.51949 480.843891 
L 292.154766 471.572386 
L 280.663989 465.732935 
z
" clip-path="url(#pd3279e176e)" style="fill: #3f4889"/>
    <path d="M 303.679 477.18123 
L 315.239208 482.523696 
L 321.793206 473.781995 
L 310.259185 467.807258 
z
" clip-path="url(#pd3279e176e)" style="fill: #3f4788"/>
    <path d="M 301.104169 198.196515 
L 312.561279 222.122982 
L 319.125324 211.843312 
L 307.715041 187.496078 
z
" clip-path="url(#pd3279e176e)" style="fill: #c0df25"/>
    <path d="M 333.364157 479.335159 
L 344.975178 484.518199 
L 351.438226 476.382309 
L 339.857783 470.72735 
z
" clip-path="url(#pd3279e176e)" style="fill: #404588"/>
    <path d="M 266.53866 173.901374 
L 278.028181 172.897556 
L 284.691892 161.851094 
L 273.20716 162.986349 
z
" clip-path="url(#pd3279e176e)" style="fill: #fde725"/>
    <path d="M 258.151011 251.719467 
L 269.627742 258.785269 
L 276.24817 227.588515 
L 264.73234 219.99296 
z
" clip-path="url(#pd3279e176e)" style="fill: #86d549"/>
    <path d="M 269.627742 258.785269 
L 281.133715 272.003053 
L 287.780207 242.409245 
L 276.24817 227.588515 
z
" clip-path="url(#pd3279e176e)" style="fill: #75d054"/>
    <path d="M 253.293802 220.129715 
L 264.73234 219.99296 
L 271.36402 192.873024 
L 259.891623 193.528383 
z
" clip-path="url(#pd3279e176e)" style="fill: #c0df25"/>
    <path d="M 287.780207 242.409245 
L 299.275329 263.012448 
L 305.932064 239.655168 
L 294.446477 217.039558 
z
" clip-path="url(#pd3279e176e)" style="fill: #86d549"/>
    <path d="M 285.51949 480.843891 
L 297.066313 485.920102 
L 303.679 477.18123 
L 292.154766 471.572386 
z
" clip-path="url(#pd3279e176e)" style="fill: #404688"/>
    <path d="M 294.446477 217.039558 
L 305.932064 239.655168 
L 312.561279 222.122982 
L 301.104169 198.196515 
z
" clip-path="url(#pd3279e176e)" style="fill: #aadc32"/>
    <path d="M 315.239208 482.523696 
L 326.83792 487.604689 
L 333.364157 479.335159 
L 321.793206 473.781995 
z
" clip-path="url(#pd3279e176e)" style="fill: #404588"/>
    <path d="M 259.891623 193.528383 
L 271.36402 192.873024 
L 278.028181 172.897556 
L 266.53866 173.901374 
z
" clip-path="url(#pd3279e176e)" style="fill: #eae51a"/>
    <path d="M 344.975178 484.518199 
L 356.628477 489.404334 
L 363.061444 481.581063 
L 351.438226 476.382309 
z
" clip-path="url(#pd3279e176e)" style="fill: #404588"/>
    <path d="M 289.573769 181.202182 
L 301.104169 198.196515 
L 307.715041 187.496078 
L 296.218407 170.232194 
z
" clip-path="url(#pd3279e176e)" style="fill: #eae51a"/>
    <path d="M 278.028181 172.897556 
L 289.573769 181.202182 
L 296.218407 170.232194 
L 284.691892 161.851094 
z
" clip-path="url(#pd3279e176e)" style="fill: #fde725"/>
    <path d="M 276.24817 227.588515 
L 287.780207 242.409245 
L 294.446477 217.039558 
L 282.90482 200.90149 
z
" clip-path="url(#pd3279e176e)" style="fill: #aadc32"/>
    <path d="M 264.73234 219.99296 
L 276.24817 227.588515 
L 282.90482 200.90149 
L 271.36402 192.873024 
z
" clip-path="url(#pd3279e176e)" style="fill: #c0df25"/>
    <path d="M 297.066313 485.920102 
L 308.651361 490.84081 
L 315.239208 482.523696 
L 303.679 477.18123 
z
" clip-path="url(#pd3279e176e)" style="fill: #404588"/>
    <path d="M 326.83792 487.604689 
L 338.477274 492.456695 
L 344.975178 484.518199 
L 333.364157 479.335159 
z
" clip-path="url(#pd3279e176e)" style="fill: #404588"/>
    <path d="M 282.90482 200.90149 
L 294.446477 217.039558 
L 301.104169 198.196515 
L 289.573769 181.202182 
z
" clip-path="url(#pd3279e176e)" style="fill: #d5e21a"/>
    <path d="M 271.36402 192.873024 
L 282.90482 200.90149 
L 289.573769 181.202182 
L 278.028181 172.897556 
z
" clip-path="url(#pd3279e176e)" style="fill: #eae51a"/>
    <path d="M 308.651361 490.84081 
L 320.276271 495.608921 
L 326.83792 487.604689 
L 315.239208 482.523696 
z
" clip-path="url(#pd3279e176e)" style="fill: #404588"/>
    <path d="M 338.477274 492.456695 
L 350.158837 497.126091 
L 356.628477 489.404334 
L 344.975178 484.518199 
z
" clip-path="url(#pd3279e176e)" style="fill: #414487"/>
    <path d="M 320.276271 495.608921 
L 331.942471 500.244129 
L 338.477274 492.456695 
L 326.83792 487.604689 
z
" clip-path="url(#pd3279e176e)" style="fill: #414487"/>
    <path d="M 331.942471 500.244129 
L 343.651054 504.774604 
L 350.158837 497.126091 
L 338.477274 492.456695 
z
" clip-path="url(#pd3279e176e)" style="fill: #414487"/>
   </g>
  </g>
 </g>
 <defs>
  <clipPath id="pd3279e176e">
   <rect x="0" y="0" width="554.4" height="554.4"/>
  </clipPath>
 </defs>
</svg>
